<svg xmlns="http://www.w3.org/2000/svg" xmlns:xlink="http://www.w3.org/1999/xlink" width="273" zoomAndPan="magnify" viewBox="0 0 204.75 133.500001" height="178" preserveAspectRatio="xMidYMid meet" version="1.0"><defs><clipPath id="3ca5978155"><path d="M 97 0.285156 L 110 0.285156 L 110 28 L 97 28 Z M 97 0.285156 " clip-rule="nonzero"/></clipPath><clipPath id="5ed7e4e64d"><path d="M 97 0.285156 L 110 0.285156 L 110 28 L 97 28 Z M 97 0.285156 " clip-rule="nonzero"/></clipPath></defs><path fill="#65a500" d="M 163.195312 71.972656 C 152.273438 63.621094 141.820312 66.746094 136.089844 73.871094 C 142.757812 80.125 153.542969 81.765625 163.195312 71.972656 " fill-opacity="1" fill-rule="nonzero"/><path fill="#65a500" d="M 152.765625 45.527344 C 139.09375 46.949219 133.636719 56.398438 134.359375 65.511719 C 143.5 65.484375 152.46875 59.273438 152.765625 45.527344 " fill-opacity="1" fill-rule="nonzero"/><path fill="#65a500" d="M 121.039062 38.511719 C 114.472656 50.589844 119.171875 60.433594 127.09375 64.996094 C 132.246094 57.445312 132.199219 46.535156 121.039062 38.511719 " fill-opacity="1" fill-rule="nonzero"/><path fill="#65a500" d="M 160.933594 100.867188 C 167.601562 107.125 178.386719 108.761719 188.039062 98.972656 C 177.117188 90.621094 166.664062 93.746094 160.933594 100.867188 " fill-opacity="1" fill-rule="nonzero"/><path fill="#65a500" d="M 177.609375 72.527344 C 163.9375 73.949219 158.480469 83.398438 159.203125 92.507812 C 168.34375 92.484375 177.3125 86.269531 177.609375 72.527344 " fill-opacity="1" fill-rule="nonzero"/><path fill="#65a500" d="M 181.910156 68.25 C 191.054688 68.222656 200.023438 62.011719 200.320312 48.265625 C 186.648438 49.691406 181.191406 59.136719 181.910156 68.25 " fill-opacity="1" fill-rule="nonzero"/><path fill="#65a500" d="M 128.679688 13.277344 C 114.964844 14.230469 109.183594 23.484375 109.59375 32.617188 C 118.730469 32.90625 127.90625 27.003906 128.679688 13.277344 " fill-opacity="1" fill-rule="nonzero"/><g clip-path="url(#3ca5978155)"><path fill="#65a500" d="M 102.769531 27.488281 C 109.609375 21.425781 112.234375 10.835938 103.371094 0.328125 C 94.054688 10.433594 96.203125 21.128906 102.769531 27.488281 " fill-opacity="1" fill-rule="nonzero"/></g><path fill="#65a500" d="M 102.769531 61.847656 C 109.609375 55.785156 112.234375 45.195312 103.371094 34.6875 C 94.054688 44.792969 96.203125 55.488281 102.769531 61.847656 " fill-opacity="1" fill-rule="nonzero"/><path fill="#65a500" d="M 96.980469 31.90625 C 95.851562 22.835938 88.605469 14.679688 74.925781 16.035156 C 77.984375 29.4375 88.019531 33.722656 96.980469 31.90625 " fill-opacity="1" fill-rule="nonzero"/><path fill="#65a500" d="M 156.789062 50.144531 C 163.046875 56.8125 173.710938 59.128906 183.960938 49.96875 C 173.589844 40.941406 162.960938 43.398438 156.789062 50.144531 " fill-opacity="1" fill-rule="nonzero"/><path fill="#65a500" d="M 175.222656 22.914062 C 161.488281 23.472656 155.445312 32.554688 155.589844 41.695312 C 164.714844 42.246094 174.058594 36.613281 175.222656 22.914062 " fill-opacity="1" fill-rule="nonzero"/><path fill="#65a500" d="M 148.375 40.722656 C 153.992188 33.511719 154.636719 22.621094 144.003906 13.910156 C 136.6875 25.546875 140.753906 35.671875 148.375 40.722656 " fill-opacity="1" fill-rule="nonzero"/><path fill="#65a500" d="M 198.53125 66.972656 C 186.5625 73.730469 185.328125 84.570312 189.628906 92.640625 C 198 88.96875 203.742188 79.691406 198.53125 66.972656 " fill-opacity="1" fill-rule="nonzero"/><path fill="#65a500" d="M 16.5625 99.53125 C 26.210938 109.320312 37 107.683594 43.664062 101.425781 C 37.933594 94.304688 27.480469 91.179688 16.5625 99.53125 " fill-opacity="1" fill-rule="nonzero"/><path fill="#65a500" d="M 26.988281 73.085938 C 27.285156 86.828125 36.253906 93.039062 45.394531 93.070312 C 46.117188 83.953125 40.660156 74.507812 26.988281 73.085938 " fill-opacity="1" fill-rule="nonzero"/><path fill="#65a500" d="M 22.6875 68.808594 C 23.410156 59.695312 17.949219 50.246094 4.277344 48.824219 C 4.574219 62.570312 13.542969 68.78125 22.6875 68.808594 " fill-opacity="1" fill-rule="nonzero"/><path fill="#65a500" d="M 6.066406 67.527344 C 0.855469 80.25 6.597656 89.527344 14.972656 93.199219 C 19.269531 85.128906 18.035156 74.289062 6.066406 67.527344 " fill-opacity="1" fill-rule="nonzero"/><path fill="#65a500" d="M 46.472656 50.144531 C 40.300781 43.398438 29.671875 40.941406 19.300781 49.96875 C 29.550781 59.128906 40.214844 56.8125 46.472656 50.144531 " fill-opacity="1" fill-rule="nonzero"/><path fill="#65a500" d="M 47.671875 41.695312 C 47.816406 32.554688 41.773438 23.472656 28.039062 22.914062 C 29.203125 36.613281 38.546875 42.246094 47.671875 41.695312 " fill-opacity="1" fill-rule="nonzero"/><path fill="#65a500" d="M 59.261719 13.910156 C 48.628906 22.621094 49.269531 33.511719 54.890625 40.722656 C 62.507812 35.671875 66.574219 25.546875 59.261719 13.910156 " fill-opacity="1" fill-rule="nonzero"/><path fill="#65a500" d="M 39.46875 71.972656 C 49.121094 81.765625 59.90625 80.125 66.574219 73.871094 C 60.84375 66.746094 50.390625 63.621094 39.46875 71.972656 " fill-opacity="1" fill-rule="nonzero"/><path fill="#65a500" d="M 68.304688 65.511719 C 69.027344 56.398438 63.570312 46.949219 49.898438 45.527344 C 50.195312 59.273438 59.164062 65.484375 68.304688 65.511719 " fill-opacity="1" fill-rule="nonzero"/><path fill="#65a500" d="M 81.625 38.511719 C 70.464844 46.535156 70.417969 57.445312 75.570312 64.996094 C 83.492188 60.433594 88.191406 50.589844 81.625 38.511719 " fill-opacity="1" fill-rule="nonzero"/><path fill="#65a500" d="M 157.660156 97.011719 L 154.449219 93.816406 C 145.050781 103.269531 132.183594 108.40625 118.015625 108.40625 C 117.976562 108.40625 117.933594 108.40625 117.890625 108.40625 C 117.867188 94.507812 122.796875 81.804688 131.894531 72.4375 L 128.648438 69.28125 C 119.585938 78.605469 114.3125 90.929688 113.480469 104.472656 C 110.785156 100.050781 107.445312 95.910156 103.496094 92.152344 L 101.976562 90.703125 L 100.417969 92.109375 C 96.039062 96.054688 92.359375 100.457031 89.4375 105.191406 C 88.738281 91.03125 83.214844 78.203125 73.589844 68.632812 L 70.394531 71.847656 C 79.875 81.273438 85.011719 94.191406 84.984375 108.40625 C 84.945312 108.40625 84.90625 108.40625 84.871094 108.40625 C 71.019531 108.40625 58.359375 103.476562 49.015625 94.398438 L 45.859375 97.648438 C 56.054688 107.554688 69.828125 112.933594 84.867188 112.933594 C 85.0625 112.933594 85.261719 112.929688 85.457031 112.929688 C 82.820312 119.230469 81.410156 125.945312 81.335938 132.832031 L 85.863281 132.882812 C 86.007812 119.550781 91.652344 106.898438 101.804688 97.015625 C 101.832031 96.988281 101.863281 96.960938 101.890625 96.933594 C 111.601562 106.871094 116.929688 119.414062 116.9375 132.472656 L 121.46875 132.46875 C 121.464844 125.746094 120.171875 119.152344 117.703125 112.929688 C 117.808594 112.929688 117.914062 112.933594 118.023438 112.933594 C 133.398438 112.933594 147.402344 107.328125 157.660156 97.011719 " fill-opacity="1" fill-rule="nonzero"/><path fill="#65a500" d="M 143.300781 90.703125 C 143.300781 94.679688 140.066406 97.914062 136.089844 97.914062 C 132.117188 97.914062 128.882812 94.679688 128.882812 90.703125 C 128.882812 86.730469 132.117188 83.496094 136.089844 83.496094 C 140.066406 83.496094 143.300781 86.730469 143.300781 90.703125 Z M 125.128906 90.703125 C 125.128906 96.75 130.046875 101.667969 136.089844 101.667969 C 142.136719 101.667969 147.054688 96.75 147.054688 90.703125 C 147.054688 84.660156 142.136719 79.742188 136.089844 79.742188 C 130.046875 79.742188 125.128906 84.660156 125.128906 90.703125 " fill-opacity="1" fill-rule="nonzero"/><path fill="#65a500" d="M 100.476562 85.144531 C 96.5 85.144531 93.269531 81.910156 93.269531 77.933594 C 93.269531 73.960938 96.5 70.726562 100.476562 70.726562 C 104.453125 70.726562 107.683594 73.960938 107.683594 77.933594 C 107.683594 81.910156 104.453125 85.144531 100.476562 85.144531 Z M 100.476562 66.972656 C 94.429688 66.972656 89.515625 71.890625 89.515625 77.933594 C 89.515625 83.976562 94.429688 88.898438 100.476562 88.898438 C 106.523438 88.898438 111.4375 83.976562 111.4375 77.933594 C 111.4375 71.890625 106.523438 66.972656 100.476562 66.972656 " fill-opacity="1" fill-rule="nonzero"/><path fill="#65a500" d="M 67.144531 83.496094 C 71.121094 83.496094 74.351562 86.730469 74.351562 90.703125 C 74.351562 94.679688 71.121094 97.914062 67.144531 97.914062 C 63.167969 97.914062 59.9375 94.679688 59.9375 90.703125 C 59.9375 86.730469 63.167969 83.496094 67.144531 83.496094 Z M 67.144531 101.667969 C 73.191406 101.667969 78.105469 96.75 78.105469 90.703125 C 78.105469 84.660156 73.191406 79.742188 67.144531 79.742188 C 61.097656 79.742188 56.183594 84.660156 56.183594 90.703125 C 56.183594 96.75 61.097656 101.667969 67.144531 101.667969 " fill-opacity="1" fill-rule="nonzero"/><path fill="#65a500" d="M 163.195312 71.972656 C 152.273438 63.621094 141.820312 66.746094 136.089844 73.871094 C 142.757812 80.125 153.542969 81.765625 163.195312 71.972656 " fill-opacity="1" fill-rule="nonzero"/><path fill="#65a500" d="M 152.765625 45.527344 C 139.09375 46.949219 133.636719 56.398438 134.359375 65.511719 C 143.5 65.484375 152.46875 59.273438 152.765625 45.527344 " fill-opacity="1" fill-rule="nonzero"/><path fill="#65a500" d="M 121.039062 38.511719 C 114.472656 50.589844 119.171875 60.433594 127.09375 64.996094 C 132.246094 57.445312 132.199219 46.535156 121.039062 38.511719 " fill-opacity="1" fill-rule="nonzero"/><path fill="#65a500" d="M 160.933594 100.867188 C 167.601562 107.125 178.386719 108.761719 188.039062 98.972656 C 177.117188 90.621094 166.664062 93.746094 160.933594 100.867188 " fill-opacity="1" fill-rule="nonzero"/><path fill="#65a500" d="M 177.609375 72.527344 C 163.9375 73.949219 158.480469 83.398438 159.203125 92.507812 C 168.34375 92.484375 177.3125 86.269531 177.609375 72.527344 " fill-opacity="1" fill-rule="nonzero"/><path fill="#65a500" d="M 181.910156 68.25 C 191.054688 68.222656 200.023438 62.011719 200.320312 48.265625 C 186.648438 49.691406 181.191406 59.136719 181.910156 68.25 " fill-opacity="1" fill-rule="nonzero"/><path fill="#65a500" d="M 128.679688 13.277344 C 114.964844 14.230469 109.183594 23.484375 109.59375 32.617188 C 118.730469 32.90625 127.90625 27.003906 128.679688 13.277344 " fill-opacity="1" fill-rule="nonzero"/><g clip-path="url(#5ed7e4e64d)"><path fill="#65a500" d="M 102.769531 27.488281 C 109.609375 21.425781 112.234375 10.835938 103.371094 0.328125 C 94.054688 10.433594 96.203125 21.128906 102.769531 27.488281 " fill-opacity="1" fill-rule="nonzero"/></g><path fill="#65a500" d="M 102.769531 61.847656 C 109.609375 55.785156 112.234375 45.195312 103.371094 34.6875 C 94.054688 44.792969 96.203125 55.488281 102.769531 61.847656 " fill-opacity="1" fill-rule="nonzero"/><path fill="#65a500" d="M 96.980469 31.90625 C 95.851562 22.835938 88.605469 14.679688 74.925781 16.035156 C 77.984375 29.4375 88.019531 33.722656 96.980469 31.90625 " fill-opacity="1" fill-rule="nonzero"/><path fill="#65a500" d="M 156.789062 50.144531 C 163.046875 56.8125 173.710938 59.128906 183.960938 49.96875 C 173.589844 40.941406 162.960938 43.398438 156.789062 50.144531 " fill-opacity="1" fill-rule="nonzero"/><path fill="#65a500" d="M 175.222656 22.914062 C 161.488281 23.472656 155.445312 32.554688 155.589844 41.695312 C 164.714844 42.246094 174.058594 36.613281 175.222656 22.914062 " fill-opacity="1" fill-rule="nonzero"/><path fill="#65a500" d="M 148.375 40.722656 C 153.992188 33.511719 154.636719 22.621094 144.003906 13.910156 C 136.6875 25.546875 140.753906 35.671875 148.375 40.722656 " fill-opacity="1" fill-rule="nonzero"/><path fill="#65a500" d="M 198.53125 66.972656 C 186.5625 73.730469 185.328125 84.570312 189.628906 92.640625 C 198 88.96875 203.742188 79.691406 198.53125 66.972656 " fill-opacity="1" fill-rule="nonzero"/><path fill="#65a500" d="M 16.5625 99.53125 C 26.210938 109.320312 37 107.683594 43.664062 101.425781 C 37.933594 94.304688 27.480469 91.179688 16.5625 99.53125 " fill-opacity="1" fill-rule="nonzero"/><path fill="#65a500" d="M 26.988281 73.085938 C 27.285156 86.828125 36.253906 93.039062 45.394531 93.070312 C 46.117188 83.953125 40.660156 74.507812 26.988281 73.085938 " fill-opacity="1" fill-rule="nonzero"/><path fill="#65a500" d="M 22.6875 68.808594 C 23.410156 59.695312 17.949219 50.246094 4.277344 48.824219 C 4.574219 62.570312 13.542969 68.78125 22.6875 68.808594 " fill-opacity="1" fill-rule="nonzero"/><path fill="#65a500" d="M 6.066406 67.527344 C 0.855469 80.25 6.597656 89.527344 14.972656 93.199219 C 19.269531 85.128906 18.035156 74.289062 6.066406 67.527344 " fill-opacity="1" fill-rule="nonzero"/><path fill="#65a500" d="M 46.472656 50.144531 C 40.300781 43.398438 29.671875 40.941406 19.300781 49.96875 C 29.550781 59.128906 40.214844 56.8125 46.472656 50.144531 " fill-opacity="1" fill-rule="nonzero"/><path fill="#65a500" d="M 47.671875 41.695312 C 47.816406 32.554688 41.773438 23.472656 28.039062 22.914062 C 29.203125 36.613281 38.546875 42.246094 47.671875 41.695312 " fill-opacity="1" fill-rule="nonzero"/><path fill="#65a500" d="M 59.261719 13.910156 C 48.628906 22.621094 49.269531 33.511719 54.890625 40.722656 C 62.507812 35.671875 66.574219 25.546875 59.261719 13.910156 " fill-opacity="1" fill-rule="nonzero"/><path fill="#65a500" d="M 39.46875 71.972656 C 49.121094 81.765625 59.90625 80.125 66.574219 73.871094 C 60.84375 66.746094 50.390625 63.621094 39.46875 71.972656 " fill-opacity="1" fill-rule="nonzero"/><path fill="#65a500" d="M 68.304688 65.511719 C 69.027344 56.398438 63.570312 46.949219 49.898438 45.527344 C 50.195312 59.273438 59.164062 65.484375 68.304688 65.511719 " fill-opacity="1" fill-rule="nonzero"/><path fill="#65a500" d="M 81.625 38.511719 C 70.464844 46.535156 70.417969 57.445312 75.570312 64.996094 C 83.492188 60.433594 88.191406 50.589844 81.625 38.511719 " fill-opacity="1" fill-rule="nonzero"/><path fill="#65a500" d="M 157.660156 97.011719 L 154.449219 93.816406 C 145.050781 103.269531 132.183594 108.40625 118.015625 108.40625 C 117.976562 108.40625 117.933594 108.40625 117.890625 108.40625 C 117.867188 94.507812 122.796875 81.804688 131.894531 72.4375 L 128.648438 69.28125 C 119.585938 78.605469 114.3125 90.929688 113.480469 104.472656 C 110.785156 100.050781 107.445312 95.910156 103.496094 92.152344 L 101.976562 90.703125 L 100.417969 92.109375 C 96.039062 96.054688 92.359375 100.457031 89.4375 105.191406 C 88.738281 91.03125 83.214844 78.203125 73.589844 68.632812 L 70.394531 71.847656 C 79.875 81.273438 85.011719 94.191406 84.984375 108.40625 C 84.945312 108.40625 84.90625 108.40625 84.871094 108.40625 C 71.019531 108.40625 58.359375 103.476562 49.015625 94.398438 L 45.859375 97.648438 C 56.054688 107.554688 69.828125 112.933594 84.867188 112.933594 C 85.0625 112.933594 85.261719 112.929688 85.457031 112.929688 C 82.820312 119.230469 81.410156 125.945312 81.335938 132.832031 L 85.863281 132.882812 C 86.007812 119.550781 91.652344 106.898438 101.804688 97.015625 C 101.832031 96.988281 101.863281 96.960938 101.890625 96.933594 C 111.601562 106.871094 116.929688 119.414062 116.9375 132.472656 L 121.46875 132.46875 C 121.464844 125.746094 120.171875 119.152344 117.703125 112.929688 C 117.808594 112.929688 117.914062 112.933594 118.023438 112.933594 C 133.398438 112.933594 147.402344 107.328125 157.660156 97.011719 " fill-opacity="1" fill-rule="nonzero"/><path fill="#65a500" d="M 143.300781 90.703125 C 143.300781 94.679688 140.066406 97.914062 136.089844 97.914062 C 132.117188 97.914062 128.882812 94.679688 128.882812 90.703125 C 128.882812 86.730469 132.117188 83.496094 136.089844 83.496094 C 140.066406 83.496094 143.300781 86.730469 143.300781 90.703125 Z M 125.128906 90.703125 C 125.128906 96.75 130.046875 101.667969 136.089844 101.667969 C 142.136719 101.667969 147.054688 96.75 147.054688 90.703125 C 147.054688 84.660156 142.136719 79.742188 136.089844 79.742188 C 130.046875 79.742188 125.128906 84.660156 125.128906 90.703125 " fill-opacity="1" fill-rule="nonzero"/><path fill="#65a500" d="M 100.476562 85.144531 C 96.5 85.144531 93.269531 81.910156 93.269531 77.933594 C 93.269531 73.960938 96.5 70.726562 100.476562 70.726562 C 104.453125 70.726562 107.683594 73.960938 107.683594 77.933594 C 107.683594 81.910156 104.453125 85.144531 100.476562 85.144531 Z M 100.476562 66.972656 C 94.429688 66.972656 89.515625 71.890625 89.515625 77.933594 C 89.515625 83.976562 94.429688 88.898438 100.476562 88.898438 C 106.523438 88.898438 111.4375 83.976562 111.4375 77.933594 C 111.4375 71.890625 106.523438 66.972656 100.476562 66.972656 " fill-opacity="1" fill-rule="nonzero"/><path fill="#65a500" d="M 67.144531 83.496094 C 71.121094 83.496094 74.351562 86.730469 74.351562 90.703125 C 74.351562 94.679688 71.121094 97.914062 67.144531 97.914062 C 63.167969 97.914062 59.9375 94.679688 59.9375 90.703125 C 59.9375 86.730469 63.167969 83.496094 67.144531 83.496094 Z M 67.144531 101.667969 C 73.191406 101.667969 78.105469 96.75 78.105469 90.703125 C 78.105469 84.660156 73.191406 79.742188 67.144531 79.742188 C 61.097656 79.742188 56.183594 84.660156 56.183594 90.703125 C 56.183594 96.75 61.097656 101.667969 67.144531 101.667969 " fill-opacity="1" fill-rule="nonzero"/></svg>