<svg xmlns="http://www.w3.org/2000/svg" xmlns:xlink="http://www.w3.org/1999/xlink" width="227" zoomAndPan="magnify" viewBox="0 0 170.25 149.249994" height="199" preserveAspectRatio="xMidYMid meet" version="1.0"><defs><clipPath id="a58407f28f"><path d="M 71 0.507812 L 88 0.507812 L 88 17 L 71 17 Z M 71 0.507812 " clip-rule="nonzero"/></clipPath><clipPath id="81a8d5b609"><path d="M 95 132 L 112 132 L 112 148.265625 L 95 148.265625 Z M 95 132 " clip-rule="nonzero"/></clipPath><clipPath id="42521eb770"><path d="M 0.0976562 86 L 16 86 L 16 103 L 0.0976562 103 Z M 0.0976562 86 " clip-rule="nonzero"/></clipPath><clipPath id="8e0755d020"><path d="M 153 115 L 169.453125 115 L 169.453125 132 L 153 132 Z M 153 115 " clip-rule="nonzero"/></clipPath><clipPath id="44957f5c8d"><path d="M 71 0.507812 L 88 0.507812 L 88 17 L 71 17 Z M 71 0.507812 " clip-rule="nonzero"/></clipPath><clipPath id="f9bb77c9fe"><path d="M 95 132 L 112 132 L 112 148.265625 L 95 148.265625 Z M 95 132 " clip-rule="nonzero"/></clipPath><clipPath id="4b675e7d74"><path d="M 0.0976562 86 L 16 86 L 16 103 L 0.0976562 103 Z M 0.0976562 86 " clip-rule="nonzero"/></clipPath><clipPath id="11bf7087a5"><path d="M 153 115 L 169.453125 115 L 169.453125 132 L 153 132 Z M 153 115 " clip-rule="nonzero"/></clipPath></defs><path fill="#65a500" d="M 79.34375 60.199219 C 80.800781 60.199219 81.984375 59.015625 81.984375 57.558594 L 81.984375 32.027344 L 83.792969 34.554688 C 84.308594 35.277344 85.121094 35.660156 85.941406 35.660156 C 86.476562 35.660156 87.011719 35.5 87.476562 35.167969 C 88.664062 34.320312 88.9375 32.671875 88.089844 31.484375 L 81.492188 22.25 C 80.996094 21.558594 80.195312 21.144531 79.34375 21.144531 C 78.492188 21.144531 77.691406 21.558594 77.195312 22.25 L 70.597656 31.484375 C 69.746094 32.671875 70.023438 34.320312 71.210938 35.167969 C 72.394531 36.015625 74.042969 35.742188 74.894531 34.554688 L 76.703125 32.027344 L 76.703125 57.558594 C 76.703125 59.015625 77.882812 60.199219 79.34375 60.199219 Z M 79.34375 60.199219 " fill-opacity="1" fill-rule="nonzero"/><path fill="#65a500" d="M 69.277344 94.214844 C 67.976562 93.5625 66.386719 94.089844 65.730469 95.394531 L 57.992188 110.84375 L 57.507812 107.710938 C 57.28125 106.269531 55.933594 105.289062 54.492188 105.507812 C 53.050781 105.730469 52.0625 107.082031 52.289062 108.523438 L 54.042969 119.820312 C 54.171875 120.660156 54.699219 121.382812 55.457031 121.769531 C 55.832031 121.960938 56.242188 122.054688 56.652344 122.054688 C 57.066406 122.054688 57.480469 121.957031 57.859375 121.761719 L 67.847656 116.628906 C 69.144531 115.964844 69.65625 114.371094 68.988281 113.074219 C 68.320312 111.777344 66.730469 111.269531 65.433594 111.933594 L 62.636719 113.371094 L 70.453125 97.761719 C 71.109375 96.457031 70.582031 94.867188 69.277344 94.214844 Z M 69.277344 94.214844 " fill-opacity="1" fill-rule="nonzero"/><path fill="#65a500" d="M 84.1875 118.722656 C 83.339844 119.910156 83.613281 121.558594 84.800781 122.40625 L 93.96875 128.945312 C 94.421875 129.269531 94.960938 129.4375 95.503906 129.4375 C 95.789062 129.4375 96.078125 129.390625 96.355469 129.296875 C 97.160156 129.023438 97.785156 128.375 98.03125 127.5625 L 101.347656 116.640625 C 101.769531 115.242188 100.980469 113.769531 99.585938 113.34375 C 98.1875 112.921875 96.714844 113.710938 96.289062 115.105469 L 95.1875 118.738281 L 85.101562 93.175781 C 84.566406 91.816406 83.03125 91.152344 81.675781 91.6875 C 80.316406 92.222656 79.652344 93.757812 80.1875 95.113281 L 89.804688 119.488281 L 87.871094 118.105469 C 86.683594 117.257812 85.035156 117.53125 84.1875 118.722656 Z M 84.1875 118.722656 " fill-opacity="1" fill-rule="nonzero"/><path fill="#65a500" d="M 90.394531 61.9375 C 90.859375 62.855469 91.789062 63.382812 92.75 63.382812 C 93.152344 63.382812 93.5625 63.289062 93.945312 63.09375 L 116.292969 51.75 L 114.800781 54.695312 C 114.140625 55.996094 114.660156 57.585938 115.960938 58.246094 C 116.34375 58.441406 116.75 58.53125 117.152344 58.53125 C 118.117188 58.53125 119.046875 58.003906 119.511719 57.085938 L 124.660156 46.933594 C 125.039062 46.1875 125.042969 45.308594 124.667969 44.558594 C 124.292969 43.8125 123.589844 43.285156 122.765625 43.136719 L 111.753906 41.1875 C 110.320312 40.9375 108.945312 41.890625 108.695312 43.328125 C 108.4375 44.765625 109.398438 46.136719 110.832031 46.390625 L 114.0625 46.960938 L 91.554688 58.386719 C 90.253906 59.046875 89.734375 60.632812 90.394531 61.9375 Z M 90.394531 61.9375 " fill-opacity="1" fill-rule="nonzero"/><path fill="#65a500" d="M 63.382812 77.34375 C 62.96875 75.945312 61.496094 75.152344 60.097656 75.5625 L 30.828125 84.230469 L 32.824219 81.597656 C 33.703125 80.433594 33.472656 78.777344 32.3125 77.898438 C 31.148438 77.015625 29.492188 77.246094 28.609375 78.410156 L 21.765625 87.449219 C 21.261719 88.113281 21.101562 88.976562 21.335938 89.777344 C 21.566406 90.578125 22.164062 91.222656 22.941406 91.515625 L 33.433594 95.457031 C 33.738281 95.574219 34.054688 95.628906 34.363281 95.628906 C 35.429688 95.628906 36.4375 94.972656 36.835938 93.914062 C 37.347656 92.546875 36.65625 91.027344 35.292969 90.511719 L 32.171875 89.34375 L 61.597656 80.628906 C 62.996094 80.214844 63.796875 78.742188 63.382812 77.34375 Z M 63.382812 77.34375 " fill-opacity="1" fill-rule="nonzero"/><path fill="#65a500" d="M 128.308594 117.914062 C 128.40625 119.308594 129.5625 120.371094 130.941406 120.371094 C 131 120.371094 131.0625 120.371094 131.125 120.367188 L 146.871094 119.273438 C 147.722656 119.214844 148.488281 118.75 148.9375 118.027344 C 149.382812 117.304688 149.453125 116.410156 149.128906 115.625 L 143.273438 101.578125 C 142.714844 100.234375 141.167969 99.59375 139.820312 100.160156 C 138.476562 100.71875 137.839844 102.265625 138.398438 103.613281 L 141.09375 110.078125 L 96.125 82.214844 C 94.886719 81.445312 93.257812 81.828125 92.488281 83.066406 C 91.722656 84.308594 92.105469 85.9375 93.34375 86.703125 L 138.320312 114.570312 L 130.761719 115.097656 C 129.304688 115.199219 128.207031 116.457031 128.308594 117.914062 Z M 128.308594 117.914062 " fill-opacity="1" fill-rule="nonzero"/><path fill="#65a500" d="M 56.714844 47.742188 C 58.152344 47.484375 59.109375 46.117188 58.855469 44.679688 C 58.601562 43.242188 57.230469 42.289062 55.796875 42.539062 L 44.785156 44.488281 C 43.960938 44.632812 43.253906 45.160156 42.882812 45.910156 C 42.507812 46.65625 42.511719 47.539062 42.890625 48.285156 L 48.039062 58.4375 C 48.503906 59.355469 49.433594 59.882812 50.394531 59.882812 C 50.796875 59.882812 51.207031 59.789062 51.589844 59.597656 C 52.890625 58.9375 53.410156 57.347656 52.75 56.046875 L 51.253906 53.101562 L 65.515625 60.339844 C 65.898438 60.535156 66.304688 60.625 66.707031 60.625 C 67.671875 60.625 68.601562 60.097656 69.066406 59.179688 C 69.726562 57.878906 69.207031 56.289062 67.90625 55.628906 L 53.488281 48.3125 Z M 56.714844 47.742188 " fill-opacity="1" fill-rule="nonzero"/><path fill="#65a500" d="M 79.335938 86.347656 C 85.164062 86.347656 89.902344 81.609375 89.902344 75.78125 C 89.902344 69.957031 85.164062 65.21875 79.335938 65.21875 C 73.511719 65.21875 68.773438 69.957031 68.773438 75.78125 C 68.773438 81.609375 73.511719 86.347656 79.335938 86.347656 Z M 79.335938 70.5 C 82.25 70.5 84.621094 72.871094 84.621094 75.78125 C 84.621094 78.695312 82.25 81.066406 79.335938 81.066406 C 76.425781 81.066406 74.054688 78.695312 74.054688 75.78125 C 74.054688 72.871094 76.425781 70.5 79.335938 70.5 Z M 79.335938 70.5 " fill-opacity="1" fill-rule="nonzero"/><g clip-path="url(#a58407f28f)"><path fill="#65a500" d="M 87.265625 8.429688 C 87.265625 4.054688 83.71875 0.507812 79.34375 0.507812 C 74.96875 0.507812 71.417969 4.054688 71.417969 8.429688 C 71.417969 12.808594 74.96875 16.355469 79.34375 16.355469 C 83.71875 16.355469 87.265625 12.808594 87.265625 8.429688 Z M 76.703125 8.429688 C 76.703125 6.976562 77.886719 5.789062 79.34375 5.789062 C 80.800781 5.789062 81.984375 6.976562 81.984375 8.429688 C 81.984375 9.886719 80.800781 11.074219 79.34375 11.074219 C 77.886719 11.074219 76.703125 9.886719 76.703125 8.429688 Z M 76.703125 8.429688 " fill-opacity="1" fill-rule="nonzero"/></g><path fill="#65a500" d="M 50.285156 141.8125 C 54.660156 141.8125 58.207031 138.265625 58.207031 133.890625 C 58.207031 129.515625 54.660156 125.964844 50.285156 125.964844 C 45.910156 125.964844 42.359375 129.515625 42.359375 133.890625 C 42.359375 138.265625 45.910156 141.8125 50.285156 141.8125 Z M 50.285156 131.25 C 51.742188 131.25 52.925781 132.433594 52.925781 133.890625 C 52.925781 135.347656 51.742188 136.53125 50.285156 136.53125 C 48.828125 136.53125 47.644531 135.347656 47.644531 133.890625 C 47.644531 132.433594 48.828125 131.25 50.285156 131.25 Z M 50.285156 131.25 " fill-opacity="1" fill-rule="nonzero"/><g clip-path="url(#81a8d5b609)"><path fill="#65a500" d="M 103.109375 148.417969 C 107.484375 148.417969 111.03125 144.867188 111.03125 140.492188 C 111.03125 136.117188 107.484375 132.570312 103.109375 132.570312 C 98.734375 132.570312 95.183594 136.117188 95.183594 140.492188 C 95.183594 144.867188 98.734375 148.417969 103.109375 148.417969 Z M 103.109375 137.851562 C 104.566406 137.851562 105.75 139.035156 105.75 140.492188 C 105.75 141.949219 104.566406 143.132812 103.109375 143.132812 C 101.652344 143.132812 100.46875 141.949219 100.46875 140.492188 C 100.46875 139.035156 101.652344 137.851562 103.109375 137.851562 Z M 103.109375 137.851562 " fill-opacity="1" fill-rule="nonzero"/></g><g clip-path="url(#42521eb770)"><path fill="#65a500" d="M 8.023438 102.636719 C 12.398438 102.636719 15.949219 99.085938 15.949219 94.710938 C 15.949219 90.335938 12.398438 86.789062 8.023438 86.789062 C 3.648438 86.789062 0.101562 90.335938 0.101562 94.710938 C 0.101562 99.085938 3.648438 102.636719 8.023438 102.636719 Z M 8.023438 92.070312 C 9.480469 92.070312 10.664062 93.253906 10.664062 94.710938 C 10.664062 96.167969 9.480469 97.351562 8.023438 97.351562 C 6.566406 97.351562 5.382812 96.167969 5.382812 94.710938 C 5.382812 93.253906 6.566406 92.070312 8.023438 92.070312 Z M 8.023438 92.070312 " fill-opacity="1" fill-rule="nonzero"/></g><path fill="#65a500" d="M 23.871094 38.804688 C 23.871094 43.179688 27.417969 46.730469 31.796875 46.730469 C 36.171875 46.730469 39.71875 43.179688 39.71875 38.804688 C 39.71875 34.429688 36.171875 30.882812 31.796875 30.882812 C 27.417969 30.882812 23.871094 34.429688 23.871094 38.804688 Z M 34.4375 38.804688 C 34.4375 40.261719 33.253906 41.445312 31.796875 41.445312 C 30.339844 41.445312 29.15625 40.261719 29.15625 38.804688 C 29.15625 37.347656 30.339844 36.164062 31.796875 36.164062 C 33.253906 36.164062 34.4375 37.347656 34.4375 38.804688 Z M 34.4375 38.804688 " fill-opacity="1" fill-rule="nonzero"/><path fill="#65a500" d="M 145.367188 38.804688 C 145.367188 34.429688 141.820312 30.882812 137.445312 30.882812 C 133.070312 30.882812 129.519531 34.429688 129.519531 38.804688 C 129.519531 43.179688 133.070312 46.730469 137.445312 46.730469 C 141.820312 46.730469 145.367188 43.179688 145.367188 38.804688 Z M 134.804688 38.804688 C 134.804688 37.347656 135.988281 36.164062 137.445312 36.164062 C 138.902344 36.164062 140.085938 37.347656 140.085938 38.804688 C 140.085938 40.261719 138.902344 41.445312 137.445312 41.445312 C 135.988281 41.445312 134.804688 40.261719 134.804688 38.804688 Z M 134.804688 38.804688 " fill-opacity="1" fill-rule="nonzero"/><g clip-path="url(#8e0755d020)"><path fill="#65a500" d="M 161.214844 115.402344 C 156.839844 115.402344 153.292969 118.949219 153.292969 123.324219 C 153.292969 127.699219 156.839844 131.25 161.214844 131.25 C 165.59375 131.25 169.140625 127.699219 169.140625 123.324219 C 169.140625 118.949219 165.59375 115.402344 161.214844 115.402344 Z M 161.214844 125.964844 C 159.757812 125.964844 158.574219 124.78125 158.574219 123.324219 C 158.574219 121.867188 159.757812 120.683594 161.214844 120.683594 C 162.671875 120.683594 163.855469 121.867188 163.855469 123.324219 C 163.855469 124.78125 162.671875 125.964844 161.214844 125.964844 Z M 161.214844 125.964844 " fill-opacity="1" fill-rule="nonzero"/></g><path fill="#65a500" d="M 79.34375 60.199219 C 80.800781 60.199219 81.984375 59.015625 81.984375 57.558594 L 81.984375 32.027344 L 83.792969 34.554688 C 84.308594 35.277344 85.121094 35.660156 85.941406 35.660156 C 86.476562 35.660156 87.011719 35.5 87.476562 35.167969 C 88.664062 34.320312 88.9375 32.671875 88.089844 31.484375 L 81.492188 22.25 C 80.996094 21.558594 80.195312 21.144531 79.34375 21.144531 C 78.492188 21.144531 77.691406 21.558594 77.195312 22.25 L 70.597656 31.484375 C 69.746094 32.671875 70.023438 34.320312 71.210938 35.167969 C 72.394531 36.015625 74.042969 35.742188 74.894531 34.554688 L 76.703125 32.027344 L 76.703125 57.558594 C 76.703125 59.015625 77.882812 60.199219 79.34375 60.199219 Z M 79.34375 60.199219 " fill-opacity="1" fill-rule="nonzero"/><path fill="#65a500" d="M 69.277344 94.214844 C 67.976562 93.5625 66.386719 94.089844 65.730469 95.394531 L 57.992188 110.84375 L 57.507812 107.710938 C 57.28125 106.269531 55.933594 105.289062 54.492188 105.507812 C 53.050781 105.730469 52.0625 107.082031 52.289062 108.523438 L 54.042969 119.820312 C 54.171875 120.660156 54.699219 121.382812 55.457031 121.769531 C 55.832031 121.960938 56.242188 122.054688 56.652344 122.054688 C 57.066406 122.054688 57.480469 121.957031 57.859375 121.761719 L 67.847656 116.628906 C 69.144531 115.964844 69.65625 114.371094 68.988281 113.074219 C 68.320312 111.777344 66.730469 111.269531 65.433594 111.933594 L 62.636719 113.371094 L 70.453125 97.761719 C 71.109375 96.457031 70.582031 94.867188 69.277344 94.214844 Z M 69.277344 94.214844 " fill-opacity="1" fill-rule="nonzero"/><path fill="#65a500" d="M 84.1875 118.722656 C 83.339844 119.910156 83.613281 121.558594 84.800781 122.40625 L 93.96875 128.945312 C 94.421875 129.269531 94.960938 129.4375 95.503906 129.4375 C 95.789062 129.4375 96.078125 129.390625 96.355469 129.296875 C 97.160156 129.023438 97.785156 128.375 98.03125 127.5625 L 101.347656 116.640625 C 101.769531 115.242188 100.980469 113.769531 99.585938 113.34375 C 98.1875 112.921875 96.714844 113.710938 96.289062 115.105469 L 95.1875 118.738281 L 85.101562 93.175781 C 84.566406 91.816406 83.03125 91.152344 81.675781 91.6875 C 80.316406 92.222656 79.652344 93.757812 80.1875 95.113281 L 89.804688 119.488281 L 87.871094 118.105469 C 86.683594 117.257812 85.035156 117.53125 84.1875 118.722656 Z M 84.1875 118.722656 " fill-opacity="1" fill-rule="nonzero"/><path fill="#65a500" d="M 90.394531 61.9375 C 90.859375 62.855469 91.789062 63.382812 92.75 63.382812 C 93.152344 63.382812 93.5625 63.289062 93.945312 63.09375 L 116.292969 51.75 L 114.800781 54.695312 C 114.140625 55.996094 114.660156 57.585938 115.960938 58.246094 C 116.34375 58.441406 116.75 58.53125 117.152344 58.53125 C 118.117188 58.53125 119.046875 58.003906 119.511719 57.085938 L 124.660156 46.933594 C 125.039062 46.1875 125.042969 45.308594 124.667969 44.558594 C 124.292969 43.8125 123.589844 43.285156 122.765625 43.136719 L 111.753906 41.1875 C 110.320312 40.9375 108.945312 41.890625 108.695312 43.328125 C 108.4375 44.765625 109.398438 46.136719 110.832031 46.390625 L 114.0625 46.960938 L 91.554688 58.386719 C 90.253906 59.046875 89.734375 60.632812 90.394531 61.9375 Z M 90.394531 61.9375 " fill-opacity="1" fill-rule="nonzero"/><path fill="#65a500" d="M 63.382812 77.34375 C 62.96875 75.945312 61.496094 75.152344 60.097656 75.5625 L 30.828125 84.230469 L 32.824219 81.597656 C 33.703125 80.433594 33.472656 78.777344 32.3125 77.898438 C 31.148438 77.015625 29.492188 77.246094 28.609375 78.410156 L 21.765625 87.449219 C 21.261719 88.113281 21.101562 88.976562 21.335938 89.777344 C 21.566406 90.578125 22.164062 91.222656 22.941406 91.515625 L 33.433594 95.457031 C 33.738281 95.574219 34.054688 95.628906 34.363281 95.628906 C 35.429688 95.628906 36.4375 94.972656 36.835938 93.914062 C 37.347656 92.546875 36.65625 91.027344 35.292969 90.511719 L 32.171875 89.34375 L 61.597656 80.628906 C 62.996094 80.214844 63.796875 78.742188 63.382812 77.34375 Z M 63.382812 77.34375 " fill-opacity="1" fill-rule="nonzero"/><path fill="#65a500" d="M 128.308594 117.914062 C 128.40625 119.308594 129.5625 120.371094 130.941406 120.371094 C 131 120.371094 131.0625 120.371094 131.125 120.367188 L 146.871094 119.273438 C 147.722656 119.214844 148.488281 118.75 148.9375 118.027344 C 149.382812 117.304688 149.453125 116.410156 149.128906 115.625 L 143.273438 101.578125 C 142.714844 100.234375 141.167969 99.59375 139.820312 100.160156 C 138.476562 100.71875 137.839844 102.265625 138.398438 103.613281 L 141.09375 110.078125 L 96.125 82.214844 C 94.886719 81.445312 93.257812 81.828125 92.488281 83.066406 C 91.722656 84.308594 92.105469 85.9375 93.34375 86.703125 L 138.320312 114.570312 L 130.761719 115.097656 C 129.304688 115.199219 128.207031 116.457031 128.308594 117.914062 Z M 128.308594 117.914062 " fill-opacity="1" fill-rule="nonzero"/><path fill="#65a500" d="M 56.714844 47.742188 C 58.152344 47.484375 59.109375 46.117188 58.855469 44.679688 C 58.601562 43.242188 57.230469 42.289062 55.796875 42.539062 L 44.785156 44.488281 C 43.960938 44.632812 43.253906 45.160156 42.882812 45.910156 C 42.507812 46.65625 42.511719 47.539062 42.890625 48.285156 L 48.039062 58.4375 C 48.503906 59.355469 49.433594 59.882812 50.394531 59.882812 C 50.796875 59.882812 51.207031 59.789062 51.589844 59.597656 C 52.890625 58.9375 53.410156 57.347656 52.75 56.046875 L 51.253906 53.101562 L 65.515625 60.339844 C 65.898438 60.535156 66.304688 60.625 66.707031 60.625 C 67.671875 60.625 68.601562 60.097656 69.066406 59.179688 C 69.726562 57.878906 69.207031 56.289062 67.90625 55.628906 L 53.488281 48.3125 Z M 56.714844 47.742188 " fill-opacity="1" fill-rule="nonzero"/><path fill="#65a500" d="M 79.335938 86.347656 C 85.164062 86.347656 89.902344 81.609375 89.902344 75.78125 C 89.902344 69.957031 85.164062 65.21875 79.335938 65.21875 C 73.511719 65.21875 68.773438 69.957031 68.773438 75.78125 C 68.773438 81.609375 73.511719 86.347656 79.335938 86.347656 Z M 79.335938 70.5 C 82.25 70.5 84.621094 72.871094 84.621094 75.78125 C 84.621094 78.695312 82.25 81.066406 79.335938 81.066406 C 76.425781 81.066406 74.054688 78.695312 74.054688 75.78125 C 74.054688 72.871094 76.425781 70.5 79.335938 70.5 Z M 79.335938 70.5 " fill-opacity="1" fill-rule="nonzero"/><g clip-path="url(#44957f5c8d)"><path fill="#65a500" d="M 87.265625 8.429688 C 87.265625 4.054688 83.71875 0.507812 79.34375 0.507812 C 74.96875 0.507812 71.417969 4.054688 71.417969 8.429688 C 71.417969 12.808594 74.96875 16.355469 79.34375 16.355469 C 83.71875 16.355469 87.265625 12.808594 87.265625 8.429688 Z M 76.703125 8.429688 C 76.703125 6.976562 77.886719 5.789062 79.34375 5.789062 C 80.800781 5.789062 81.984375 6.976562 81.984375 8.429688 C 81.984375 9.886719 80.800781 11.074219 79.34375 11.074219 C 77.886719 11.074219 76.703125 9.886719 76.703125 8.429688 Z M 76.703125 8.429688 " fill-opacity="1" fill-rule="nonzero"/></g><path fill="#65a500" d="M 50.285156 141.8125 C 54.660156 141.8125 58.207031 138.265625 58.207031 133.890625 C 58.207031 129.515625 54.660156 125.964844 50.285156 125.964844 C 45.910156 125.964844 42.359375 129.515625 42.359375 133.890625 C 42.359375 138.265625 45.910156 141.8125 50.285156 141.8125 Z M 50.285156 131.25 C 51.742188 131.25 52.925781 132.433594 52.925781 133.890625 C 52.925781 135.347656 51.742188 136.53125 50.285156 136.53125 C 48.828125 136.53125 47.644531 135.347656 47.644531 133.890625 C 47.644531 132.433594 48.828125 131.25 50.285156 131.25 Z M 50.285156 131.25 " fill-opacity="1" fill-rule="nonzero"/><g clip-path="url(#f9bb77c9fe)"><path fill="#65a500" d="M 103.109375 148.417969 C 107.484375 148.417969 111.03125 144.867188 111.03125 140.492188 C 111.03125 136.117188 107.484375 132.570312 103.109375 132.570312 C 98.734375 132.570312 95.183594 136.117188 95.183594 140.492188 C 95.183594 144.867188 98.734375 148.417969 103.109375 148.417969 Z M 103.109375 137.851562 C 104.566406 137.851562 105.75 139.035156 105.75 140.492188 C 105.75 141.949219 104.566406 143.132812 103.109375 143.132812 C 101.652344 143.132812 100.46875 141.949219 100.46875 140.492188 C 100.46875 139.035156 101.652344 137.851562 103.109375 137.851562 Z M 103.109375 137.851562 " fill-opacity="1" fill-rule="nonzero"/></g><g clip-path="url(#4b675e7d74)"><path fill="#65a500" d="M 8.023438 102.636719 C 12.398438 102.636719 15.949219 99.085938 15.949219 94.710938 C 15.949219 90.335938 12.398438 86.789062 8.023438 86.789062 C 3.648438 86.789062 0.101562 90.335938 0.101562 94.710938 C 0.101562 99.085938 3.648438 102.636719 8.023438 102.636719 Z M 8.023438 92.070312 C 9.480469 92.070312 10.664062 93.253906 10.664062 94.710938 C 10.664062 96.167969 9.480469 97.351562 8.023438 97.351562 C 6.566406 97.351562 5.382812 96.167969 5.382812 94.710938 C 5.382812 93.253906 6.566406 92.070312 8.023438 92.070312 Z M 8.023438 92.070312 " fill-opacity="1" fill-rule="nonzero"/></g><path fill="#65a500" d="M 23.871094 38.804688 C 23.871094 43.179688 27.417969 46.730469 31.796875 46.730469 C 36.171875 46.730469 39.71875 43.179688 39.71875 38.804688 C 39.71875 34.429688 36.171875 30.882812 31.796875 30.882812 C 27.417969 30.882812 23.871094 34.429688 23.871094 38.804688 Z M 34.4375 38.804688 C 34.4375 40.261719 33.253906 41.445312 31.796875 41.445312 C 30.339844 41.445312 29.15625 40.261719 29.15625 38.804688 C 29.15625 37.347656 30.339844 36.164062 31.796875 36.164062 C 33.253906 36.164062 34.4375 37.347656 34.4375 38.804688 Z M 34.4375 38.804688 " fill-opacity="1" fill-rule="nonzero"/><path fill="#65a500" d="M 145.367188 38.804688 C 145.367188 34.429688 141.820312 30.882812 137.445312 30.882812 C 133.070312 30.882812 129.519531 34.429688 129.519531 38.804688 C 129.519531 43.179688 133.070312 46.730469 137.445312 46.730469 C 141.820312 46.730469 145.367188 43.179688 145.367188 38.804688 Z M 134.804688 38.804688 C 134.804688 37.347656 135.988281 36.164062 137.445312 36.164062 C 138.902344 36.164062 140.085938 37.347656 140.085938 38.804688 C 140.085938 40.261719 138.902344 41.445312 137.445312 41.445312 C 135.988281 41.445312 134.804688 40.261719 134.804688 38.804688 Z M 134.804688 38.804688 " fill-opacity="1" fill-rule="nonzero"/><g clip-path="url(#11bf7087a5)"><path fill="#65a500" d="M 161.214844 115.402344 C 156.839844 115.402344 153.292969 118.949219 153.292969 123.324219 C 153.292969 127.699219 156.839844 131.25 161.214844 131.25 C 165.59375 131.25 169.140625 127.699219 169.140625 123.324219 C 169.140625 118.949219 165.59375 115.402344 161.214844 115.402344 Z M 161.214844 125.964844 C 159.757812 125.964844 158.574219 124.78125 158.574219 123.324219 C 158.574219 121.867188 159.757812 120.683594 161.214844 120.683594 C 162.671875 120.683594 163.855469 121.867188 163.855469 123.324219 C 163.855469 124.78125 162.671875 125.964844 161.214844 125.964844 Z M 161.214844 125.964844 " fill-opacity="1" fill-rule="nonzero"/></g></svg>