<svg xmlns="http://www.w3.org/2000/svg" xmlns:xlink="http://www.w3.org/1999/xlink" width="180" zoomAndPan="magnify" viewBox="0 0 135 135.000003" height="180" preserveAspectRatio="xMidYMid meet" version="1.0"><defs><clipPath id="56c427086a"><path d="M 1.132812 0.242188 L 133.652344 0.242188 L 133.652344 132.761719 L 1.132812 132.761719 Z M 1.132812 0.242188 " clip-rule="nonzero"/></clipPath><clipPath id="ad66ce6763"><path d="M 1.132812 0.726562 L 133.652344 0.726562 L 133.652344 133.246094 L 1.132812 133.246094 Z M 1.132812 0.726562 " clip-rule="nonzero"/></clipPath></defs><g clip-path="url(#56c427086a)"><path fill="#0072ad" d="M 67.484375 132.949219 C 30.910156 132.949219 1.132812 103.171875 1.132812 66.597656 C 1.132812 30.023438 30.910156 0.242188 67.484375 0.242188 C 104.0625 0.242188 133.839844 30.023438 133.839844 66.597656 C 133.839844 103.171875 104.0625 132.949219 67.484375 132.949219 Z M 67.484375 3.480469 C 32.691406 3.480469 4.371094 31.800781 4.371094 66.597656 C 4.371094 101.390625 32.691406 129.710938 67.484375 129.710938 C 102.28125 129.710938 130.601562 101.390625 130.601562 66.597656 C 130.601562 31.800781 102.28125 3.480469 67.484375 3.480469 Z M 67.484375 3.480469 " fill-opacity="1" fill-rule="nonzero"/></g><path fill="#0072ad" d="M 55.347656 99.933594 L 45.636719 99.933594 C 41.105469 99.933594 37.546875 96.375 37.546875 91.84375 L 37.546875 40.054688 C 37.546875 35.523438 41.105469 31.964844 45.636719 31.964844 L 84.480469 31.964844 C 89.011719 31.964844 92.570312 35.523438 92.570312 40.054688 L 92.570312 53.003906 L 89.332031 53.003906 L 89.332031 40.054688 C 89.332031 37.304688 87.230469 35.199219 84.480469 35.199219 L 45.636719 35.199219 C 42.886719 35.199219 40.785156 37.304688 40.785156 40.054688 L 40.785156 91.84375 C 40.785156 94.59375 42.886719 96.699219 45.636719 96.699219 L 55.347656 96.699219 Z M 62.46875 99.933594 L 73.796875 97.507812 C 74.121094 97.507812 74.445312 97.34375 74.605469 97.019531 L 98.398438 73.230469 C 101.472656 70.15625 101.472656 64.976562 98.398438 61.742188 C 96.941406 60.285156 94.835938 59.3125 92.734375 59.3125 C 90.628906 59.3125 88.523438 60.121094 87.066406 61.742188 L 63.117188 85.691406 C 62.953125 85.855469 62.792969 86.179688 62.632812 86.503906 L 60.367188 97.992188 C 60.203125 98.476562 60.367188 99.125 60.851562 99.449219 C 61.175781 99.773438 61.5 99.933594 61.984375 99.933594 C 62.144531 99.933594 62.308594 99.933594 62.46875 99.933594 Z M 89.171875 64.167969 C 90.953125 62.386719 94.1875 62.386719 95.96875 64.167969 C 97.910156 66.109375 97.910156 69.1875 95.96875 70.964844 L 72.664062 94.433594 L 64.085938 96.210938 L 65.707031 87.636719 Z M 78.003906 44.910156 L 52.113281 44.910156 L 52.113281 48.148438 L 78.003906 48.148438 Z M 78.003906 57.855469 L 52.113281 57.855469 L 52.113281 61.09375 L 78.003906 61.09375 Z M 78.003906 57.855469 " fill-opacity="1" fill-rule="nonzero"/><g clip-path="url(#ad66ce6763)"><path fill="#0072ad" d="M 67.484375 133.433594 C 30.910156 133.433594 1.132812 103.65625 1.132812 67.078125 C 1.132812 30.503906 30.910156 0.726562 67.484375 0.726562 C 104.0625 0.726562 133.839844 30.503906 133.839844 67.078125 C 133.839844 103.65625 104.0625 133.433594 67.484375 133.433594 Z M 67.484375 3.964844 C 32.691406 3.964844 4.371094 32.285156 4.371094 67.078125 C 4.371094 101.875 32.691406 130.195312 67.484375 130.195312 C 102.28125 130.195312 130.601562 101.875 130.601562 67.078125 C 130.601562 32.285156 102.28125 3.964844 67.484375 3.964844 Z M 67.484375 3.964844 " fill-opacity="1" fill-rule="nonzero"/></g><path fill="#0072ad" d="M 55.347656 100.417969 L 45.636719 100.417969 C 41.105469 100.417969 37.546875 96.855469 37.546875 92.324219 L 37.546875 40.539062 C 37.546875 36.007812 41.105469 32.445312 45.636719 32.445312 L 84.480469 32.445312 C 89.011719 32.445312 92.570312 36.007812 92.570312 40.539062 L 92.570312 53.484375 L 89.332031 53.484375 L 89.332031 40.539062 C 89.332031 37.789062 87.230469 35.683594 84.480469 35.683594 L 45.636719 35.683594 C 42.886719 35.683594 40.785156 37.789062 40.785156 40.539062 L 40.785156 92.324219 C 40.785156 95.078125 42.886719 97.179688 45.636719 97.179688 L 55.347656 97.179688 Z M 62.46875 100.417969 L 73.796875 97.988281 C 74.121094 97.988281 74.445312 97.828125 74.605469 97.503906 L 98.398438 73.714844 C 101.472656 70.640625 101.472656 65.460938 98.398438 62.226562 C 96.941406 60.769531 94.835938 59.796875 92.734375 59.796875 C 90.628906 59.796875 88.523438 60.605469 87.066406 62.226562 L 63.117188 86.175781 C 62.953125 86.339844 62.792969 86.660156 62.632812 86.984375 L 60.367188 98.476562 C 60.203125 98.960938 60.367188 99.609375 60.851562 99.933594 C 61.175781 100.253906 61.5 100.417969 61.984375 100.417969 C 62.144531 100.417969 62.308594 100.417969 62.46875 100.417969 Z M 89.171875 64.652344 C 90.953125 62.871094 94.1875 62.871094 95.96875 64.652344 C 97.910156 66.59375 97.910156 69.667969 95.96875 71.449219 L 72.664062 94.914062 L 64.085938 96.695312 L 65.707031 88.117188 Z M 78.003906 45.394531 L 52.113281 45.394531 L 52.113281 48.628906 L 78.003906 48.628906 Z M 78.003906 58.339844 L 52.113281 58.339844 L 52.113281 61.578125 L 78.003906 61.578125 Z M 78.003906 58.339844 " fill-opacity="1" fill-rule="nonzero"/></svg>