<svg xmlns="http://www.w3.org/2000/svg" xmlns:xlink="http://www.w3.org/1999/xlink" width="371" zoomAndPan="magnify" viewBox="0 0 278.25 248.999984" height="332" preserveAspectRatio="xMidYMid meet" version="1.0"><defs><clipPath id="8889890c16"><path d="M 0.1875 0.917969 L 276.941406 0.917969 L 276.941406 248.5 L 0.1875 248.5 Z M 0.1875 0.917969 " clip-rule="nonzero"/></clipPath><clipPath id="9ac634fa34"><path d="M 0.1875 0.917969 L 276.941406 0.917969 L 276.941406 248.5 L 0.1875 248.5 Z M 0.1875 0.917969 " clip-rule="nonzero"/></clipPath></defs><path fill="#0172ad" d="M 88.597656 95.246094 L 97.347656 63.628906 C 97.535156 62.941406 98.269531 62.566406 98.9375 62.808594 L 108.847656 66.410156 L 94.847656 95.246094 L 88.597656 95.246094 " fill-opacity="1" fill-rule="nonzero"/><path fill="#0172ad" d="M 200.164062 89.746094 C 200.816406 88.675781 201.277344 87.5 201.527344 86.238281 C 201.640625 85.574219 201.71875 84.882812 201.71875 84.179688 C 201.71875 78.082031 196.636719 73.121094 190.371094 73.121094 L 164.070312 73.121094 Z M 89.992188 73.121094 L 84.742188 92.097656 L 84.742188 76.023438 C 84.742188 74.417969 86.042969 73.121094 87.644531 73.121094 L 89.992188 73.121094 " fill-opacity="1" fill-rule="nonzero"/><path fill="#0172ad" d="M 201.71875 95.027344 L 201.71875 169.046875 C 201.71875 175.972656 196.097656 181.59375 189.171875 181.59375 L 83.535156 181.59375 C 81.929688 181.59375 80.636719 180.296875 80.636719 178.695312 L 80.636719 161.328125 L 108.527344 161.328125 C 110.078125 161.328125 111.550781 161.019531 112.910156 160.472656 C 114.992188 159.636719 116.765625 158.222656 118.023438 156.421875 C 119.285156 154.625 120.027344 152.453125 120.027344 150.113281 L 120.027344 131.167969 C 120.027344 124.988281 114.863281 119.960938 108.527344 119.960938 L 80.636719 119.960938 L 80.636719 99.6875 L 190.371094 99.6875 C 194.8125 99.6875 198.820312 97.90625 201.71875 95.027344 " fill-opacity="1" fill-rule="nonzero"/><path fill="#0172ad" d="M 101.101562 134.703125 C 104.464844 134.703125 107.199219 137.371094 107.199219 140.644531 C 107.199219 143.917969 104.464844 146.578125 101.101562 146.578125 C 97.746094 146.578125 95.011719 143.917969 95.011719 140.644531 C 95.011719 137.371094 97.746094 134.703125 101.101562 134.703125 Z M 108.527344 156.878906 C 112.347656 156.878906 115.464844 153.84375 115.464844 150.113281 L 115.464844 131.167969 C 115.464844 127.4375 112.347656 124.402344 108.527344 124.402344 L 82.195312 124.402344 C 78.363281 124.402344 75.246094 127.4375 75.246094 131.167969 L 75.246094 150.113281 C 75.246094 153.84375 78.363281 156.878906 82.195312 156.878906 L 108.527344 156.878906 " fill-opacity="1" fill-rule="nonzero"/><path fill="#0172ad" d="M 196.828125 93.253906 C 195.082031 94.445312 192.953125 95.171875 190.664062 95.230469 C 190.566406 95.230469 190.46875 95.246094 190.371094 95.246094 L 99.894531 95.246094 L 117.925781 58.089844 C 117.957031 58.042969 117.996094 58.003906 118.023438 57.960938 C 118.355469 57.464844 118.984375 57.253906 119.539062 57.511719 L 196.828125 93.253906 " fill-opacity="1" fill-rule="nonzero"/><g clip-path="url(#8889890c16)"><path fill="#0172ad" d="M 118.3125 0.910156 C 113.097656 0.984375 108.617188 5.203125 108.242188 10.402344 C 107.882812 15.503906 111.253906 19.863281 115.898438 21.0625 L 115.898438 53.007812 C 116.570312 51.652344 118.191406 51.054688 119.59375 51.636719 L 121.023438 52.246094 L 121.023438 21.0625 C 125.433594 19.925781 128.703125 15.925781 128.703125 11.152344 C 128.703125 5.445312 124.035156 0.828125 118.3125 0.910156 Z M 140.664062 43.042969 C 145.078125 41.90625 148.34375 37.90625 148.34375 33.140625 C 148.34375 27.476562 143.757812 22.890625 138.101562 22.890625 C 132.449219 22.890625 127.863281 27.476562 127.863281 33.140625 C 127.863281 37.90625 131.128906 41.90625 135.539062 43.042969 L 135.539062 60 L 140.664062 62.355469 Z M 160.308594 33.566406 L 169.875 26.695312 C 171.746094 28.667969 174.378906 29.902344 177.304688 29.902344 C 182.960938 29.902344 187.546875 25.320312 187.546875 19.664062 C 187.546875 14.007812 182.960938 9.421875 177.304688 9.421875 C 171.648438 9.421875 167.066406 14.007812 167.066406 19.664062 C 167.066406 20.53125 167.183594 21.371094 167.386719 22.179688 L 156.253906 30.171875 C 155.589844 30.652344 155.183594 31.425781 155.183594 32.257812 L 155.183594 69.054688 L 160.308594 71.414062 Z M 136.492188 228.226562 C 132.070312 229.378906 128.804688 233.367188 128.804688 238.144531 C 128.804688 243.800781 133.390625 248.386719 139.054688 248.386719 C 144.710938 248.386719 149.296875 243.800781 149.296875 238.144531 C 149.296875 233.367188 146.03125 229.378906 141.609375 228.226562 L 141.609375 186.460938 L 136.492188 186.460938 Z M 156.132812 205.617188 C 151.722656 206.75 148.449219 210.757812 148.449219 215.511719 C 148.449219 221.171875 153.042969 225.753906 158.695312 225.753906 C 164.351562 225.753906 168.9375 221.171875 168.9375 215.511719 C 168.9375 210.757812 165.671875 206.75 161.25 205.617188 L 161.25 186.460938 L 156.132812 186.460938 Z M 116.847656 198.769531 L 103.617188 207.667969 C 102.90625 208.148438 102.488281 208.953125 102.488281 209.796875 L 102.488281 219.273438 C 98.066406 220.402344 94.800781 224.410156 94.800781 229.1875 C 94.800781 234.824219 99.394531 239.429688 105.050781 239.429688 C 110.707031 239.429688 115.289062 234.824219 115.289062 229.1875 C 115.289062 224.410156 112.023438 220.402344 107.609375 219.273438 L 107.609375 211.160156 L 120.84375 202.242188 C 121.546875 201.78125 121.964844 200.976562 121.964844 200.132812 L 121.964844 186.460938 L 116.847656 186.460938 Z M 0.804688 164.472656 C 0.804688 170.128906 5.390625 174.714844 11.046875 174.714844 C 15.816406 174.714844 19.816406 171.449219 20.957031 167.035156 L 49.253906 167.035156 C 50.171875 167.035156 51.027344 166.535156 51.476562 165.726562 L 59.285156 151.863281 L 70.765625 151.863281 L 70.765625 146.742188 L 57.785156 146.742188 C 56.855469 146.742188 56 147.242188 55.554688 148.042969 L 47.753906 161.910156 L 20.957031 161.910156 C 19.816406 157.5 15.816406 154.226562 11.046875 154.226562 C 5.390625 154.226562 0.804688 158.816406 0.804688 164.472656 Z M 70.765625 132.628906 L 70.765625 127.503906 L 54.460938 127.503906 C 53.320312 123.089844 49.328125 119.824219 44.554688 119.824219 C 38.898438 119.824219 34.308594 124.410156 34.308594 130.066406 C 34.308594 135.722656 38.898438 140.304688 44.554688 140.304688 C 49.328125 140.304688 53.320312 137.039062 54.460938 132.628906 Z M 70.765625 112.984375 L 70.765625 107.859375 L 59.285156 107.859375 L 51.476562 93.992188 C 51.027344 93.191406 50.171875 92.691406 49.253906 92.691406 L 38.523438 92.691406 C 37.386719 88.277344 33.390625 85.011719 28.621094 85.011719 C 22.964844 85.011719 18.371094 89.59375 18.371094 95.253906 C 18.371094 100.90625 22.964844 105.492188 28.621094 105.492188 C 33.390625 105.492188 37.386719 102.226562 38.523438 97.8125 L 47.753906 97.8125 L 55.554688 111.671875 C 56 112.480469 56.855469 112.984375 57.785156 112.984375 Z M 265.984375 154.226562 C 261.230469 154.226562 257.222656 157.5 256.089844 161.910156 L 229.296875 161.910156 L 221.492188 148.042969 C 221.050781 147.242188 220.1875 146.742188 219.265625 146.742188 L 206.28125 146.742188 L 206.28125 151.863281 L 217.75 151.863281 L 225.558594 165.726562 C 226.015625 166.535156 226.878906 167.035156 227.800781 167.035156 L 256.089844 167.035156 C 257.222656 171.449219 261.230469 174.714844 265.984375 174.714844 C 271.664062 174.714844 276.246094 170.128906 276.246094 164.472656 C 276.246094 158.816406 271.664062 154.226562 265.984375 154.226562 Z M 222.585938 132.628906 C 223.714844 137.039062 227.722656 140.304688 232.480469 140.304688 C 238.15625 140.304688 242.722656 135.722656 242.722656 130.066406 C 242.722656 124.410156 238.15625 119.824219 232.480469 119.824219 C 227.722656 119.824219 223.714844 123.089844 222.585938 127.503906 L 206.28125 127.503906 L 206.28125 132.628906 Z M 206.28125 112.984375 L 206.28125 107.859375 L 217.75 107.859375 L 225.558594 93.992188 C 226.015625 93.191406 226.878906 92.691406 227.800781 92.691406 L 238.523438 92.691406 C 239.652344 88.277344 243.640625 85.011719 248.417969 85.011719 C 254.074219 85.011719 258.660156 89.59375 258.660156 95.253906 C 258.660156 100.90625 254.074219 105.492188 248.417969 105.492188 C 243.640625 105.492188 239.652344 102.226562 238.523438 97.8125 L 229.296875 97.8125 L 221.492188 111.671875 C 221.050781 112.480469 220.1875 112.984375 219.265625 112.984375 L 206.28125 112.984375 " fill-opacity="1" fill-rule="nonzero"/></g><path fill="#0172ad" d="M 88.597656 95.246094 L 97.347656 63.628906 C 97.535156 62.941406 98.269531 62.566406 98.9375 62.808594 L 108.847656 66.410156 L 94.847656 95.246094 L 88.597656 95.246094 " fill-opacity="1" fill-rule="nonzero"/><path fill="#0172ad" d="M 200.164062 89.746094 C 200.816406 88.675781 201.277344 87.5 201.527344 86.238281 C 201.640625 85.574219 201.71875 84.882812 201.71875 84.179688 C 201.71875 78.082031 196.636719 73.121094 190.371094 73.121094 L 164.070312 73.121094 Z M 89.992188 73.121094 L 84.742188 92.097656 L 84.742188 76.023438 C 84.742188 74.417969 86.042969 73.121094 87.644531 73.121094 L 89.992188 73.121094 " fill-opacity="1" fill-rule="nonzero"/><path fill="#0172ad" d="M 201.71875 95.027344 L 201.71875 169.046875 C 201.71875 175.972656 196.097656 181.59375 189.171875 181.59375 L 83.535156 181.59375 C 81.929688 181.59375 80.636719 180.296875 80.636719 178.695312 L 80.636719 161.328125 L 108.527344 161.328125 C 110.078125 161.328125 111.550781 161.019531 112.910156 160.472656 C 114.992188 159.636719 116.765625 158.222656 118.023438 156.421875 C 119.285156 154.625 120.027344 152.453125 120.027344 150.113281 L 120.027344 131.167969 C 120.027344 124.988281 114.863281 119.960938 108.527344 119.960938 L 80.636719 119.960938 L 80.636719 99.6875 L 190.371094 99.6875 C 194.8125 99.6875 198.820312 97.90625 201.71875 95.027344 " fill-opacity="1" fill-rule="nonzero"/><path fill="#0172ad" d="M 101.101562 134.703125 C 104.464844 134.703125 107.199219 137.371094 107.199219 140.644531 C 107.199219 143.917969 104.464844 146.578125 101.101562 146.578125 C 97.746094 146.578125 95.011719 143.917969 95.011719 140.644531 C 95.011719 137.371094 97.746094 134.703125 101.101562 134.703125 Z M 108.527344 156.878906 C 112.347656 156.878906 115.464844 153.84375 115.464844 150.113281 L 115.464844 131.167969 C 115.464844 127.4375 112.347656 124.402344 108.527344 124.402344 L 82.195312 124.402344 C 78.363281 124.402344 75.246094 127.4375 75.246094 131.167969 L 75.246094 150.113281 C 75.246094 153.84375 78.363281 156.878906 82.195312 156.878906 L 108.527344 156.878906 " fill-opacity="1" fill-rule="nonzero"/><path fill="#0172ad" d="M 196.828125 93.253906 C 195.082031 94.445312 192.953125 95.171875 190.664062 95.230469 C 190.566406 95.230469 190.46875 95.246094 190.371094 95.246094 L 99.894531 95.246094 L 117.925781 58.089844 C 117.957031 58.042969 117.996094 58.003906 118.023438 57.960938 C 118.355469 57.464844 118.984375 57.253906 119.539062 57.511719 L 196.828125 93.253906 " fill-opacity="1" fill-rule="nonzero"/><g clip-path="url(#9ac634fa34)"><path fill="#0172ad" d="M 118.3125 0.910156 C 113.097656 0.984375 108.617188 5.203125 108.242188 10.402344 C 107.882812 15.503906 111.253906 19.863281 115.898438 21.0625 L 115.898438 53.007812 C 116.570312 51.652344 118.191406 51.054688 119.59375 51.636719 L 121.023438 52.246094 L 121.023438 21.0625 C 125.433594 19.925781 128.703125 15.925781 128.703125 11.152344 C 128.703125 5.445312 124.035156 0.828125 118.3125 0.910156 Z M 140.664062 43.042969 C 145.078125 41.90625 148.34375 37.90625 148.34375 33.140625 C 148.34375 27.476562 143.757812 22.890625 138.101562 22.890625 C 132.449219 22.890625 127.863281 27.476562 127.863281 33.140625 C 127.863281 37.90625 131.128906 41.90625 135.539062 43.042969 L 135.539062 60 L 140.664062 62.355469 Z M 160.308594 33.566406 L 169.875 26.695312 C 171.746094 28.667969 174.378906 29.902344 177.304688 29.902344 C 182.960938 29.902344 187.546875 25.320312 187.546875 19.664062 C 187.546875 14.007812 182.960938 9.421875 177.304688 9.421875 C 171.648438 9.421875 167.066406 14.007812 167.066406 19.664062 C 167.066406 20.53125 167.183594 21.371094 167.386719 22.179688 L 156.253906 30.171875 C 155.589844 30.652344 155.183594 31.425781 155.183594 32.257812 L 155.183594 69.054688 L 160.308594 71.414062 Z M 136.492188 228.226562 C 132.070312 229.378906 128.804688 233.367188 128.804688 238.144531 C 128.804688 243.800781 133.390625 248.386719 139.054688 248.386719 C 144.710938 248.386719 149.296875 243.800781 149.296875 238.144531 C 149.296875 233.367188 146.03125 229.378906 141.609375 228.226562 L 141.609375 186.460938 L 136.492188 186.460938 Z M 156.132812 205.617188 C 151.722656 206.75 148.449219 210.757812 148.449219 215.511719 C 148.449219 221.171875 153.042969 225.753906 158.695312 225.753906 C 164.351562 225.753906 168.9375 221.171875 168.9375 215.511719 C 168.9375 210.757812 165.671875 206.75 161.25 205.617188 L 161.25 186.460938 L 156.132812 186.460938 Z M 116.847656 198.769531 L 103.617188 207.667969 C 102.90625 208.148438 102.488281 208.953125 102.488281 209.796875 L 102.488281 219.273438 C 98.066406 220.402344 94.800781 224.410156 94.800781 229.1875 C 94.800781 234.824219 99.394531 239.429688 105.050781 239.429688 C 110.707031 239.429688 115.289062 234.824219 115.289062 229.1875 C 115.289062 224.410156 112.023438 220.402344 107.609375 219.273438 L 107.609375 211.160156 L 120.84375 202.242188 C 121.546875 201.78125 121.964844 200.976562 121.964844 200.132812 L 121.964844 186.460938 L 116.847656 186.460938 Z M 0.804688 164.472656 C 0.804688 170.128906 5.390625 174.714844 11.046875 174.714844 C 15.816406 174.714844 19.816406 171.449219 20.957031 167.035156 L 49.253906 167.035156 C 50.171875 167.035156 51.027344 166.535156 51.476562 165.726562 L 59.285156 151.863281 L 70.765625 151.863281 L 70.765625 146.742188 L 57.785156 146.742188 C 56.855469 146.742188 56 147.242188 55.554688 148.042969 L 47.753906 161.910156 L 20.957031 161.910156 C 19.816406 157.5 15.816406 154.226562 11.046875 154.226562 C 5.390625 154.226562 0.804688 158.816406 0.804688 164.472656 Z M 70.765625 132.628906 L 70.765625 127.503906 L 54.460938 127.503906 C 53.320312 123.089844 49.328125 119.824219 44.554688 119.824219 C 38.898438 119.824219 34.308594 124.410156 34.308594 130.066406 C 34.308594 135.722656 38.898438 140.304688 44.554688 140.304688 C 49.328125 140.304688 53.320312 137.039062 54.460938 132.628906 Z M 70.765625 112.984375 L 70.765625 107.859375 L 59.285156 107.859375 L 51.476562 93.992188 C 51.027344 93.191406 50.171875 92.691406 49.253906 92.691406 L 38.523438 92.691406 C 37.386719 88.277344 33.390625 85.011719 28.621094 85.011719 C 22.964844 85.011719 18.371094 89.59375 18.371094 95.253906 C 18.371094 100.90625 22.964844 105.492188 28.621094 105.492188 C 33.390625 105.492188 37.386719 102.226562 38.523438 97.8125 L 47.753906 97.8125 L 55.554688 111.671875 C 56 112.480469 56.855469 112.984375 57.785156 112.984375 Z M 265.984375 154.226562 C 261.230469 154.226562 257.222656 157.5 256.089844 161.910156 L 229.296875 161.910156 L 221.492188 148.042969 C 221.050781 147.242188 220.1875 146.742188 219.265625 146.742188 L 206.28125 146.742188 L 206.28125 151.863281 L 217.75 151.863281 L 225.558594 165.726562 C 226.015625 166.535156 226.878906 167.035156 227.800781 167.035156 L 256.089844 167.035156 C 257.222656 171.449219 261.230469 174.714844 265.984375 174.714844 C 271.664062 174.714844 276.246094 170.128906 276.246094 164.472656 C 276.246094 158.816406 271.664062 154.226562 265.984375 154.226562 Z M 222.585938 132.628906 C 223.714844 137.039062 227.722656 140.304688 232.480469 140.304688 C 238.15625 140.304688 242.722656 135.722656 242.722656 130.066406 C 242.722656 124.410156 238.15625 119.824219 232.480469 119.824219 C 227.722656 119.824219 223.714844 123.089844 222.585938 127.503906 L 206.28125 127.503906 L 206.28125 132.628906 Z M 206.28125 112.984375 L 206.28125 107.859375 L 217.75 107.859375 L 225.558594 93.992188 C 226.015625 93.191406 226.878906 92.691406 227.800781 92.691406 L 238.523438 92.691406 C 239.652344 88.277344 243.640625 85.011719 248.417969 85.011719 C 254.074219 85.011719 258.660156 89.59375 258.660156 95.253906 C 258.660156 100.90625 254.074219 105.492188 248.417969 105.492188 C 243.640625 105.492188 239.652344 102.226562 238.523438 97.8125 L 229.296875 97.8125 L 221.492188 111.671875 C 221.050781 112.480469 220.1875 112.984375 219.265625 112.984375 L 206.28125 112.984375 " fill-opacity="1" fill-rule="nonzero"/></g></svg>