<svg width="1440" height="1024" viewBox="0 0 1440 1024" fill="none" xmlns="http://www.w3.org/2000/svg">
<g clip-path="url(#clip0_7_664)">
<rect width="1440" height="1024" fill="black"/>
<rect x="-37" y="-34" width="211" height="194" rx="34" fill="url(#paint0_linear_7_664)" fill-opacity="0.4"/>
<rect x="37" y="191" width="137" height="126" rx="34" fill="url(#paint1_linear_7_664)" fill-opacity="0.5"/>
<rect x="664" y="-44" width="137" height="126" rx="34" fill="url(#paint2_linear_7_664)" fill-opacity="0.5"/>
<rect x="664" y="111" width="137" height="126" rx="34" fill="url(#paint3_linear_7_664)" fill-opacity="0.5"/>
<rect x="-95" y="348" width="269" height="192" rx="34" fill="url(#paint4_linear_7_664)" fill-opacity="0.5"/>
<rect x="29" y="574" width="260" height="144" rx="34" fill="url(#paint5_linear_7_664)" fill-opacity="0.5"/>
<rect x="-140" y="756" width="337" height="310" rx="34" fill="url(#paint6_linear_7_664)" fill-opacity="0.5"/>
<rect x="243" y="819" width="182" height="175" rx="34" fill="url(#paint7_linear_7_664)" fill-opacity="0.5"/>
<rect x="318" y="619" width="182" height="175" rx="34" fill="url(#paint8_linear_7_664)" fill-opacity="0.5"/>
<rect x="462" y="883" width="182" height="164" rx="34" fill="url(#paint9_linear_7_664)" fill-opacity="0.5"/>
<rect x="546" y="626" width="317" height="91" rx="34" fill="url(#paint10_linear_7_664)" fill-opacity="0.5"/>
<rect x="681" y="742" width="182" height="164" rx="34" fill="url(#paint11_linear_7_664)" fill-opacity="0.5"/>
<rect x="960" y="245" width="161" height="164" rx="34" fill="url(#paint12_linear_7_664)" fill-opacity="0.5"/>
<rect x="942" y="438" width="141" height="255" rx="34" fill="url(#paint13_linear_7_664)" fill-opacity="0.5"/>
<rect x="681" y="938" width="182" height="164" rx="34" fill="url(#paint14_linear_7_664)" fill-opacity="0.5"/>
<rect x="216" y="-39" width="191" height="269" rx="34" fill="url(#paint15_linear_7_664)" fill-opacity="0.5"/>
<rect x="446" y="29" width="191" height="269" rx="34" fill="url(#paint16_linear_7_664)" fill-opacity="0.5"/>
<rect x="817" y="25" width="295" height="195" rx="34" fill="url(#paint17_linear_7_664)" fill-opacity="0.5"/>
<rect x="1210" y="679" width="219" height="202" rx="34" fill="url(#paint18_linear_7_664)" fill-opacity="0.5"/>
<rect x="1114" y="444" width="194" height="202" rx="34" fill="url(#paint19_linear_7_664)" fill-opacity="0.5"/>
<rect x="1343" y="444" width="194" height="202" rx="34" fill="url(#paint20_linear_7_664)" fill-opacity="0.5"/>
<rect x="1305" y="315" width="105" height="103" rx="34" fill="url(#paint21_linear_7_664)" fill-opacity="0.5"/>
<rect x="1173" y="315" width="105" height="103" rx="34" fill="url(#paint22_linear_7_664)" fill-opacity="0.5"/>
<rect x="213" y="263" width="194" height="202" rx="34" fill="url(#paint23_linear_7_664)" fill-opacity="0.5"/>
<rect x="318" y="493" width="105" height="103" rx="34" fill="url(#paint24_linear_7_664)" fill-opacity="0.5"/>
<rect x="1146" y="99" width="335" height="187" rx="34" fill="url(#paint25_linear_7_664)" fill-opacity="0.5"/>
<rect x="1146" y="-117" width="335" height="187" rx="34" fill="url(#paint26_linear_7_664)" fill-opacity="0.5"/>
<rect x="900" y="725" width="273" height="342" rx="34" fill="url(#paint27_linear_7_664)" fill-opacity="0.5"/>
<rect x="1210" y="916" width="259" height="119" rx="34" fill="url(#paint28_linear_7_664)" fill-opacity="0.5"/>
<rect x="452" y="327" width="137" height="126" rx="34" fill="url(#paint29_linear_7_664)" fill-opacity="0.5"/>
<rect x="452" y="479" width="137" height="126" rx="34" fill="url(#paint30_linear_7_664)" fill-opacity="0.5"/>
<rect x="516" y="740" width="137" height="126" rx="34" fill="url(#paint31_linear_7_664)" fill-opacity="0.5"/>
<rect x="614" y="396" width="295" height="195" rx="34" fill="url(#paint32_linear_7_664)" fill-opacity="0.5"/>
<rect x="665" y="259" width="105" height="112" rx="34" fill="url(#paint33_linear_7_664)" fill-opacity="0.5"/>
<rect x="799" y="245" width="137" height="126" rx="34" fill="url(#paint34_linear_7_664)" fill-opacity="0.5"/>
</g>
<defs>
<linearGradient id="paint0_linear_7_664" x1="68.5" y1="-34" x2="68.5" y2="160" gradientUnits="userSpaceOnUse">
<stop stop-color="#65A500"/>
<stop offset="1" stop-color="#B1D37A"/>
</linearGradient>
<linearGradient id="paint1_linear_7_664" x1="105.5" y1="191" x2="105.5" y2="317" gradientUnits="userSpaceOnUse">
<stop stop-color="#65A500"/>
<stop offset="1" stop-color="#B1D37A"/>
</linearGradient>
<linearGradient id="paint2_linear_7_664" x1="732.5" y1="-44" x2="732.5" y2="82" gradientUnits="userSpaceOnUse">
<stop stop-color="#65A500"/>
<stop offset="1" stop-color="#B1D37A"/>
</linearGradient>
<linearGradient id="paint3_linear_7_664" x1="732.5" y1="111" x2="732.5" y2="237" gradientUnits="userSpaceOnUse">
<stop stop-color="#65A500"/>
<stop offset="1" stop-color="#B1D37A"/>
</linearGradient>
<linearGradient id="paint4_linear_7_664" x1="39.5" y1="348" x2="39.5" y2="540" gradientUnits="userSpaceOnUse">
<stop stop-color="#65A500"/>
<stop offset="1" stop-color="#B1D37A"/>
</linearGradient>
<linearGradient id="paint5_linear_7_664" x1="159" y1="574" x2="159" y2="718" gradientUnits="userSpaceOnUse">
<stop stop-color="#65A500"/>
<stop offset="1" stop-color="#B1D37A"/>
</linearGradient>
<linearGradient id="paint6_linear_7_664" x1="28.5" y1="756" x2="28.5" y2="1066" gradientUnits="userSpaceOnUse">
<stop stop-color="#65A500"/>
<stop offset="1" stop-color="#B1D37A"/>
</linearGradient>
<linearGradient id="paint7_linear_7_664" x1="334" y1="819" x2="334" y2="994" gradientUnits="userSpaceOnUse">
<stop stop-color="#65A500"/>
<stop offset="1" stop-color="#B1D37A"/>
</linearGradient>
<linearGradient id="paint8_linear_7_664" x1="409" y1="619" x2="409" y2="794" gradientUnits="userSpaceOnUse">
<stop stop-color="#65A500"/>
<stop offset="1" stop-color="#B1D37A"/>
</linearGradient>
<linearGradient id="paint9_linear_7_664" x1="553" y1="883" x2="553" y2="1047" gradientUnits="userSpaceOnUse">
<stop stop-color="#65A500"/>
<stop offset="1" stop-color="#B1D37A"/>
</linearGradient>
<linearGradient id="paint10_linear_7_664" x1="704.5" y1="626" x2="704.5" y2="717" gradientUnits="userSpaceOnUse">
<stop stop-color="#65A500"/>
<stop offset="1" stop-color="#B1D37A"/>
</linearGradient>
<linearGradient id="paint11_linear_7_664" x1="772" y1="742" x2="772" y2="906" gradientUnits="userSpaceOnUse">
<stop stop-color="#65A500"/>
<stop offset="1" stop-color="#B1D37A"/>
</linearGradient>
<linearGradient id="paint12_linear_7_664" x1="1040.5" y1="245" x2="1040.5" y2="409" gradientUnits="userSpaceOnUse">
<stop stop-color="#65A500"/>
<stop offset="1" stop-color="#B1D37A"/>
</linearGradient>
<linearGradient id="paint13_linear_7_664" x1="1012.5" y1="438" x2="1012.5" y2="693" gradientUnits="userSpaceOnUse">
<stop stop-color="#65A500"/>
<stop offset="1" stop-color="#B1D37A"/>
</linearGradient>
<linearGradient id="paint14_linear_7_664" x1="772" y1="938" x2="772" y2="1102" gradientUnits="userSpaceOnUse">
<stop stop-color="#65A500"/>
<stop offset="1" stop-color="#B1D37A"/>
</linearGradient>
<linearGradient id="paint15_linear_7_664" x1="311.5" y1="-39" x2="311.5" y2="230" gradientUnits="userSpaceOnUse">
<stop stop-color="#65A500"/>
<stop offset="1" stop-color="#B1D37A"/>
</linearGradient>
<linearGradient id="paint16_linear_7_664" x1="541.5" y1="29" x2="541.5" y2="298" gradientUnits="userSpaceOnUse">
<stop stop-color="#65A500"/>
<stop offset="1" stop-color="#B1D37A"/>
</linearGradient>
<linearGradient id="paint17_linear_7_664" x1="964.5" y1="25" x2="964.5" y2="220" gradientUnits="userSpaceOnUse">
<stop stop-color="#65A500"/>
<stop offset="1" stop-color="#B1D37A"/>
</linearGradient>
<linearGradient id="paint18_linear_7_664" x1="1319.5" y1="679" x2="1319.5" y2="881" gradientUnits="userSpaceOnUse">
<stop stop-color="#65A500"/>
<stop offset="1" stop-color="#B1D37A"/>
</linearGradient>
<linearGradient id="paint19_linear_7_664" x1="1211" y1="444" x2="1211" y2="646" gradientUnits="userSpaceOnUse">
<stop stop-color="#65A500"/>
<stop offset="1" stop-color="#B1D37A"/>
</linearGradient>
<linearGradient id="paint20_linear_7_664" x1="1440" y1="444" x2="1440" y2="646" gradientUnits="userSpaceOnUse">
<stop stop-color="#65A500"/>
<stop offset="1" stop-color="#B1D37A"/>
</linearGradient>
<linearGradient id="paint21_linear_7_664" x1="1357.5" y1="315" x2="1357.5" y2="418" gradientUnits="userSpaceOnUse">
<stop stop-color="#65A500"/>
<stop offset="1" stop-color="#B1D37A"/>
</linearGradient>
<linearGradient id="paint22_linear_7_664" x1="1225.5" y1="315" x2="1225.5" y2="418" gradientUnits="userSpaceOnUse">
<stop stop-color="#65A500"/>
<stop offset="1" stop-color="#B1D37A"/>
</linearGradient>
<linearGradient id="paint23_linear_7_664" x1="310" y1="263" x2="310" y2="465" gradientUnits="userSpaceOnUse">
<stop stop-color="#65A500"/>
<stop offset="1" stop-color="#B1D37A"/>
</linearGradient>
<linearGradient id="paint24_linear_7_664" x1="370.5" y1="493" x2="370.5" y2="596" gradientUnits="userSpaceOnUse">
<stop stop-color="#65A500"/>
<stop offset="1" stop-color="#B1D37A"/>
</linearGradient>
<linearGradient id="paint25_linear_7_664" x1="1313.5" y1="99" x2="1313.5" y2="286" gradientUnits="userSpaceOnUse">
<stop stop-color="#65A500"/>
<stop offset="1" stop-color="#B1D37A"/>
</linearGradient>
<linearGradient id="paint26_linear_7_664" x1="1313.5" y1="-117" x2="1313.5" y2="70" gradientUnits="userSpaceOnUse">
<stop stop-color="#65A500"/>
<stop offset="1" stop-color="#B1D37A"/>
</linearGradient>
<linearGradient id="paint27_linear_7_664" x1="1036.5" y1="725" x2="1036.5" y2="1067" gradientUnits="userSpaceOnUse">
<stop stop-color="#65A500"/>
<stop offset="1" stop-color="#B1D37A"/>
</linearGradient>
<linearGradient id="paint28_linear_7_664" x1="1339.5" y1="916" x2="1339.5" y2="1035" gradientUnits="userSpaceOnUse">
<stop stop-color="#65A500"/>
<stop offset="1" stop-color="#B1D37A"/>
</linearGradient>
<linearGradient id="paint29_linear_7_664" x1="520.5" y1="327" x2="520.5" y2="453" gradientUnits="userSpaceOnUse">
<stop stop-color="#65A500"/>
<stop offset="1" stop-color="#B1D37A"/>
</linearGradient>
<linearGradient id="paint30_linear_7_664" x1="520.5" y1="479" x2="520.5" y2="605" gradientUnits="userSpaceOnUse">
<stop stop-color="#65A500"/>
<stop offset="1" stop-color="#B1D37A"/>
</linearGradient>
<linearGradient id="paint31_linear_7_664" x1="584.5" y1="740" x2="584.5" y2="866" gradientUnits="userSpaceOnUse">
<stop stop-color="#65A500"/>
<stop offset="1" stop-color="#B1D37A"/>
</linearGradient>
<linearGradient id="paint32_linear_7_664" x1="761.5" y1="396" x2="761.5" y2="591" gradientUnits="userSpaceOnUse">
<stop stop-color="#65A500"/>
<stop offset="1" stop-color="#B1D37A"/>
</linearGradient>
<linearGradient id="paint33_linear_7_664" x1="717.5" y1="259" x2="717.5" y2="371" gradientUnits="userSpaceOnUse">
<stop stop-color="#65A500"/>
<stop offset="1" stop-color="#B1D37A"/>
</linearGradient>
<linearGradient id="paint34_linear_7_664" x1="867.5" y1="245" x2="867.5" y2="371" gradientUnits="userSpaceOnUse">
<stop stop-color="#65A500"/>
<stop offset="1" stop-color="#B1D37A"/>
</linearGradient>
<clipPath id="clip0_7_664">
<rect width="1440" height="1024" fill="white"/>
</clipPath>
</defs>
</svg>
