<svg width="27" height="27" viewBox="0 0 27 27" fill="none" xmlns="http://www.w3.org/2000/svg">
<path d="M21.8036 0.214355C23.176 0.214355 24.3494 0.701614 25.3239 1.67613C26.2985 2.65065 26.7857 3.8241 26.7857 5.1965V21.8036C26.7857 23.176 26.2985 24.3495 25.3239 25.324C24.3494 26.2985 23.176 26.7858 21.8036 26.7858H18.5513V16.4928H21.9939L22.5128 12.4794H18.5513V9.91915C18.5513 9.27332 18.6869 8.78895 18.9579 8.46603C19.2289 8.14311 19.7565 7.98165 20.5407 7.98165L22.6512 7.96435V4.38344C21.9247 4.27965 20.8983 4.22775 19.572 4.22775C18.0035 4.22775 16.7494 4.68906 15.8094 5.61168C14.8695 6.5343 14.3996 7.83749 14.3996 9.52127V12.4794H10.9397V16.4928H14.3996V26.7858H5.19644C3.82404 26.7858 2.65059 26.2985 1.67607 25.324C0.701553 24.3495 0.214294 23.176 0.214294 21.8036V5.1965C0.214294 3.8241 0.701553 2.65065 1.67607 1.67613C2.65059 0.701614 3.82404 0.214355 5.19644 0.214355H21.8036Z" fill="white"/>
</svg>
