<svg width="156" height="156" viewBox="0 0 156 156" fill="none" xmlns="http://www.w3.org/2000/svg">
<circle cx="78" cy="78" r="78" fill="#65A500"/>
<path d="M67.5625 87.1562C67.5625 91.4 70.8438 94.8125 74.8688 94.8125H83.0938C86.5938 94.8125 89.4375 91.8375 89.4375 88.1188C89.4375 84.1375 87.6875 82.6938 85.1063 81.775L71.9375 77.1813C69.3563 76.2625 67.6063 74.8625 67.6063 70.8375C67.6063 67.1625 70.45 64.1437 73.95 64.1437H82.175C86.2 64.1437 89.4813 67.5562 89.4813 71.8M78.5 59.8125V99.1875" stroke="white" stroke-width="2" stroke-linecap="round" stroke-linejoin="round"/>
<path d="M122.25 79.5C122.25 103.65 102.65 123.25 78.5 123.25C54.35 123.25 34.75 103.65 34.75 79.5C34.75 55.35 54.35 35.75 78.5 35.75M122.25 53.25V35.75M122.25 35.75H104.75M122.25 35.75L100.375 57.625" stroke="white" stroke-width="2" stroke-linecap="round" stroke-linejoin="round"/>
</svg>
