<svg width="50" height="50" viewBox="0 0 50 50" fill="none" xmlns="http://www.w3.org/2000/svg">
<path d="M19.7917 28.6458C19.7917 30.6667 21.3542 32.2917 23.2709 32.2917H27.1876C28.8542 32.2917 30.2084 30.875 30.2084 29.1042C30.2084 27.2083 29.3751 26.5208 28.1459 26.0833L21.8751 23.8958C20.6459 23.4583 19.8126 22.7917 19.8126 20.875C19.8126 19.125 21.1667 17.6875 22.8334 17.6875H26.7501C28.6667 17.6875 30.2292 19.3125 30.2292 21.3333M25.0001 15.625V34.375" stroke="black" stroke-width="1.5" stroke-linecap="round" stroke-linejoin="round"/>
<path d="M45.8334 25.0001C45.8334 36.5001 36.5001 45.8334 25.0001 45.8334C13.5001 45.8334 4.16675 36.5001 4.16675 25.0001C4.16675 13.5001 13.5001 4.16675 25.0001 4.16675M45.8334 12.5001V4.16675M45.8334 4.16675H37.5001M45.8334 4.16675L35.4168 14.5834" stroke="black" stroke-width="1.5" stroke-linecap="round" stroke-linejoin="round"/>
</svg>
