<svg width="156" height="156" viewBox="0 0 156 156" fill="none" xmlns="http://www.w3.org/2000/svg">
<circle cx="78" cy="78" r="78" fill="#65A500"/>
<path d="M73.4239 95.8199V103.263C73.4239 109.57 67.5573 114.667 60.3339 114.667C53.1106 114.667 47.2073 109.57 47.2073 103.263V95.8199C47.2073 102.127 53.0739 106.6 60.3339 106.6C67.5573 106.6 73.4239 102.09 73.4239 95.8199Z" stroke="white" stroke-width="1.5" stroke-linecap="round" stroke-linejoin="round"/>
<path d="M73.4167 85.7367C73.4167 87.57 72.9033 89.2567 72.0233 90.7233C69.86 94.28 65.4233 96.5167 60.29 96.5167C55.1567 96.5167 50.72 94.2433 48.5567 90.7233C47.6767 89.2567 47.1633 87.57 47.1633 85.7367C47.1633 82.5833 48.63 79.76 50.9767 77.7067C53.36 75.6167 56.6233 74.37 60.2533 74.37C63.8833 74.37 67.1467 75.6533 69.53 77.7067C71.95 79.7233 73.4167 82.5833 73.4167 85.7367Z" stroke="white" stroke-width="1.5" stroke-linecap="round" stroke-linejoin="round"/>
<path d="M73.4239 85.7366V95.8199C73.4239 102.127 67.5573 106.6 60.3339 106.6C53.1106 106.6 47.2073 102.09 47.2073 95.8199V85.7366C47.2073 79.4299 53.0739 74.3333 60.3339 74.3333C63.9639 74.3333 67.2273 75.6166 69.6106 77.6699C71.9573 79.7233 73.4239 82.5833 73.4239 85.7366ZM114.667 74.2233V81.7766C114.667 83.7933 113.053 85.4433 111 85.5166H103.813C99.8533 85.5166 96.2233 82.6199 95.8933 78.6599C95.6733 76.3499 96.5533 74.1866 98.0933 72.6833C99.4499 71.2899 101.32 70.4833 103.373 70.4833H111C113.053 70.5566 114.667 72.2066 114.667 74.2233Z" stroke="white" stroke-width="1.5" stroke-linecap="round" stroke-linejoin="round"/>
<path d="M41.3334 72.5V65.1667C41.3334 55.1934 47.3467 48.2267 56.6967 47.0534C57.65 46.9067 58.64 46.8334 59.6667 46.8334H92.6667C93.62 46.8334 94.5367 46.87 95.4167 47.0167C104.877 48.1167 111 55.12 111 65.1667V70.4834H103.373C101.32 70.4834 99.45 71.29 98.0934 72.6834C96.5534 74.1867 95.6734 76.35 95.8934 78.66C96.2234 82.62 99.8534 85.5167 103.813 85.5167H111V90.8334C111 101.833 103.667 109.167 92.6667 109.167H83.5" stroke="white" stroke-width="1.5" stroke-linecap="round" stroke-linejoin="round"/>
</svg>
