<svg width="156" height="156" viewBox="0 0 156 156" fill="none" xmlns="http://www.w3.org/2000/svg">
<circle cx="78" cy="78" r="78" fill="#65A500"/>
<path d="M78.0007 96.3333V105.06C78.0007 111.917 75.2507 114.667 68.3573 114.667H50.9407C44.084 114.667 41.334 111.917 41.334 105.06V87.6433C41.334 80.75 44.084 78 50.9407 78H59.6673V86.69C59.6673 93.5833 62.4173 96.3333 69.274 96.3333H78.0007Z" stroke="white" stroke-width="2" stroke-linecap="round" stroke-linejoin="round"/>
<path d="M96.3327 78V86.69C96.3327 93.5833 93.5827 96.3333 86.6893 96.3333H69.2727C62.416 96.3333 59.666 93.5833 59.666 86.69V69.2733C59.666 62.4166 62.416 59.6666 69.2727 59.6666H77.9993V68.3566C77.9993 75.25 80.7493 78 87.606 78H96.3327Z" stroke="white" stroke-width="2" stroke-linecap="round" stroke-linejoin="round"/>
<path d="M114.667 50.94V68.3567C114.667 75.25 111.917 78 105.023 78H87.6067C80.75 78 78 75.25 78 68.3567V50.94C78 44.0834 80.75 41.3334 87.6067 41.3334H105.023C111.917 41.3334 114.667 44.0834 114.667 50.94Z" stroke="white" stroke-width="2" stroke-linecap="round" stroke-linejoin="round"/>
</svg>
