<svg width="27" height="981" viewBox="0 0 27 981" fill="none" xmlns="http://www.w3.org/2000/svg">
<line x1="13.5" y1="17" x2="13.5" y2="115" stroke="#65A500" stroke-width="3"/>
<circle cx="13.5" cy="127.5" r="12" stroke="#65A500" stroke-width="3"/>
<circle cx="13.5" cy="127.5" r="8.5" fill="#65A500"/>
<circle cx="13.5" cy="8.5" r="8.5" fill="#65A500"/>
<line x1="13.5" y1="141" x2="13.5" y2="284" stroke="#65A500" stroke-width="3"/>
<circle cx="13.5" cy="296.5" r="12" stroke="#65A500" stroke-width="3"/>
<circle cx="13.5" cy="296.5" r="8.5" fill="#65A500"/>
<circle cx="13.5" cy="463.5" r="12" stroke="#65A500" stroke-width="3"/>
<circle cx="13.5" cy="463.5" r="8.5" fill="#65A500"/>
<line x1="13.5" y1="308" x2="13.5" y2="451" stroke="#65A500" stroke-width="3"/>
<circle cx="13.5" cy="798.5" r="12" stroke="#65A500" stroke-width="3"/>
<circle cx="13.5" cy="798.5" r="8.5" fill="#65A500"/>
<line x1="13.5" y1="643" x2="13.5" y2="786" stroke="#65A500" stroke-width="3"/>
<line x1="13.5" y1="476" x2="13.5" y2="619" stroke="#65A500" stroke-width="3"/>
<circle cx="13.5" cy="631.5" r="12" stroke="#65A500" stroke-width="3"/>
<circle cx="13.5" cy="631.5" r="8.5" fill="#65A500"/>
<line x1="13.5" y1="812" x2="13.5" y2="955" stroke="#65A500" stroke-width="3"/>
<circle cx="13.5" cy="967.5" r="12" stroke="#65A500" stroke-width="3"/>
<circle cx="13.5" cy="967.5" r="8.5" fill="#65A500"/>
</svg>
