<svg width="27" height="27" viewBox="0 0 27 27" fill="none" xmlns="http://www.w3.org/2000/svg">
<path d="M13.5 10.2968C12.8664 10.2968 12.2471 10.4847 11.7203 10.8367C11.1935 11.1887 10.7829 11.689 10.5405 12.2743C10.298 12.8596 10.2346 13.5037 10.3582 14.1251C10.4818 14.7465 10.7869 15.3173 11.2349 15.7653C11.6829 16.2133 12.2537 16.5183 12.875 16.6419C13.4964 16.7655 14.1405 16.7021 14.7258 16.4597C15.3112 16.2172 15.8115 15.8066 16.1635 15.2798C16.5154 14.7531 16.7033 14.1337 16.7033 13.5002C16.7033 13.0795 16.6205 12.6629 16.4595 12.2743C16.2985 11.8857 16.0625 11.5325 15.7651 11.2351C15.4676 10.9376 15.1145 10.7017 14.7258 10.5407C14.3372 10.3797 13.9206 10.2968 13.5 10.2968ZM26.3262 7.13225C26.3194 6.13477 26.1358 5.1464 25.7837 4.21308C25.5245 3.53012 25.1233 2.90991 24.6068 2.39336C24.0902 1.87681 23.47 1.47567 22.7871 1.21641C21.8537 0.864387 20.8654 0.680708 19.8679 0.673913C18.2016 0.583496 17.7108 0.583496 13.5 0.583496C9.28915 0.583496 8.79831 0.583496 7.13206 0.673913C6.13458 0.680708 5.14622 0.864387 4.2129 1.21641C3.52994 1.47567 2.90973 1.87681 2.39318 2.39336C1.87663 2.90991 1.47549 3.53012 1.21623 4.21308C0.864204 5.1464 0.680525 6.13477 0.67373 7.13225C0.583313 8.7985 0.583313 9.28933 0.583313 13.5002C0.583313 17.711 0.583313 18.2018 0.67373 19.8681C0.687633 20.8691 0.871063 21.8605 1.21623 22.8002C1.47434 23.48 1.87515 24.0966 2.39165 24.6085C2.90598 25.1281 3.52752 25.5293 4.2129 25.7839C5.14622 26.1359 6.13458 26.3196 7.13206 26.3264C8.79831 26.4168 9.28915 26.4168 13.5 26.4168C17.7108 26.4168 18.2016 26.4168 19.8679 26.3264C20.8654 26.3196 21.8537 26.1359 22.7871 25.7839C23.4724 25.5293 24.094 25.1281 24.6083 24.6085C25.1248 24.0966 25.5256 23.48 25.7837 22.8002C26.1354 21.8623 26.3191 20.8697 26.3262 19.8681C26.4166 18.2018 26.4166 17.711 26.4166 13.5002C26.4166 9.28933 26.4166 8.7985 26.3262 7.13225ZM23.0454 17.4656C23.0039 18.2627 22.8338 19.0478 22.5416 19.7906C22.2909 20.4102 21.9181 20.973 21.4455 21.4457C20.9728 21.9183 20.41 22.2911 19.7904 22.5418C19.0406 22.8177 18.2511 22.9704 17.4525 22.9939C16.4321 22.9939 16.1608 22.9939 13.5 22.9939C10.8391 22.9939 10.5679 22.9939 9.54748 22.9939C8.74888 22.9704 7.95936 22.8177 7.20956 22.5418C6.56903 22.3038 5.99059 21.9241 5.51748 21.431C5.04947 20.9676 4.68803 20.4078 4.45831 19.7906C4.18132 19.0416 4.03285 18.2511 4.01915 17.4527C4.01915 16.4322 4.01915 16.161 4.01915 13.5002C4.01915 10.8393 4.01915 10.5681 4.01915 9.54766C4.03285 8.74919 4.18132 7.95876 4.45831 7.20975C4.69634 6.56921 5.07608 5.99077 5.56915 5.51766C6.03458 5.05218 6.59378 4.69112 7.20956 4.4585C7.95936 4.1826 8.74888 4.02993 9.54748 4.00641C10.5679 4.00641 10.8391 4.00641 13.5 4.00641C16.1608 4.00641 16.4321 4.00641 17.4525 4.00641C18.2511 4.02993 19.0406 4.1826 19.7904 4.4585C20.4309 4.69653 21.0094 5.07627 21.4825 5.56933C21.9505 6.03271 22.3119 6.5925 22.5416 7.20975C22.8175 7.95954 22.9702 8.74906 22.9937 9.54766C22.9937 10.5681 22.9937 10.8393 22.9937 13.5002C22.9937 16.161 23.0841 16.4322 23.0454 17.4527V17.4656ZM20.9787 7.85558C20.8249 7.43835 20.5825 7.05945 20.268 6.74502C19.9536 6.43059 19.5747 6.18812 19.1575 6.03433C18.5846 5.83575 17.9812 5.73956 17.375 5.75016C16.3675 5.75016 16.0833 5.75016 13.5 5.75016C10.9166 5.75016 10.6325 5.75016 9.62498 5.75016C9.01566 5.75612 8.41219 5.86982 7.84248 6.086C7.43164 6.2328 7.05675 6.46537 6.74273 6.76826C6.42872 7.07114 6.18277 7.43739 6.02123 7.84266C5.83365 8.41793 5.74201 9.02014 5.74998 9.62516C5.74998 10.6327 5.74998 10.9168 5.74998 13.5002C5.74998 16.0835 5.74998 16.3677 5.74998 17.3752C5.76279 17.9838 5.87626 18.5861 6.08581 19.1577C6.2396 19.5749 6.48208 19.9538 6.79651 20.2682C7.11094 20.5826 7.48983 20.8251 7.90706 20.9789C8.45817 21.1816 9.03812 21.295 9.62498 21.3147C10.6325 21.3147 10.9166 21.3147 13.5 21.3147C16.0833 21.3147 16.3675 21.3147 17.375 21.3147C17.9843 21.3088 18.5878 21.1951 19.1575 20.9789C19.5747 20.8251 19.9536 20.5826 20.268 20.2682C20.5825 19.9538 20.8249 19.5749 20.9787 19.1577C21.1949 18.5879 21.3086 17.9845 21.3146 17.3752C21.3146 16.3677 21.3146 16.0835 21.3146 13.5002C21.3146 10.9168 21.3146 10.6327 21.3146 9.62516C21.3149 9.01524 21.201 8.41064 20.9787 7.84266V7.85558ZM13.5 18.4343C12.8526 18.4343 12.2116 18.3066 11.6137 18.0585C11.0158 17.8104 10.4727 17.4467 10.0156 16.9884C9.55841 16.53 9.19618 15.986 8.94963 15.3874C8.70307 14.7888 8.57703 14.1475 8.57873 13.5002C8.57873 12.5237 8.86845 11.5692 9.41119 10.7575C9.95394 9.94585 10.7253 9.31344 11.6277 8.94036C12.53 8.56729 13.5228 8.47034 14.4803 8.66177C15.4378 8.85321 16.3169 9.32442 17.0064 10.0158C17.696 10.7071 18.1649 11.5875 18.3538 12.5455C18.5427 13.5035 18.4432 14.496 18.0678 15.3974C17.6923 16.2987 17.0579 17.0684 16.2448 17.6091C15.4317 18.1497 14.4764 18.4369 13.5 18.4343ZM18.6666 9.53475C18.3811 9.50452 18.1169 9.3697 17.9248 9.15625C17.7328 8.9428 17.6265 8.66583 17.6265 8.3787C17.6265 8.09158 17.7328 7.81461 17.9248 7.60116C18.1169 7.38771 18.3811 7.25289 18.6666 7.22266C18.9522 7.25289 19.2164 7.38771 19.4085 7.60116C19.6005 7.81461 19.7068 8.09158 19.7068 8.3787C19.7068 8.66583 19.6005 8.9428 19.4085 9.15625C19.2164 9.3697 18.9522 9.50452 18.6666 9.53475Z" fill="white"/>
</svg>
