<svg width="15" height="15" viewBox="0 0 15 15" fill="none" xmlns="http://www.w3.org/2000/svg">
<path d="M7.5 8.39414C7.75608 8.39414 8.00965 8.3437 8.24624 8.24571C8.48282 8.14771 8.69779 8.00407 8.87886 7.823C9.05994 7.64192 9.20357 7.42696 9.30157 7.19037C9.39956 6.95379 9.45 6.70022 9.45 6.44414C9.45 6.18806 9.39956 5.93449 9.30157 5.69791C9.20357 5.46132 9.05994 5.24636 8.87886 5.06528C8.69779 4.88421 8.48282 4.74057 8.24624 4.64258C8.00965 4.54458 7.75608 4.49414 7.5 4.49414C6.98283 4.49414 6.48684 4.69959 6.12114 5.06528C5.75545 5.43098 5.55 5.92697 5.55 6.44414C5.55 6.96131 5.75545 7.4573 6.12114 7.823C6.48684 8.18869 6.98283 8.39414 7.5 8.39414Z" stroke="black"/>
<path d="M2.2625 5.30625C3.49375 -0.106249 11.5125 -0.0999984 12.7375 5.3125C13.4563 8.4875 11.4813 11.175 9.75 12.8375C9.14505 13.421 8.33735 13.747 7.49688 13.747C6.6564 13.747 5.8487 13.421 5.24375 12.8375C3.51875 11.175 1.54375 8.48125 2.2625 5.30625Z" stroke="black"/>
</svg>
