<svg width="50" height="50" viewBox="0 0 50 50" fill="none" xmlns="http://www.w3.org/2000/svg">
<path d="M45.8334 25.0001C45.8334 13.5001 36.5001 4.16675 25.0001 4.16675C13.5001 4.16675 4.16675 13.5001 4.16675 25.0001C4.16675 36.5001 13.5001 45.8334 25.0001 45.8334" stroke="black" stroke-width="1.5" stroke-linecap="round" stroke-linejoin="round"/>
<path d="M16.6666 6.25H18.7499C14.6875 18.4199 14.6875 31.5801 18.7499 43.75H16.6666M31.2499 6.25C33.2708 12.3333 34.2916 18.6667 34.2916 25" stroke="black" stroke-width="1.5" stroke-linecap="round" stroke-linejoin="round"/>
<path d="M6.25 33.3333V31.2499C12.3333 33.2708 18.6667 34.2916 25 34.2916M6.25 18.7499C18.4199 14.6875 31.5801 14.6875 43.75 18.7499M45.8333 45.8333L43.75 43.7499M37.9167 44.5833C39.6848 44.5833 41.3805 43.8809 42.6307 42.6307C43.881 41.3804 44.5833 39.6847 44.5833 37.9166C44.5833 36.1485 43.881 34.4528 42.6307 33.2026C41.3805 31.9523 39.6848 31.2499 37.9167 31.2499C36.1486 31.2499 34.4529 31.9523 33.2026 33.2026C31.9524 34.4528 31.25 36.1485 31.25 37.9166C31.25 39.6847 31.9524 41.3804 33.2026 42.6307C34.4529 43.8809 36.1486 44.5833 37.9167 44.5833Z" stroke="black" stroke-width="1.5" stroke-linecap="round" stroke-linejoin="round"/>
</svg>
