<svg xmlns="http://www.w3.org/2000/svg" xmlns:xlink="http://www.w3.org/1999/xlink" width="167" zoomAndPan="magnify" viewBox="0 0 125.25 131.999998" height="176" preserveAspectRatio="xMidYMid meet" version="1.0"><defs><clipPath id="82eebf8699"><path d="M 1 1.121094 L 123 1.121094 L 123 130 L 1 130 Z M 1 1.121094 " clip-rule="nonzero"/></clipPath><clipPath id="9492e6aaa9"><path d="M 1 2.351562 L 123 2.351562 L 123 131.328125 L 1 131.328125 Z M 1 2.351562 " clip-rule="nonzero"/></clipPath></defs><g clip-path="url(#82eebf8699)"><path fill="#0172ad" d="M 77.679688 27.878906 C 75.363281 27.878906 73.808594 26.167969 73.417969 24.238281 C 72.964844 22.039062 74.019531 19.503906 76.902344 18.914062 L 78.339844 18.617188 C 68.886719 15.480469 58.601562 15.15625 48.898438 17.753906 C 44.875 18.835938 40.988281 20.398438 37.347656 22.410156 C 36.671875 22.785156 35.820312 22.539062 35.445312 21.859375 C 35.074219 21.183594 35.320312 20.335938 35.996094 19.960938 C 39.835938 17.839844 43.933594 16.191406 48.175781 15.054688 C 60.011719 11.882812 72.683594 12.839844 83.859375 17.746094 C 84.417969 17.992188 84.75 18.566406 84.6875 19.171875 C 84.621094 19.777344 84.175781 20.273438 83.578125 20.394531 L 77.460938 21.65625 C 75.890625 21.976562 76.097656 23.398438 76.15625 23.679688 C 76.214844 23.960938 76.578125 25.355469 78.148438 25.035156 L 93.425781 21.894531 C 93.980469 21.78125 94.429688 21.417969 94.65625 20.902344 C 94.890625 20.378906 94.855469 19.800781 94.566406 19.3125 C 94.550781 19.285156 94.535156 19.257812 94.519531 19.226562 L 87.609375 5.488281 C 86.886719 4.0625 85.570312 4.636719 85.3125 4.769531 C 85.058594 4.898438 83.808594 5.617188 84.53125 7.046875 L 87.445312 12.835938 C 87.710938 13.363281 87.617188 14.003906 87.207031 14.429688 C 86.796875 14.859375 86.164062 14.980469 85.625 14.742188 C 73.636719 9.375 60.019531 8.296875 47.28125 11.710938 C 42.449219 13.003906 37.800781 14.925781 33.46875 17.410156 C 32.796875 17.796875 31.941406 17.566406 31.558594 16.894531 C 31.171875 16.226562 31.40625 15.371094 32.074219 14.984375 C 36.617188 12.378906 41.488281 10.367188 46.558594 9.007812 C 58.691406 5.757812 71.582031 6.390625 83.265625 10.753906 L 82.035156 8.304688 C 80.710938 5.683594 82.046875 3.285156 84.050781 2.269531 C 86.054688 1.257812 88.78125 1.605469 90.105469 4.230469 L 96.996094 17.929688 C 97.71875 19.179688 97.804688 20.707031 97.214844 22.035156 C 96.617188 23.390625 95.4375 24.335938 93.984375 24.632812 L 78.710938 27.773438 C 78.351562 27.847656 78.007812 27.882812 77.679688 27.878906 Z M 115.96875 92.777344 C 115.78125 92.777344 115.585938 92.738281 115.398438 92.65625 C 114.691406 92.339844 114.378906 91.511719 114.695312 90.804688 C 120.085938 78.800781 121.171875 65.164062 117.753906 52.398438 C 115.585938 44.300781 111.601562 36.648438 106.238281 30.265625 C 106.019531 30.003906 105.847656 29.796875 105.261719 30.277344 C 104.222656 31.140625 103.832031 32.785156 104.066406 33.070312 C 108.929688 39.027344 112.410156 45.832031 114.410156 53.292969 C 117.46875 64.710938 116.683594 76.988281 112.191406 87.863281 C 111.898438 88.578125 111.078125 88.917969 110.367188 88.621094 C 109.652344 88.328125 109.3125 87.511719 109.605469 86.796875 C 113.863281 76.484375 114.609375 64.84375 111.710938 54.019531 C 109.8125 46.9375 106.511719 40.488281 101.898438 34.839844 C 100.414062 33.023438 101.527344 29.738281 103.476562 28.125 C 105.128906 26.753906 107.054688 26.886719 108.378906 28.464844 C 114.003906 35.160156 118.179688 43.183594 120.457031 51.675781 C 124.039062 65.058594 122.902344 79.363281 117.246094 91.953125 C 117.011719 92.472656 116.503906 92.777344 115.96875 92.777344 Z M 14.699219 102.40625 C 13.65625 102.40625 12.683594 101.855469 11.976562 100.792969 C 8.324219 95.308594 5.605469 89.292969 3.890625 82.90625 C 0.0976562 68.746094 1.574219 53.726562 8.046875 40.617188 C 8.394531 39.921875 9.230469 39.640625 9.921875 39.980469 C 10.617188 40.324219 10.902344 41.164062 10.558594 41.855469 C 4.382812 54.355469 2.976562 68.675781 6.59375 82.183594 C 8.226562 88.273438 10.820312 94.011719 14.304688 99.242188 C 14.621094 99.71875 14.746094 99.648438 15.019531 99.488281 C 16.121094 98.847656 16.855469 96.917969 16.625 96.457031 C 13.632812 91.777344 11.378906 86.671875 9.9375 81.289062 C 6.621094 68.914062 7.804688 55.746094 13.265625 44.207031 C 13.597656 43.507812 14.433594 43.210938 15.128906 43.539062 C 15.828125 43.871094 16.125 44.707031 15.796875 45.402344 C 10.617188 56.34375 9.492188 68.832031 12.636719 80.5625 C 14.007812 85.671875 16.140625 90.511719 18.980469 94.957031 C 20.246094 96.929688 18.714844 100.421875 16.621094 101.789062 C 15.984375 102.203125 15.332031 102.40625 14.699219 102.40625 Z M 32.28125 129.855469 C 31.800781 129.855469 31.324219 129.78125 30.871094 129.628906 C 29.691406 129.230469 28.757812 128.328125 28.238281 127.085938 L 22.359375 112.917969 C 21.730469 111.621094 21.757812 110.089844 22.4375 108.8125 C 23.136719 107.5 24.378906 106.640625 25.851562 106.453125 L 41.316406 104.429688 C 44.230469 104.054688 46.050781 106.113281 46.339844 108.339844 C 46.628906 110.566406 45.390625 113.019531 42.476562 113.398438 L 40.320312 113.679688 C 51.207031 118.789062 63.777344 119.953125 75.445312 116.824219 C 79.964844 115.613281 84.300781 113.792969 88.320312 111.417969 C 88.984375 111.023438 89.84375 111.242188 90.238281 111.910156 C 90.628906 112.574219 90.410156 113.429688 89.746094 113.824219 C 85.503906 116.332031 80.9375 118.25 76.167969 119.527344 C 69.257812 121.378906 62.160156 121.84375 55.066406 120.902344 C 47.976562 119.964844 41.238281 117.667969 35.054688 114.078125 C 34.535156 113.777344 34.265625 113.179688 34.382812 112.59375 C 34.5 112.003906 34.976562 111.558594 35.570312 111.480469 L 42.113281 110.625 C 43.703125 110.417969 43.597656 108.984375 43.566406 108.699219 C 43.527344 108.414062 43.261719 107 41.675781 107.203125 L 26.210938 109.226562 C 25.648438 109.300781 25.171875 109.625 24.90625 110.125 C 24.640625 110.628906 24.628906 111.207031 24.882812 111.714844 C 24.898438 111.746094 24.914062 111.773438 24.925781 111.804688 L 30.820312 126.011719 C 31.078125 126.621094 31.492188 126.972656 32.054688 127.042969 C 32.71875 127.128906 33.460938 126.816406 33.867188 126.285156 C 34.210938 125.835938 34.257812 125.296875 34 124.679688 L 31.644531 119.003906 C 31.417969 118.453125 31.5625 117.8125 32.011719 117.417969 C 32.460938 117.023438 33.109375 116.957031 33.632812 117.253906 C 46.890625 124.828125 62.316406 126.824219 77.066406 122.871094 C 82.71875 121.355469 88.089844 119.003906 93.023438 115.875 C 93.675781 115.464844 94.539062 115.65625 94.953125 116.308594 C 95.367188 116.960938 95.171875 117.824219 94.519531 118.238281 C 89.347656 121.515625 83.71875 123.984375 77.789062 125.574219 C 63.59375 129.375 48.804688 127.925781 35.71875 121.523438 L 36.582031 123.605469 C 37.101562 124.847656 37.085938 126.148438 36.535156 127.265625 C 36.054688 128.246094 35.203125 129.03125 34.136719 129.476562 C 33.53125 129.726562 32.898438 129.855469 32.28125 129.855469 Z M 32.28125 129.855469 " fill-opacity="1" fill-rule="evenodd"/></g><path fill="#0172ad" d="M 25.132812 96.875 L 53.527344 96.875 L 53.527344 91.5625 C 53.527344 88.636719 51.144531 86.253906 48.214844 86.253906 L 44.582031 86.253906 C 43.082031 87.414062 41.238281 88.046875 39.332031 88.046875 C 37.421875 88.046875 35.578125 87.414062 34.078125 86.253906 L 30.445312 86.253906 C 27.515625 86.253906 25.132812 88.636719 25.132812 91.5625 Z M 54.925781 99.671875 L 23.734375 99.671875 C 22.960938 99.671875 22.335938 99.046875 22.335938 98.273438 L 22.335938 91.5625 C 22.335938 87.09375 25.972656 83.457031 30.445312 83.457031 L 34.578125 83.457031 C 34.921875 83.457031 35.246094 83.582031 35.503906 83.804688 C 36.558594 84.734375 37.921875 85.246094 39.332031 85.246094 C 40.738281 85.246094 42.097656 84.734375 43.15625 83.804688 C 43.414062 83.578125 43.738281 83.457031 44.082031 83.457031 L 48.214844 83.457031 C 52.6875 83.457031 56.324219 87.09375 56.324219 91.5625 L 56.324219 98.273438 C 56.324219 99.046875 55.699219 99.671875 54.925781 99.671875 Z M 54.925781 99.671875 " fill-opacity="1" fill-rule="evenodd"/><path fill="#0172ad" d="M 39.332031 67.371094 C 36.132812 67.371094 33.53125 69.972656 33.53125 73.167969 C 33.53125 76.367188 36.132812 78.964844 39.332031 78.964844 C 42.527344 78.964844 45.125 76.367188 45.125 73.167969 C 45.128906 69.972656 42.527344 67.371094 39.332031 67.371094 Z M 39.332031 81.761719 C 34.589844 81.761719 30.734375 77.910156 30.734375 73.167969 C 30.734375 68.429688 34.589844 64.574219 39.332031 64.574219 C 44.070312 64.574219 47.921875 68.429688 47.921875 73.167969 C 47.921875 77.910156 44.070312 81.761719 39.332031 81.761719 Z M 39.332031 81.761719 " fill-opacity="1" fill-rule="evenodd"/><path fill="#0172ad" d="M 70.820312 64.238281 L 99.214844 64.238281 L 99.214844 58.929688 C 99.214844 56 96.832031 53.617188 93.902344 53.617188 L 90.269531 53.617188 C 88.769531 54.777344 86.925781 55.410156 85.019531 55.410156 C 83.109375 55.410156 81.265625 54.777344 79.765625 53.617188 L 76.132812 53.617188 C 73.203125 53.617188 70.820312 56 70.820312 58.929688 Z M 100.613281 67.035156 L 69.421875 67.035156 C 68.648438 67.035156 68.023438 66.410156 68.023438 65.640625 L 68.023438 58.929688 C 68.023438 54.457031 71.660156 50.820312 76.132812 50.820312 L 80.265625 50.820312 C 80.609375 50.820312 80.9375 50.945312 81.191406 51.171875 C 82.25 52.101562 83.609375 52.613281 85.019531 52.613281 C 86.425781 52.613281 87.785156 52.101562 88.84375 51.171875 C 89.101562 50.945312 89.425781 50.820312 89.769531 50.820312 L 93.902344 50.820312 C 98.375 50.820312 102.011719 54.457031 102.011719 58.929688 L 102.011719 65.640625 C 102.011719 66.410156 101.386719 67.039062 100.613281 67.035156 Z M 100.613281 67.035156 " fill-opacity="1" fill-rule="evenodd"/><path fill="#0172ad" d="M 85.019531 34.738281 C 81.824219 34.738281 79.222656 37.339844 79.222656 40.535156 C 79.222656 43.730469 81.824219 46.332031 85.019531 46.332031 C 88.214844 46.332031 90.816406 43.730469 90.816406 40.535156 C 90.816406 37.339844 88.214844 34.738281 85.019531 34.738281 Z M 85.019531 49.128906 C 80.28125 49.128906 76.425781 45.273438 76.425781 40.535156 C 76.425781 35.796875 80.277344 31.941406 85.019531 31.941406 C 89.757812 31.941406 93.613281 35.796875 93.613281 40.535156 C 93.613281 45.273438 89.757812 49.128906 85.019531 49.128906 Z M 85.019531 49.128906 " fill-opacity="1" fill-rule="evenodd"/><path fill="#0172ad" d="M 21.074219 39.640625 C 18.609375 39.640625 16.308594 38.507812 15.070312 36.679688 C 14.640625 36.039062 14.804688 35.171875 15.445312 34.738281 C 16.082031 34.304688 16.953125 34.472656 17.386719 35.109375 C 18.113281 36.179688 19.527344 36.84375 21.074219 36.84375 C 23.359375 36.84375 25.222656 35.414062 25.222656 33.652344 C 25.222656 32.207031 23.660156 30.550781 21.566406 30.496094 C 17.789062 30.398438 14.832031 27.765625 14.832031 24.507812 C 14.832031 21.207031 17.945312 18.519531 21.777344 18.519531 C 24.242188 18.519531 26.542969 19.65625 27.78125 21.480469 C 28.210938 22.121094 28.046875 22.992188 27.40625 23.425781 C 26.769531 23.859375 25.898438 23.691406 25.464844 23.050781 C 24.738281 21.980469 23.324219 21.316406 21.777344 21.316406 C 19.492188 21.316406 17.628906 22.75 17.628906 24.507812 C 17.628906 26.210938 19.425781 27.640625 21.636719 27.699219 C 25.097656 27.789062 28.019531 30.515625 28.019531 33.652344 C 28.019531 36.957031 24.90625 39.640625 21.074219 39.640625 Z M 21.074219 39.640625 " fill-opacity="1" fill-rule="evenodd"/><path fill="#0172ad" d="M 21.425781 42.65625 C 20.652344 42.65625 20.027344 42.03125 20.027344 41.257812 L 20.027344 16.902344 C 20.027344 16.128906 20.652344 15.503906 21.425781 15.503906 C 22.199219 15.503906 22.824219 16.132812 22.824219 16.902344 L 22.824219 41.257812 C 22.824219 42.03125 22.199219 42.65625 21.425781 42.65625 Z M 21.425781 42.65625 " fill-opacity="1" fill-rule="evenodd"/><path fill="#0172ad" d="M 21.425781 13.3125 C 12.730469 13.3125 5.65625 20.386719 5.65625 29.082031 C 5.65625 37.773438 12.730469 44.847656 21.425781 44.847656 C 30.121094 44.847656 37.195312 37.777344 37.195312 29.082031 C 37.195312 20.386719 30.121094 13.3125 21.425781 13.3125 Z M 21.425781 47.644531 C 11.191406 47.644531 2.863281 39.316406 2.863281 29.082031 C 2.863281 18.84375 11.191406 10.515625 21.425781 10.515625 C 31.664062 10.515625 39.988281 18.84375 39.988281 29.082031 C 39.988281 39.316406 31.660156 47.644531 21.425781 47.644531 Z M 21.425781 47.644531 " fill-opacity="1" fill-rule="evenodd"/><path fill="#0172ad" d="M 102.570312 113.09375 C 100.105469 113.09375 97.804688 111.957031 96.566406 110.128906 C 96.136719 109.492188 96.300781 108.621094 96.9375 108.1875 C 97.578125 107.753906 98.449219 107.921875 98.882812 108.5625 C 99.609375 109.628906 101.019531 110.296875 102.570312 110.296875 C 104.855469 110.296875 106.71875 108.863281 106.71875 107.105469 C 106.71875 105.65625 105.15625 104 103.0625 103.945312 C 99.285156 103.847656 96.328125 101.21875 96.328125 97.960938 C 96.328125 94.65625 99.441406 91.972656 103.273438 91.972656 C 105.734375 91.96875 108.039062 93.105469 109.277344 94.933594 C 109.710938 95.570312 109.542969 96.441406 108.902344 96.875 C 108.265625 97.308594 107.394531 97.140625 106.960938 96.503906 C 106.234375 95.433594 104.820312 94.769531 103.273438 94.769531 C 100.988281 94.769531 99.125 96.199219 99.125 97.960938 C 99.125 99.660156 100.921875 101.09375 103.132812 101.148438 C 106.59375 101.238281 109.515625 103.964844 109.515625 107.105469 C 109.515625 110.40625 106.398438 113.09375 102.570312 113.09375 Z M 102.570312 113.09375 " fill-opacity="1" fill-rule="evenodd"/><path fill="#0172ad" d="M 102.921875 116.109375 C 102.148438 116.109375 101.523438 115.480469 101.523438 114.710938 L 101.523438 90.355469 C 101.523438 89.582031 102.148438 88.957031 102.921875 88.957031 C 103.695312 88.957031 104.320312 89.582031 104.320312 90.355469 L 104.320312 114.710938 C 104.320312 115.480469 103.695312 116.109375 102.921875 116.109375 Z M 102.921875 116.109375 " fill-opacity="1" fill-rule="evenodd"/><path fill="#0172ad" d="M 102.921875 86.765625 C 94.226562 86.765625 87.15625 93.835938 87.15625 102.53125 C 87.15625 111.226562 94.226562 118.300781 102.921875 118.300781 C 111.617188 118.300781 118.691406 111.226562 118.691406 102.53125 C 118.691406 93.835938 111.617188 86.765625 102.921875 86.765625 Z M 102.921875 121.097656 C 92.683594 121.097656 84.359375 112.769531 84.359375 102.53125 C 84.359375 92.292969 92.683594 83.964844 102.921875 83.964844 C 113.15625 83.964844 121.488281 92.292969 121.488281 102.53125 C 121.488281 112.769531 113.15625 121.097656 102.921875 121.097656 Z M 102.921875 121.097656 " fill-opacity="1" fill-rule="evenodd"/><g clip-path="url(#9492e6aaa9)"><path fill="#0172ad" d="M 77.679688 29.109375 C 75.363281 29.109375 73.808594 27.398438 73.417969 25.46875 C 72.964844 23.269531 74.019531 20.730469 76.902344 20.144531 L 78.339844 19.847656 C 68.886719 16.710938 58.601562 16.386719 48.898438 18.984375 C 44.875 20.0625 40.988281 21.628906 37.347656 23.640625 C 36.671875 24.011719 35.820312 23.769531 35.445312 23.089844 C 35.074219 22.414062 35.320312 21.5625 35.996094 21.191406 C 39.835938 19.070312 43.933594 17.421875 48.175781 16.285156 C 60.011719 13.113281 72.683594 14.066406 83.859375 18.976562 C 84.417969 19.21875 84.75 19.796875 84.6875 20.402344 C 84.621094 21.007812 84.175781 21.503906 83.578125 21.625 L 77.460938 22.882812 C 75.890625 23.203125 76.097656 24.628906 76.15625 24.910156 C 76.214844 25.191406 76.578125 26.582031 78.148438 26.261719 L 93.425781 23.121094 C 93.980469 23.007812 94.429688 22.648438 94.65625 22.132812 C 94.890625 21.609375 94.855469 21.03125 94.566406 20.542969 C 94.550781 20.515625 94.535156 20.484375 94.519531 20.457031 L 87.609375 6.71875 C 86.886719 5.292969 85.570312 5.867188 85.3125 5.996094 C 85.058594 6.125 83.808594 6.847656 84.53125 8.277344 L 87.445312 14.066406 C 87.710938 14.59375 87.617188 15.230469 87.207031 15.660156 C 86.796875 16.085938 86.164062 16.210938 85.625 15.96875 C 73.636719 10.601562 60.019531 9.527344 47.28125 12.941406 C 42.449219 14.234375 37.800781 16.152344 33.46875 18.640625 C 32.796875 19.027344 31.941406 18.792969 31.558594 18.125 C 31.171875 17.453125 31.40625 16.601562 32.074219 16.214844 C 36.617188 13.605469 41.488281 11.597656 46.558594 10.238281 C 58.691406 6.988281 71.582031 7.621094 83.265625 11.980469 L 82.035156 9.535156 C 80.710938 6.910156 82.046875 4.511719 84.050781 3.5 C 86.054688 2.488281 88.78125 2.835938 90.105469 5.460938 L 96.996094 19.160156 C 97.71875 20.410156 97.804688 21.9375 97.214844 23.265625 C 96.617188 24.617188 95.4375 25.566406 93.984375 25.863281 L 78.710938 29.003906 C 78.351562 29.074219 78.007812 29.109375 77.679688 29.109375 Z M 115.96875 94.007812 C 115.78125 94.007812 115.585938 93.96875 115.398438 93.886719 C 114.691406 93.570312 114.378906 92.742188 114.695312 92.035156 C 120.085938 80.03125 121.171875 66.390625 117.753906 53.628906 C 115.585938 45.53125 111.601562 37.878906 106.238281 31.492188 C 106.019531 31.230469 105.847656 31.023438 105.261719 31.507812 C 104.222656 32.371094 103.832031 34.015625 104.066406 34.300781 C 108.929688 40.253906 112.410156 47.058594 114.410156 54.523438 C 117.46875 65.9375 116.683594 78.214844 112.191406 89.09375 C 111.898438 89.804688 111.078125 90.144531 110.367188 89.851562 C 109.652344 89.558594 109.3125 88.738281 109.605469 88.027344 C 113.863281 77.714844 114.609375 66.074219 111.710938 55.246094 C 109.8125 48.167969 106.511719 41.714844 101.898438 36.070312 C 100.414062 34.25 101.527344 30.96875 103.476562 29.355469 C 105.128906 27.984375 107.054688 28.117188 108.378906 29.695312 C 114.003906 36.386719 118.179688 44.414062 120.457031 52.902344 C 124.039062 66.289062 122.902344 80.59375 117.246094 93.183594 C 117.011719 93.699219 116.503906 94.007812 115.96875 94.007812 Z M 14.699219 103.636719 C 13.65625 103.636719 12.683594 103.082031 11.976562 102.023438 C 8.324219 96.539062 5.605469 90.523438 3.890625 84.136719 C 0.0976562 69.972656 1.574219 54.953125 8.046875 41.84375 C 8.394531 41.152344 9.230469 40.871094 9.921875 41.210938 C 10.617188 41.554688 10.902344 42.390625 10.558594 43.085938 C 4.382812 55.585938 2.976562 69.90625 6.59375 83.414062 C 8.226562 89.503906 10.820312 95.242188 14.304688 100.472656 C 14.621094 100.949219 14.746094 100.878906 15.019531 100.71875 C 16.121094 100.078125 16.855469 98.148438 16.625 97.6875 C 13.632812 93.007812 11.378906 87.902344 9.9375 82.515625 C 6.621094 70.144531 7.804688 56.976562 13.265625 45.4375 C 13.597656 44.738281 14.433594 44.441406 15.128906 44.769531 C 15.828125 45.101562 16.125 45.933594 15.796875 46.632812 C 10.617188 57.574219 9.492188 70.0625 12.636719 81.792969 C 14.007812 86.898438 16.140625 91.742188 18.980469 96.1875 C 20.246094 98.160156 18.714844 101.652344 16.621094 103.019531 C 15.984375 103.433594 15.332031 103.636719 14.699219 103.636719 Z M 32.28125 131.085938 C 31.800781 131.085938 31.324219 131.011719 30.871094 130.859375 C 29.691406 130.460938 28.757812 129.554688 28.238281 128.316406 L 22.359375 114.148438 C 21.730469 112.851562 21.757812 111.320312 22.4375 110.042969 C 23.136719 108.730469 24.378906 107.871094 25.851562 107.683594 L 41.316406 105.660156 C 44.230469 105.285156 46.050781 107.339844 46.339844 109.570312 C 46.628906 111.796875 45.390625 114.25 42.476562 114.628906 L 40.320312 114.910156 C 51.207031 120.019531 63.777344 121.183594 75.445312 118.054688 C 79.964844 116.84375 84.300781 115.023438 88.320312 112.644531 C 88.984375 112.253906 89.84375 112.472656 90.238281 113.136719 C 90.628906 113.804688 90.410156 114.660156 89.746094 115.054688 C 85.503906 117.5625 80.9375 119.480469 76.167969 120.757812 C 69.257812 122.609375 62.160156 123.074219 55.066406 122.132812 C 47.976562 121.195312 41.238281 118.898438 35.054688 115.308594 C 34.535156 115.007812 34.265625 114.410156 34.382812 113.824219 C 34.5 113.234375 34.976562 112.789062 35.570312 112.710938 L 42.113281 111.851562 C 43.703125 111.648438 43.597656 110.214844 43.566406 109.929688 C 43.527344 109.640625 43.261719 108.230469 41.675781 108.433594 L 26.210938 110.457031 C 25.648438 110.527344 25.171875 110.855469 24.90625 111.355469 C 24.640625 111.859375 24.628906 112.4375 24.882812 112.945312 C 24.898438 112.972656 24.914062 113.003906 24.925781 113.035156 L 30.820312 127.238281 C 31.078125 127.851562 31.492188 128.199219 32.054688 128.273438 C 32.71875 128.359375 33.460938 128.046875 33.867188 127.515625 C 34.210938 127.066406 34.257812 126.527344 34 125.910156 L 31.644531 120.230469 C 31.417969 119.679688 31.5625 119.042969 32.011719 118.648438 C 32.460938 118.25 33.109375 118.183594 33.632812 118.480469 C 46.890625 126.054688 62.316406 128.050781 77.066406 124.101562 C 82.71875 122.585938 88.089844 120.230469 93.023438 117.105469 C 93.675781 116.691406 94.539062 116.886719 94.953125 117.539062 C 95.367188 118.191406 95.171875 119.054688 94.519531 119.46875 C 89.347656 122.746094 83.71875 125.214844 77.789062 126.800781 C 63.59375 130.605469 48.804688 129.15625 35.71875 122.753906 L 36.582031 124.835938 C 37.101562 126.078125 37.085938 127.375 36.535156 128.496094 C 36.054688 129.476562 35.203125 130.261719 34.136719 130.707031 C 33.53125 130.957031 32.898438 131.085938 32.28125 131.085938 Z M 32.28125 131.085938 " fill-opacity="1" fill-rule="evenodd"/></g><path fill="#0172ad" d="M 25.132812 98.105469 L 53.527344 98.105469 L 53.527344 92.792969 C 53.527344 89.863281 51.144531 87.484375 48.214844 87.484375 L 44.582031 87.484375 C 43.082031 88.640625 41.238281 89.273438 39.332031 89.273438 C 37.421875 89.273438 35.578125 88.640625 34.078125 87.484375 L 30.445312 87.484375 C 27.515625 87.484375 25.132812 89.867188 25.132812 92.792969 Z M 54.925781 100.902344 L 23.734375 100.902344 C 22.960938 100.902344 22.335938 100.273438 22.335938 99.503906 L 22.335938 92.792969 C 22.335938 88.324219 25.972656 84.6875 30.445312 84.6875 L 34.578125 84.683594 C 34.921875 84.683594 35.246094 84.808594 35.503906 85.035156 C 36.558594 85.964844 37.921875 86.476562 39.332031 86.476562 C 40.738281 86.476562 42.097656 85.964844 43.15625 85.035156 C 43.414062 84.808594 43.738281 84.6875 44.082031 84.6875 L 48.214844 84.683594 C 52.6875 84.683594 56.324219 88.324219 56.324219 92.792969 L 56.324219 99.503906 C 56.324219 100.273438 55.699219 100.902344 54.925781 100.902344 Z M 54.925781 100.902344 " fill-opacity="1" fill-rule="evenodd"/><path fill="#0172ad" d="M 39.332031 68.601562 C 36.132812 68.601562 33.53125 71.203125 33.53125 74.398438 C 33.53125 77.59375 36.132812 80.195312 39.332031 80.195312 C 42.527344 80.195312 45.125 77.59375 45.125 74.398438 C 45.128906 71.203125 42.527344 68.601562 39.332031 68.601562 Z M 39.332031 82.992188 C 34.589844 82.992188 30.734375 79.136719 30.734375 74.398438 C 30.734375 69.660156 34.589844 65.804688 39.332031 65.804688 C 44.070312 65.804688 47.921875 69.660156 47.921875 74.398438 C 47.921875 79.136719 44.070312 82.992188 39.332031 82.992188 Z M 39.332031 82.992188 " fill-opacity="1" fill-rule="evenodd"/><path fill="#0172ad" d="M 70.820312 65.46875 L 99.214844 65.46875 L 99.214844 60.160156 C 99.214844 57.230469 96.832031 54.847656 93.902344 54.847656 L 90.269531 54.847656 C 88.769531 56.007812 86.925781 56.640625 85.019531 56.640625 C 83.109375 56.640625 81.265625 56.007812 79.765625 54.847656 L 76.132812 54.847656 C 73.203125 54.847656 70.820312 57.230469 70.820312 60.160156 Z M 100.613281 68.265625 L 69.421875 68.265625 C 68.648438 68.265625 68.023438 67.640625 68.023438 66.867188 L 68.023438 60.160156 C 68.023438 55.6875 71.660156 52.050781 76.132812 52.050781 L 80.265625 52.050781 C 80.609375 52.050781 80.9375 52.175781 81.191406 52.398438 C 82.25 53.332031 83.609375 53.84375 85.019531 53.84375 C 86.425781 53.84375 87.785156 53.332031 88.84375 52.398438 C 89.101562 52.175781 89.425781 52.050781 89.769531 52.050781 L 93.902344 52.050781 C 98.375 52.050781 102.011719 55.6875 102.011719 60.160156 L 102.011719 66.867188 C 102.011719 67.640625 101.386719 68.265625 100.613281 68.265625 Z M 100.613281 68.265625 " fill-opacity="1" fill-rule="evenodd"/><path fill="#0172ad" d="M 85.019531 35.96875 C 81.824219 35.96875 79.222656 38.570312 79.222656 41.765625 C 79.222656 44.960938 81.824219 47.5625 85.019531 47.5625 C 88.214844 47.5625 90.816406 44.960938 90.816406 41.765625 C 90.816406 38.570312 88.214844 35.96875 85.019531 35.96875 Z M 85.019531 50.359375 C 80.28125 50.359375 76.425781 46.503906 76.425781 41.765625 C 76.425781 37.027344 80.277344 33.171875 85.019531 33.171875 C 89.757812 33.171875 93.613281 37.027344 93.613281 41.765625 C 93.613281 46.503906 89.757812 50.359375 85.019531 50.359375 Z M 85.019531 50.359375 " fill-opacity="1" fill-rule="evenodd"/><path fill="#0172ad" d="M 21.074219 40.871094 C 18.609375 40.871094 16.308594 39.738281 15.070312 37.910156 C 14.640625 37.269531 14.804688 36.402344 15.445312 35.964844 C 16.082031 35.535156 16.953125 35.699219 17.386719 36.339844 C 18.113281 37.410156 19.527344 38.074219 21.074219 38.074219 C 23.359375 38.074219 25.222656 36.640625 25.222656 34.882812 C 25.222656 33.4375 23.660156 31.777344 21.566406 31.726562 C 17.789062 31.625 14.832031 28.996094 14.832031 25.738281 C 14.832031 22.4375 17.945312 19.75 21.777344 19.75 C 24.242188 19.75 26.542969 20.882812 27.78125 22.710938 C 28.210938 23.351562 28.046875 24.222656 27.40625 24.652344 C 26.769531 25.085938 25.898438 24.921875 25.464844 24.28125 C 24.738281 23.210938 23.324219 22.546875 21.777344 22.546875 C 19.492188 22.546875 17.628906 23.980469 17.628906 25.738281 C 17.628906 27.441406 19.425781 28.871094 21.636719 28.929688 C 25.097656 29.015625 28.019531 31.746094 28.019531 34.882812 C 28.019531 38.183594 24.90625 40.871094 21.074219 40.871094 Z M 21.074219 40.871094 " fill-opacity="1" fill-rule="evenodd"/><path fill="#0172ad" d="M 21.425781 43.886719 C 20.652344 43.886719 20.027344 43.261719 20.027344 42.488281 L 20.027344 18.132812 C 20.027344 17.359375 20.652344 16.734375 21.425781 16.734375 C 22.199219 16.734375 22.824219 17.359375 22.824219 18.132812 L 22.824219 42.488281 C 22.824219 43.261719 22.199219 43.886719 21.425781 43.886719 Z M 21.425781 43.886719 " fill-opacity="1" fill-rule="evenodd"/><path fill="#0172ad" d="M 21.425781 14.542969 C 12.730469 14.542969 5.65625 21.617188 5.65625 30.3125 C 5.65625 39.003906 12.730469 46.078125 21.425781 46.078125 C 30.121094 46.078125 37.195312 39.003906 37.195312 30.3125 C 37.195312 21.617188 30.121094 14.542969 21.425781 14.542969 Z M 21.425781 48.875 C 11.191406 48.875 2.863281 40.546875 2.863281 30.3125 C 2.863281 20.074219 11.191406 11.746094 21.425781 11.746094 C 31.664062 11.746094 39.988281 20.074219 39.988281 30.3125 C 39.988281 40.546875 31.660156 48.875 21.425781 48.875 Z M 21.425781 48.875 " fill-opacity="1" fill-rule="evenodd"/><path fill="#0172ad" d="M 102.570312 114.324219 C 100.105469 114.324219 97.804688 113.1875 96.566406 111.359375 C 96.136719 110.722656 96.300781 109.851562 96.9375 109.417969 C 97.578125 108.984375 98.449219 109.152344 98.882812 109.789062 C 99.609375 110.859375 101.019531 111.523438 102.570312 111.523438 C 104.855469 111.523438 106.71875 110.09375 106.71875 108.332031 C 106.71875 106.886719 105.15625 105.230469 103.0625 105.175781 C 99.285156 105.078125 96.328125 102.449219 96.328125 99.191406 C 96.328125 95.886719 99.441406 93.199219 103.273438 93.199219 C 105.734375 93.199219 108.039062 94.335938 109.277344 96.164062 C 109.710938 96.800781 109.542969 97.671875 108.902344 98.105469 C 108.265625 98.539062 107.394531 98.371094 106.960938 97.730469 C 106.234375 96.660156 104.820312 95.996094 103.273438 95.996094 C 100.988281 95.996094 99.125 97.429688 99.125 99.191406 C 99.125 100.890625 100.921875 102.320312 103.132812 102.378906 C 106.59375 102.46875 109.515625 105.195312 109.515625 108.332031 C 109.515625 111.636719 106.398438 114.324219 102.570312 114.324219 Z M 102.570312 114.324219 " fill-opacity="1" fill-rule="evenodd"/><path fill="#0172ad" d="M 102.921875 117.335938 C 102.148438 117.335938 101.523438 116.710938 101.523438 115.9375 L 101.523438 91.585938 C 101.523438 90.8125 102.148438 90.1875 102.921875 90.1875 C 103.695312 90.183594 104.320312 90.8125 104.320312 91.585938 L 104.320312 115.9375 C 104.320312 116.710938 103.695312 117.339844 102.921875 117.335938 Z M 102.921875 117.335938 " fill-opacity="1" fill-rule="evenodd"/><path fill="#0172ad" d="M 102.921875 87.992188 C 94.226562 87.992188 87.15625 95.066406 87.15625 103.761719 C 87.15625 112.457031 94.226562 119.527344 102.921875 119.527344 C 111.617188 119.527344 118.691406 112.457031 118.691406 103.761719 C 118.691406 95.066406 111.617188 87.992188 102.921875 87.992188 Z M 102.921875 122.328125 C 92.683594 122.328125 84.359375 113.996094 84.359375 103.761719 C 84.359375 93.523438 92.683594 85.195312 102.921875 85.195312 C 113.15625 85.195312 121.488281 93.523438 121.488281 103.761719 C 121.488281 113.996094 113.15625 122.328125 102.921875 122.328125 Z M 102.921875 122.328125 " fill-opacity="1" fill-rule="evenodd"/></svg>