<svg width="156" height="156" viewBox="0 0 156 156" fill="none" xmlns="http://www.w3.org/2000/svg">
<circle cx="78" cy="78" r="78" fill="#65A500"/>
<path d="M100.245 92.175C106.238 93.1812 112.845 92.1313 117.482 89.025C123.651 84.9125 123.651 78.175 117.482 74.0625C112.801 70.9563 106.107 69.9063 100.113 70.9563M56.6258 92.175C50.632 93.1812 44.0258 92.1313 39.3883 89.025C33.2195 84.9125 33.2195 78.175 39.3883 74.0625C44.0695 70.9563 50.7633 69.9063 56.757 70.9563M104.751 60.325C104.475 60.2812 104.195 60.2812 103.92 60.325C101 60.2194 98.2355 58.9828 96.2108 56.8765C94.1861 54.7701 93.0597 51.9591 93.0695 49.0375C93.0695 42.7812 98.1008 37.75 104.357 37.75C107.351 37.75 110.222 38.9392 112.338 41.056C114.455 43.1728 115.645 46.0439 115.645 49.0375C115.637 51.9612 114.498 54.7686 112.468 56.8723C110.438 58.976 107.672 60.2132 104.751 60.325ZM52.1195 60.325C52.382 60.2812 52.6883 60.2812 52.9508 60.325C55.8705 60.2194 58.6348 58.9828 60.6595 56.8765C62.6842 54.7701 63.8106 51.9591 63.8008 49.0375C63.8008 42.7812 58.7695 37.75 52.5133 37.75C49.5196 37.75 46.6486 38.9392 44.5318 41.056C42.415 43.1728 41.2258 46.0439 41.2258 49.0375C41.2695 55.1625 46.082 60.1062 52.1195 60.325ZM78.5008 93.0063C78.2254 92.9625 77.9449 92.9625 77.6695 93.0063C74.7498 92.9007 71.9855 91.664 69.9608 89.5577C67.9361 87.4514 66.8097 84.6404 66.8195 81.7188C66.8195 75.4625 71.8508 70.4313 78.107 70.4313C81.1007 70.4313 83.9717 71.6205 86.0885 73.7373C88.2053 75.8541 89.3945 78.7251 89.3945 81.7188C89.3508 87.8438 84.5383 92.8313 78.5008 93.0063ZM65.7695 106.788C59.6008 110.9 59.6008 117.638 65.7695 121.75C72.7695 126.431 84.232 126.431 91.232 121.75C97.4008 117.638 97.4008 110.9 91.232 106.788C84.2758 102.15 72.7695 102.15 65.7695 106.788Z" stroke="white" stroke-width="2" stroke-linecap="round" stroke-linejoin="round"/>
</svg>
