<svg width="156" height="156" viewBox="0 0 156 156" fill="none" xmlns="http://www.w3.org/2000/svg">
<circle cx="78" cy="78" r="78" fill="#65A500"/>
<path d="M67 112.5H88C105.5 112.5 112.5 105.5 112.5 88V67C112.5 49.5 105.5 42.5 88 42.5H67C49.5 42.5 42.5 49.5 42.5 67V88C42.5 105.5 49.5 112.5 67 112.5Z" stroke="white" stroke-width="1.5" stroke-linecap="round" stroke-linejoin="round"/>
<path d="M60.0438 42.5V33.75M77.5 42.5V33.75M95 42.5V33.75M112.5 60H121.25M112.5 77.5H121.25M112.5 95H121.25M95 112.5V121.25M77.5438 112.5V121.25M60.0438 112.5V121.25M33.75 60H42.5M33.75 77.5H42.5M33.75 95H42.5M70.9375 99.375H84.0625C95 99.375 99.375 95 99.375 84.0625V70.9375C99.375 60 95 55.625 84.0625 55.625H70.9375C60 55.625 55.625 60 55.625 70.9375V84.0625C55.625 95 60 99.375 70.9375 99.375Z" stroke="white" stroke-width="1.5" stroke-linecap="round" stroke-linejoin="round"/>
</svg>
