<svg width="132" height="132" viewBox="0 0 132 132" fill="none" xmlns="http://www.w3.org/2000/svg">
<path d="M49.335 121H82.335C109.835 121 120.835 110 120.835 82.5V49.5C120.835 22 109.835 11 82.335 11H49.335C21.835 11 10.835 22 10.835 49.5V82.5C10.835 110 21.835 121 49.335 121Z" stroke="black" stroke-width="1.5" stroke-linecap="round" stroke-linejoin="round"/>
<path d="M10.835 69.8501L43.835 69.7401C47.96 69.7401 52.58 72.8751 54.12 76.7251L60.39 92.5651C61.82 96.1401 64.075 96.1401 65.505 92.5651L78.1 60.6101C79.31 57.5301 81.565 57.4201 83.105 60.3351L88.825 71.1701C90.53 74.4151 94.93 77.0551 98.56 77.0551H120.89" stroke="black" stroke-width="1.5" stroke-linecap="round" stroke-linejoin="round"/>
</svg>
