<svg width="157" height="156" viewBox="0 0 157 156" fill="none" xmlns="http://www.w3.org/2000/svg">
<circle cx="78.5" cy="78" r="78" fill="#65A500"/>
<path d="M112.861 72.2V58.48C112.861 53.56 109.101 48.12 104.501 46.4L84.5406 38.92C81.2206 37.68 75.7806 37.68 72.4606 38.92L52.5006 46.44C47.9006 48.16 44.1406 53.6 44.1406 58.48V88.2C44.1406 92.92 47.2606 99.12 51.0606 101.96L68.2606 114.8C71.0606 116.96 74.7806 118 78.5006 118" stroke="white" stroke-width="2" stroke-linecap="round" stroke-linejoin="round"/>
<path d="M94.5 110C98.7435 110 102.813 108.314 105.814 105.314C108.814 102.313 110.5 98.2435 110.5 94C110.5 89.7565 108.814 85.6869 105.814 82.6863C102.813 79.6857 98.7435 78 94.5 78C90.2565 78 86.1869 79.6857 83.1863 82.6863C80.1857 85.6869 78.5 89.7565 78.5 94C78.5 98.2435 80.1857 102.313 83.1863 105.314C86.1869 108.314 90.2565 110 94.5 110Z" stroke="white" stroke-width="2" stroke-linecap="round" stroke-linejoin="round"/>
<path d="M114.48 114H114.52" stroke="white" stroke-width="2" stroke-linecap="round" stroke-linejoin="round"/>
</svg>
