<svg width="11" height="11" viewBox="0 0 11 11" fill="none" xmlns="http://www.w3.org/2000/svg">
<path d="M1.37502 5.9585H8.5186L6.09265 8.38445C6.04931 8.42684 6.01481 8.47741 5.99114 8.53322C5.96748 8.58903 5.95513 8.64898 5.95479 8.7096C5.95446 8.77022 5.96615 8.8303 5.9892 8.88637C6.01225 8.94244 6.04619 8.99338 6.08906 9.03624C6.13193 9.0791 6.18287 9.11304 6.23894 9.13607C6.29502 9.15911 6.3551 9.17079 6.41572 9.17045C6.47634 9.1701 6.53629 9.15774 6.5921 9.13407C6.64791 9.11039 6.69846 9.07588 6.74084 9.03254L9.94918 5.8242C10.0351 5.73825 10.0834 5.6217 10.0834 5.50016C10.0834 5.37863 10.0351 5.26207 9.94918 5.17612L6.74084 1.96779C6.69832 1.92516 6.64779 1.89134 6.59216 1.8683C6.53654 1.84525 6.4769 1.83343 6.41669 1.8335C6.32605 1.83352 6.23746 1.86041 6.1621 1.91077C6.08675 1.96113 6.02802 2.03271 5.99333 2.11645C5.95865 2.20018 5.94958 2.29232 5.96725 2.38122C5.98493 2.47011 6.02857 2.55177 6.09265 2.61587L8.5186 5.04183H1.37502C1.25346 5.04183 1.13688 5.09012 1.05093 5.17607C0.964976 5.26203 0.916687 5.37861 0.916687 5.50016C0.916687 5.62172 0.964976 5.7383 1.05093 5.82425C1.13688 5.91021 1.25346 5.9585 1.37502 5.9585Z" fill="#65A500"/>
</svg>
