<svg width="133" height="132" viewBox="0 0 133 132" fill="none" xmlns="http://www.w3.org/2000/svg">
<path d="M93.78 33.935C104.78 41.58 112.37 53.735 113.91 67.76M19.695 68.035C20.3865 61.3095 22.5116 54.8103 25.9271 48.9755C29.3426 43.1406 33.9692 38.1057 39.495 34.21M45.545 115.17C51.925 118.415 59.185 120.23 66.83 120.23C74.2 120.23 81.13 118.58 87.345 115.555M66.83 42.35C70.8852 42.35 74.7743 40.7391 77.6417 37.8717C80.5091 35.0043 82.12 31.1152 82.12 27.06C82.12 23.0049 80.5091 19.1158 77.6417 16.2484C74.7743 13.3809 70.8852 11.77 66.83 11.77C62.7749 11.77 58.8858 13.3809 56.0184 16.2484C53.1509 19.1158 51.54 23.0049 51.54 27.06C51.54 31.1152 53.1509 35.0043 56.0184 37.8717C58.8858 40.7391 62.7749 42.35 66.83 42.35ZM27.065 109.56C31.1202 109.56 35.0093 107.949 37.8767 105.082C40.7441 102.214 42.355 98.3252 42.355 94.27C42.355 90.2149 40.7441 86.3258 37.8767 83.4584C35.0093 80.5909 31.1202 78.98 27.065 78.98C23.0099 78.98 19.1208 80.5909 16.2534 83.4584C13.3859 86.3258 11.775 90.2149 11.775 94.27C11.775 98.3252 13.3859 102.214 16.2534 105.082C19.1208 107.949 23.0099 109.56 27.065 109.56ZM105.935 109.56C109.99 109.56 113.879 107.949 116.747 105.082C119.614 102.214 121.225 98.3252 121.225 94.27C121.225 90.2149 119.614 86.3258 116.747 83.4584C113.879 80.5909 109.99 78.98 105.935 78.98C101.88 78.98 97.9908 80.5909 95.1234 83.4584C92.2559 86.3258 90.645 90.2149 90.645 94.27C90.645 98.3252 92.2559 102.214 95.1234 105.082C97.9908 107.949 101.88 109.56 105.935 109.56Z" stroke="black" stroke-width="1.5" stroke-linecap="round" stroke-linejoin="round"/>
</svg>
