<svg width="132" height="133" viewBox="0 0 132 133" fill="none" xmlns="http://www.w3.org/2000/svg">
<path d="M71.5 50H38.5M121 60.835V72.165C121 75.19 118.58 77.665 115.5 77.775H104.72C98.78 77.775 93.335 73.43 92.84 67.49C92.51 64.025 93.83 60.78 96.14 58.525C98.175 56.435 100.98 55.225 104.06 55.225H115.5C118.58 55.335 121 57.81 121 60.835Z" stroke="black" stroke-width="1.5" stroke-linecap="round" stroke-linejoin="round"/>
<path d="M96.14 58.525C93.83 60.78 92.51 64.025 92.84 67.49C93.335 73.43 98.78 77.775 104.72 77.775H115.5V85.75C115.5 102.25 104.5 113.25 88 113.25H38.5C22 113.25 11 102.25 11 85.75V47.25C11 32.29 20.02 21.84 34.045 20.08C35.475 19.86 36.96 19.75 38.5 19.75H88C89.43 19.75 90.805 19.805 92.125 20.025C106.315 21.675 115.5 32.18 115.5 47.25V55.225H104.06C100.98 55.225 98.175 56.435 96.14 58.525Z" stroke="black" stroke-width="1.5" stroke-linecap="round" stroke-linejoin="round"/>
</svg>
