<svg width="21" height="21" viewBox="0 0 21 21" fill="none" xmlns="http://www.w3.org/2000/svg">
<path d="M12.0173 19.089C14.3049 17.0756 18.375 12.9622 18.375 9.1875C18.375 7.09892 17.5453 5.09588 16.0685 3.61903C14.5916 2.14218 12.5886 1.3125 10.5 1.3125C8.41142 1.3125 6.40838 2.14218 4.93153 3.61903C3.45469 5.09588 2.625 7.09892 2.625 9.1875C2.625 12.9622 6.69375 17.0756 8.98275 19.089C9.40027 19.4617 9.94035 19.6676 10.5 19.6676C11.0597 19.6676 11.5997 19.4617 12.0173 19.089ZM7.875 9.1875C7.875 8.49131 8.15156 7.82363 8.64384 7.33134C9.13613 6.83906 9.80381 6.5625 10.5 6.5625C11.1962 6.5625 11.8639 6.83906 12.3562 7.33134C12.8484 7.82363 13.125 8.49131 13.125 9.1875C13.125 9.88369 12.8484 10.5514 12.3562 11.0437C11.8639 11.5359 11.1962 11.8125 10.5 11.8125C9.80381 11.8125 9.13613 11.5359 8.64384 11.0437C8.15156 10.5514 7.875 9.88369 7.875 9.1875Z" fill="white"/>
</svg>
