<svg width="106" height="106" viewBox="0 0 106 106" fill="none" xmlns="http://www.w3.org/2000/svg">
<path d="M63.7766 84.1381L70.4899 90.8515L83.9166 77.4248M52.9558 96.3281C44.9174 96.3281 36.9233 94.2965 30.8283 90.2331C20.1399 83.0781 20.1399 71.4182 30.8283 64.3073C42.9741 56.1807 62.8933 56.1807 75.0391 64.3073M53.7066 48.0098C53.2649 47.9656 52.7349 47.9656 52.2491 48.0098C47.1797 47.8377 42.3763 45.6992 38.8561 42.0471C35.336 38.3951 33.3755 33.5163 33.3899 28.444C33.383 25.8705 33.884 23.321 34.8642 20.9415C35.8445 18.5621 37.2847 16.3995 39.1024 14.5777C40.9201 12.7559 43.0794 11.3108 45.4566 10.3252C47.8339 9.33956 50.3823 8.83281 52.9558 8.83399C63.7766 8.83399 72.5658 17.6232 72.5658 28.444C72.5658 39.044 64.1741 47.6565 53.7066 48.0098Z" stroke="black" stroke-width="1.5" stroke-linecap="round" stroke-linejoin="round"/>
</svg>
