<svg width="27" height="27" viewBox="0 0 27 27" fill="none" xmlns="http://www.w3.org/2000/svg">
<path d="M24.4404 0.583188H2.55958C2.31362 0.579772 2.06939 0.624841 1.84085 0.715822C1.61231 0.806802 1.40393 0.941911 1.22761 1.11343C1.05129 1.28496 0.910483 1.48953 0.813234 1.71548C0.715985 1.94142 0.664197 2.18431 0.660828 2.43027V24.5694C0.664197 24.8154 0.715985 25.0583 0.813234 25.2842C0.910483 25.5102 1.05129 25.7148 1.22761 25.8863C1.40393 26.0578 1.61231 26.1929 1.84085 26.2839C2.06939 26.3749 2.31362 26.4199 2.55958 26.4165H24.4404C24.6864 26.4199 24.9306 26.3749 25.1591 26.2839C25.3877 26.1929 25.5961 26.0578 25.7724 25.8863C25.9487 25.7148 26.0895 25.5102 26.1868 25.2842C26.284 25.0583 26.3358 24.8154 26.3392 24.5694V2.43027C26.3358 2.18431 26.284 1.94142 26.1868 1.71548C26.0895 1.48953 25.9487 1.28496 25.7724 1.11343C25.5961 0.941911 25.3877 0.806802 25.1591 0.715822C24.9306 0.624841 24.6864 0.579772 24.4404 0.583188ZM8.44958 22.2057H4.57458V10.5807H8.44958V22.2057ZM6.51208 8.95319C5.97767 8.95319 5.46514 8.74089 5.08726 8.36301C4.70937 7.98512 4.49708 7.4726 4.49708 6.93819C4.49708 6.40378 4.70937 5.89125 5.08726 5.51337C5.46514 5.13548 5.97767 4.92319 6.51208 4.92319C6.79585 4.89101 7.08322 4.91913 7.35538 5.0057C7.62753 5.09228 7.87832 5.23537 8.09134 5.4256C8.30436 5.61582 8.4748 5.8489 8.5915 6.10956C8.70819 6.37022 8.76851 6.6526 8.76851 6.93819C8.76851 7.22378 8.70819 7.50615 8.5915 7.76682C8.4748 8.02748 8.30436 8.26055 8.09134 8.45078C7.87832 8.64101 7.62753 8.78409 7.35538 8.87067C7.08322 8.95725 6.79585 8.98537 6.51208 8.95319ZM22.4254 22.2057H18.5504V15.9669C18.5504 14.404 17.995 13.3836 16.5871 13.3836C16.1514 13.3868 15.7271 13.5235 15.3714 13.7752C15.0157 14.0269 14.7458 14.3816 14.5979 14.7915C14.4968 15.0951 14.453 15.4148 14.4687 15.7344V22.1928H10.5937C10.5937 22.1928 10.5937 11.6269 10.5937 10.5678H14.4687V12.2082C14.8208 11.5974 15.3328 11.0942 15.9496 10.7527C16.5664 10.4113 17.2646 10.2447 17.9692 10.2707C20.5525 10.2707 22.4254 11.9369 22.4254 15.5149V22.2057Z" fill="white"/>
</svg>
