<svg width="132" height="132" viewBox="0 0 132 132" fill="none" xmlns="http://www.w3.org/2000/svg">
<path d="M93.5 16.5H115.5M115.5 16.5V38.5M115.5 16.5L82.5 49.5M38.5 115.5H16.5M16.5 115.5V93.5M16.5 115.5L49.5 82.5M77.11 12.1C73.535 11.385 69.795 11 66 11C35.64 11 11 35.64 11 66C11 69.795 11.385 73.48 12.1 77M54.89 119.9C58.465 120.615 62.205 121 66 121C96.36 121 121 96.36 121 66C121 62.26 120.615 58.575 119.9 55" stroke="black" stroke-width="1.5" stroke-linecap="round" stroke-linejoin="round"/>
</svg>
