<svg width="157" height="156" viewBox="0 0 157 156" fill="none" xmlns="http://www.w3.org/2000/svg">
<circle cx="78.5" cy="78" r="78" fill="#65A500"/>
<path d="M110.437 59.6499V82.1811C110.437 95.6561 102.737 101.431 91.1874 101.431H52.7312C50.7625 101.431 48.8812 101.256 47.1312 100.862C46.0375 100.687 44.9875 100.381 44.025 100.031C37.4625 97.5811 33.4812 91.8936 33.4812 82.1811V59.6499C33.4812 46.1749 41.1812 40.3999 52.7312 40.3999H91.1874C100.987 40.3999 108.031 44.5562 109.912 54.0499C110.219 55.7999 110.437 57.5937 110.437 59.6499Z" stroke="white" stroke-width="1.5" stroke-miterlimit="10" stroke-linecap="round" stroke-linejoin="round"/>
<path d="M123.567 72.775V95.3063C123.567 108.781 115.867 114.556 104.317 114.556H65.8607C62.6232 114.556 59.692 114.119 57.1545 113.156C51.9482 111.231 48.4045 107.25 47.1357 100.863C48.8857 101.256 50.767 101.431 52.7357 101.431H91.192C102.742 101.431 110.442 95.6563 110.442 82.1813V59.65C110.442 57.5938 110.267 55.7563 109.917 54.05C118.229 55.8 123.567 61.6625 123.567 72.775Z" stroke="white" stroke-width="1.5" stroke-miterlimit="10" stroke-linecap="round" stroke-linejoin="round"/>
<path d="M46.9126 61.3125V80.5624M96.9713 61.3125V80.5624M71.9288 82.4875C74.9921 82.4875 77.9299 81.2706 80.0959 79.1045C82.262 76.9385 83.4788 74.0007 83.4788 70.9375C83.4788 67.8742 82.262 64.9364 80.0959 62.7704C77.9299 60.6043 74.9921 59.3875 71.9288 59.3875C68.8656 59.3875 65.9278 60.6043 63.7618 62.7704C61.5957 64.9364 60.3788 67.8742 60.3788 70.9375C60.3788 74.0007 61.5957 76.9385 63.7618 79.1045C65.9278 81.2706 68.8656 82.4875 71.9288 82.4875Z" stroke="white" stroke-width="1.5" stroke-miterlimit="10" stroke-linecap="round" stroke-linejoin="round"/>
</svg>
