<svg xmlns="http://www.w3.org/2000/svg" xmlns:xlink="http://www.w3.org/1999/xlink" width="204" zoomAndPan="magnify" viewBox="0 0 153 153.000002" height="204" preserveAspectRatio="xMidYMid meet" version="1.0"><defs><clipPath id="8c2e004f3c"><path d="M 98 0.421875 L 152.007812 0.421875 L 152.007812 89 L 98 89 Z M 98 0.421875 " clip-rule="nonzero"/></clipPath><clipPath id="c26758f8db"><path d="M 0.746094 83 L 89 83 L 89 151.683594 L 0.746094 151.683594 Z M 0.746094 83 " clip-rule="nonzero"/></clipPath><clipPath id="4fddcc8064"><path d="M 98 0.421875 L 152.007812 0.421875 L 152.007812 89 L 98 89 Z M 98 0.421875 " clip-rule="nonzero"/></clipPath><clipPath id="7361306495"><path d="M 0.746094 83 L 89 83 L 89 151.683594 L 0.746094 151.683594 Z M 0.746094 83 " clip-rule="nonzero"/></clipPath></defs><g clip-path="url(#8c2e004f3c)"><path fill="#65a500" d="M 142.476562 0.421875 L 108.265625 0.421875 C 107.625 0.421875 106.988281 0.484375 106.359375 0.609375 C 105.730469 0.734375 105.117188 0.917969 104.527344 1.164062 C 103.933594 1.410156 103.371094 1.710938 102.835938 2.066406 C 102.300781 2.425781 101.808594 2.828125 101.355469 3.285156 C 100.902344 3.738281 100.496094 4.230469 100.140625 4.765625 C 99.78125 5.296875 99.480469 5.863281 99.234375 6.453125 C 98.988281 7.046875 98.804688 7.660156 98.679688 8.289062 C 98.554688 8.917969 98.492188 9.554688 98.492188 10.195312 L 98.492188 78.617188 C 98.492188 79.257812 98.554688 79.894531 98.679688 80.523438 C 98.804688 81.152344 98.988281 81.765625 99.234375 82.359375 C 99.480469 82.949219 99.78125 83.515625 100.140625 84.046875 C 100.496094 84.582031 100.902344 85.074219 101.355469 85.527344 C 101.808594 85.984375 102.300781 86.386719 102.835938 86.746094 C 103.371094 87.101562 103.933594 87.402344 104.527344 87.648438 C 105.117188 87.894531 105.730469 88.078125 106.359375 88.203125 C 106.988281 88.328125 107.625 88.390625 108.265625 88.390625 L 142.476562 88.390625 C 143.117188 88.390625 143.753906 88.328125 144.382812 88.203125 C 145.011719 88.078125 145.625 87.894531 146.21875 87.648438 C 146.8125 87.402344 147.375 87.101562 147.90625 86.746094 C 148.441406 86.386719 148.933594 85.984375 149.390625 85.527344 C 149.84375 85.074219 150.246094 84.582031 150.605469 84.046875 C 150.960938 83.515625 151.261719 82.949219 151.507812 82.359375 C 151.753906 81.765625 151.9375 81.152344 152.0625 80.523438 C 152.1875 79.894531 152.25 79.257812 152.25 78.617188 L 152.25 10.195312 C 152.25 9.554688 152.1875 8.917969 152.0625 8.289062 C 151.9375 7.660156 151.753906 7.046875 151.507812 6.453125 C 151.261719 5.863281 150.960938 5.296875 150.605469 4.765625 C 150.246094 4.230469 149.84375 3.738281 149.390625 3.285156 C 148.933594 2.828125 148.441406 2.425781 147.90625 2.066406 C 147.375 1.710938 146.8125 1.410156 146.21875 1.164062 C 145.625 0.917969 145.011719 0.734375 144.382812 0.609375 C 143.753906 0.484375 143.117188 0.421875 142.476562 0.421875 Z M 133.5 5.308594 L 132.875 7.75 L 117.871094 7.75 L 117.242188 5.308594 Z M 147.363281 78.617188 C 147.363281 78.9375 147.332031 79.257812 147.269531 79.570312 C 147.207031 79.886719 147.117188 80.191406 146.992188 80.488281 C 146.871094 80.785156 146.71875 81.066406 146.539062 81.332031 C 146.363281 81.597656 146.160156 81.847656 145.933594 82.074219 C 145.707031 82.300781 145.460938 82.503906 145.191406 82.679688 C 144.925781 82.859375 144.644531 83.007812 144.347656 83.132812 C 144.050781 83.253906 143.746094 83.347656 143.429688 83.410156 C 143.117188 83.472656 142.796875 83.503906 142.476562 83.503906 L 108.265625 83.503906 C 107.945312 83.503906 107.628906 83.472656 107.3125 83.410156 C 106.996094 83.347656 106.691406 83.253906 106.394531 83.132812 C 106.097656 83.007812 105.816406 82.859375 105.550781 82.679688 C 105.285156 82.503906 105.039062 82.300781 104.808594 82.074219 C 104.582031 81.847656 104.378906 81.597656 104.203125 81.332031 C 104.023438 81.066406 103.875 80.785156 103.75 80.488281 C 103.628906 80.191406 103.535156 79.886719 103.472656 79.570312 C 103.410156 79.257812 103.378906 78.9375 103.378906 78.617188 L 103.378906 10.195312 C 103.378906 9.875 103.410156 9.554688 103.472656 9.242188 C 103.535156 8.925781 103.628906 8.621094 103.75 8.324219 C 103.875 8.027344 104.023438 7.746094 104.203125 7.480469 C 104.382812 7.214844 104.582031 6.964844 104.808594 6.738281 C 105.039062 6.511719 105.285156 6.308594 105.550781 6.132812 C 105.816406 5.953125 106.097656 5.804688 106.394531 5.679688 C 106.691406 5.558594 106.996094 5.464844 107.3125 5.402344 C 107.628906 5.339844 107.945312 5.308594 108.265625 5.308594 L 112.199219 5.308594 L 113.609375 10.804688 C 113.675781 11.066406 113.785156 11.3125 113.933594 11.539062 C 114.082031 11.761719 114.261719 11.960938 114.476562 12.125 C 114.691406 12.292969 114.925781 12.417969 115.183594 12.507812 C 115.4375 12.59375 115.703125 12.640625 115.972656 12.640625 L 134.769531 12.640625 C 135.039062 12.640625 135.304688 12.59375 135.5625 12.507812 C 135.816406 12.417969 136.050781 12.292969 136.265625 12.125 C 136.480469 11.960938 136.664062 11.761719 136.8125 11.539062 C 136.960938 11.3125 137.066406 11.066406 137.136719 10.804688 L 138.546875 5.308594 L 142.476562 5.308594 C 142.796875 5.308594 143.117188 5.339844 143.429688 5.402344 C 143.746094 5.464844 144.050781 5.558594 144.347656 5.679688 C 144.644531 5.804688 144.925781 5.953125 145.191406 6.132812 C 145.460938 6.308594 145.707031 6.511719 145.933594 6.738281 C 146.160156 6.964844 146.363281 7.214844 146.539062 7.480469 C 146.71875 7.746094 146.871094 8.027344 146.992188 8.324219 C 147.117188 8.621094 147.207031 8.925781 147.269531 9.242188 C 147.332031 9.554688 147.363281 9.875 147.363281 10.195312 Z M 147.363281 78.617188 " fill-opacity="1" fill-rule="nonzero"/></g><g clip-path="url(#c26758f8db)"><path fill="#65a500" d="M 3.191406 151.925781 L 86.273438 151.925781 C 86.480469 151.925781 86.6875 151.902344 86.890625 151.851562 C 87.09375 151.800781 87.285156 151.722656 87.46875 151.621094 C 87.652344 151.519531 87.816406 151.398438 87.96875 151.253906 C 88.121094 151.113281 88.25 150.949219 88.363281 150.773438 C 88.472656 150.597656 88.558594 150.40625 88.621094 150.207031 C 88.683594 150.007812 88.71875 149.804688 88.726562 149.597656 C 88.738281 149.386719 88.722656 149.179688 88.675781 148.976562 C 88.632812 148.773438 88.566406 148.578125 88.472656 148.390625 L 81.386719 134.246094 L 81.386719 85.949219 C 81.386719 85.625 81.324219 85.3125 81.199219 85.011719 C 81.074219 84.714844 80.898438 84.449219 80.671875 84.21875 C 80.441406 83.992188 80.175781 83.816406 79.878906 83.691406 C 79.578125 83.566406 79.265625 83.503906 78.941406 83.503906 L 10.519531 83.503906 C 10.195312 83.503906 9.882812 83.566406 9.585938 83.691406 C 9.285156 83.816406 9.023438 83.992188 8.792969 84.21875 C 8.5625 84.449219 8.386719 84.714844 8.261719 85.011719 C 8.140625 85.3125 8.078125 85.625 8.078125 85.949219 L 8.078125 134.246094 L 1.003906 148.390625 C 0.910156 148.578125 0.839844 148.773438 0.796875 148.976562 C 0.753906 149.179688 0.738281 149.386719 0.746094 149.59375 C 0.757812 149.800781 0.792969 150.003906 0.855469 150.203125 C 0.914062 150.402344 1 150.589844 1.109375 150.769531 C 1.21875 150.945312 1.351562 151.105469 1.5 151.25 C 1.652344 151.394531 1.816406 151.515625 2 151.617188 C 2.179688 151.71875 2.375 151.796875 2.574219 151.847656 C 2.777344 151.902344 2.980469 151.925781 3.191406 151.925781 Z M 12.964844 88.390625 L 76.5 88.390625 L 76.5 132.378906 L 12.964844 132.378906 Z M 12.03125 137.265625 L 77.433594 137.265625 L 82.320312 147.039062 L 7.144531 147.039062 Z M 12.03125 137.265625 " fill-opacity="1" fill-rule="nonzero"/></g><path fill="#65a500" d="M 127.816406 125.046875 L 132.703125 125.046875 L 132.703125 129.933594 L 127.816406 129.933594 Z M 127.816406 125.046875 " fill-opacity="1" fill-rule="nonzero"/><path fill="#65a500" d="M 118.039062 125.046875 L 122.929688 125.046875 L 122.929688 129.933594 L 118.039062 129.933594 Z M 118.039062 125.046875 " fill-opacity="1" fill-rule="nonzero"/><path fill="#65a500" d="M 108.265625 125.046875 L 113.152344 125.046875 L 113.152344 129.933594 L 108.265625 129.933594 Z M 108.265625 125.046875 " fill-opacity="1" fill-rule="nonzero"/><path fill="#65a500" d="M 98.492188 125.046875 L 103.378906 125.046875 L 103.378906 129.933594 L 98.492188 129.933594 Z M 98.492188 125.046875 " fill-opacity="1" fill-rule="nonzero"/><path fill="#65a500" d="M 27.625 61.511719 L 32.511719 61.511719 L 32.511719 66.398438 L 27.625 66.398438 Z M 27.625 61.511719 " fill-opacity="1" fill-rule="nonzero"/><path fill="#65a500" d="M 27.625 71.285156 L 32.511719 71.285156 L 32.511719 76.171875 L 27.625 76.171875 Z M 27.625 71.285156 " fill-opacity="1" fill-rule="nonzero"/><path fill="#65a500" d="M 27.625 51.738281 L 32.511719 51.738281 L 32.511719 56.625 L 27.625 56.625 Z M 27.625 51.738281 " fill-opacity="1" fill-rule="nonzero"/><path fill="#65a500" d="M 27.625 32.1875 L 32.511719 32.1875 L 32.511719 37.074219 L 27.625 37.074219 Z M 27.625 32.1875 " fill-opacity="1" fill-rule="nonzero"/><path fill="#65a500" d="M 27.625 41.960938 L 32.511719 41.960938 L 32.511719 46.851562 L 27.625 46.851562 Z M 27.625 41.960938 " fill-opacity="1" fill-rule="nonzero"/><path fill="#65a500" d="M 27.625 22.414062 L 32.511719 22.414062 L 32.511719 27.300781 L 27.625 27.300781 Z M 27.625 22.414062 " fill-opacity="1" fill-rule="nonzero"/><path fill="#65a500" d="M 76.5 22.414062 L 81.386719 22.414062 L 81.386719 27.300781 L 76.5 27.300781 Z M 76.5 22.414062 " fill-opacity="1" fill-rule="nonzero"/><path fill="#65a500" d="M 56.949219 22.414062 L 61.835938 22.414062 L 61.835938 27.300781 L 56.949219 27.300781 Z M 56.949219 22.414062 " fill-opacity="1" fill-rule="nonzero"/><path fill="#65a500" d="M 66.722656 22.414062 L 71.613281 22.414062 L 71.613281 27.300781 L 66.722656 27.300781 Z M 66.722656 22.414062 " fill-opacity="1" fill-rule="nonzero"/><path fill="#65a500" d="M 47.175781 22.414062 L 52.0625 22.414062 L 52.0625 27.300781 L 47.175781 27.300781 Z M 47.175781 22.414062 " fill-opacity="1" fill-rule="nonzero"/><path fill="#65a500" d="M 37.402344 22.414062 L 42.289062 22.414062 L 42.289062 27.300781 L 37.402344 27.300781 Z M 37.402344 22.414062 " fill-opacity="1" fill-rule="nonzero"/><path fill="#65a500" d="M 86.273438 22.414062 L 91.160156 22.414062 L 91.160156 27.300781 L 86.273438 27.300781 Z M 86.273438 22.414062 " fill-opacity="1" fill-rule="nonzero"/><path fill="#65a500" d="M 127.816406 115.273438 L 132.703125 115.273438 L 132.703125 120.160156 L 127.816406 120.160156 Z M 127.816406 115.273438 " fill-opacity="1" fill-rule="nonzero"/><path fill="#65a500" d="M 127.816406 105.496094 L 132.703125 105.496094 L 132.703125 110.382812 L 127.816406 110.382812 Z M 127.816406 105.496094 " fill-opacity="1" fill-rule="nonzero"/><path fill="#65a500" d="M 127.816406 95.722656 L 132.703125 95.722656 L 132.703125 100.609375 L 127.816406 100.609375 Z M 127.816406 95.722656 " fill-opacity="1" fill-rule="nonzero"/><path fill="#65a500" d="M 88.71875 125.046875 L 93.605469 125.046875 L 93.605469 129.933594 L 88.71875 129.933594 Z M 88.71875 125.046875 " fill-opacity="1" fill-rule="nonzero"/><path fill="#65a500" d="M 49.046875 112.464844 C 49.46875 111.824219 49.832031 111.148438 50.125 110.4375 C 50.421875 109.726562 50.648438 108.996094 50.804688 108.242188 C 50.960938 107.488281 51.046875 106.726562 51.058594 105.957031 C 51.074219 105.191406 51.011719 104.425781 50.882812 103.667969 C 50.75 102.910156 50.546875 102.171875 50.277344 101.453125 C 50.003906 100.730469 49.667969 100.042969 49.265625 99.386719 C 48.863281 98.730469 48.402344 98.117188 47.886719 97.550781 C 47.367188 96.980469 46.800781 96.464844 46.1875 96.003906 C 45.570312 95.542969 44.917969 95.144531 44.226562 94.804688 C 43.535156 94.46875 42.816406 94.195312 42.074219 93.996094 C 41.332031 93.792969 40.578125 93.660156 39.8125 93.601562 C 39.042969 93.542969 38.277344 93.554688 37.515625 93.640625 C 36.75 93.726562 36 93.882812 35.265625 94.113281 C 34.53125 94.339844 33.824219 94.632812 33.144531 94.996094 C 32.464844 95.359375 31.824219 95.78125 31.226562 96.261719 C 30.628906 96.746094 30.078125 97.28125 29.582031 97.867188 C 28.828125 98.753906 28.214844 99.730469 27.738281 100.792969 C 27.265625 101.855469 26.949219 102.964844 26.792969 104.117188 C 26.636719 105.273438 26.644531 106.425781 26.816406 107.574219 C 26.988281 108.726562 27.316406 109.832031 27.804688 110.886719 C 28.292969 111.945312 28.917969 112.914062 29.683594 113.792969 C 30.449219 114.667969 31.320312 115.421875 32.300781 116.050781 C 33.28125 116.679688 34.328125 117.160156 35.445312 117.488281 C 36.5625 117.816406 37.703125 117.984375 38.867188 117.988281 C 39.203125 117.988281 39.546875 117.972656 39.886719 117.945312 C 41.960938 117.761719 43.859375 117.085938 45.585938 115.925781 L 56.171875 126.511719 C 56.402344 126.742188 56.667969 126.917969 56.96875 127.042969 C 57.265625 127.167969 57.578125 127.226562 57.90625 127.226562 C 58.230469 127.226562 58.542969 127.164062 58.839844 127.042969 C 59.140625 126.917969 59.40625 126.738281 59.636719 126.511719 C 59.863281 126.28125 60.042969 126.015625 60.167969 125.714844 C 60.289062 125.417969 60.351562 125.105469 60.351562 124.78125 C 60.351562 124.453125 60.292969 124.140625 60.167969 123.84375 C 60.042969 123.542969 59.867188 123.277344 59.636719 123.046875 Z M 44.480469 110.511719 C 44.289062 110.742188 44.082031 110.957031 43.859375 111.160156 C 43.640625 111.363281 43.40625 111.554688 43.164062 111.726562 C 42.917969 111.902344 42.664062 112.0625 42.402344 112.207031 C 42.136719 112.347656 41.867188 112.476562 41.585938 112.585938 C 41.308594 112.695312 41.023438 112.789062 40.730469 112.863281 C 40.441406 112.941406 40.148438 112.996094 39.847656 113.035156 C 39.550781 113.074219 39.253906 113.097656 38.953125 113.097656 C 38.652344 113.101562 38.351562 113.085938 38.054688 113.050781 C 37.757812 113.015625 37.460938 112.964844 37.167969 112.894531 C 36.878906 112.824219 36.589844 112.734375 36.308594 112.628906 C 36.027344 112.523438 35.753906 112.402344 35.488281 112.261719 C 35.222656 112.121094 34.96875 111.96875 34.71875 111.796875 C 34.472656 111.625 34.238281 111.441406 34.015625 111.242188 C 33.789062 111.039062 33.578125 110.828125 33.382812 110.601562 C 33.183594 110.375 33 110.140625 32.832031 109.890625 C 32.660156 109.644531 32.507812 109.386719 32.371094 109.117188 C 32.234375 108.851562 32.113281 108.578125 32.011719 108.292969 C 31.90625 108.011719 31.820312 107.726562 31.753906 107.433594 C 31.683594 107.140625 31.636719 106.84375 31.601562 106.546875 C 31.570312 106.25 31.558594 105.949219 31.5625 105.648438 C 31.566406 105.347656 31.589844 105.050781 31.632812 104.753906 C 31.675781 104.457031 31.734375 104.160156 31.8125 103.871094 C 31.890625 103.582031 31.984375 103.296875 32.097656 103.019531 C 32.210938 102.742188 32.339844 102.46875 32.484375 102.207031 C 32.628906 101.945312 32.792969 101.691406 32.96875 101.449219 C 33.144531 101.207031 33.335938 100.976562 33.542969 100.757812 C 33.746094 100.539062 33.964844 100.332031 34.195312 100.140625 C 34.425781 99.949219 34.667969 99.769531 34.917969 99.609375 C 35.171875 99.445312 35.433594 99.296875 35.703125 99.167969 C 35.972656 99.035156 36.25 98.921875 36.535156 98.828125 C 36.820312 98.730469 37.109375 98.652344 37.402344 98.589844 C 37.695312 98.53125 37.992188 98.488281 38.292969 98.460938 C 38.496094 98.445312 38.699219 98.4375 38.90625 98.4375 C 39.605469 98.4375 40.289062 98.539062 40.960938 98.734375 C 41.632812 98.929688 42.261719 99.21875 42.851562 99.59375 C 43.4375 99.972656 43.964844 100.421875 44.421875 100.949219 C 44.882812 101.476562 45.257812 102.058594 45.550781 102.691406 C 45.84375 103.328125 46.042969 103.988281 46.148438 104.679688 C 46.25 105.371094 46.253906 106.066406 46.160156 106.757812 C 46.066406 107.449219 45.878906 108.117188 45.59375 108.753906 C 45.308594 109.394531 44.9375 109.980469 44.488281 110.511719 Z M 44.480469 110.511719 " fill-opacity="1" fill-rule="nonzero"/><path fill="#65a500" d="M 137.558594 34.015625 L 111.636719 42.65625 C 111.15625 42.816406 110.765625 43.101562 110.460938 43.503906 C 110.15625 43.910156 109.992188 44.367188 109.972656 44.871094 C 109.953125 45.378906 110.078125 45.847656 110.347656 46.277344 C 110.617188 46.703125 110.984375 47.019531 111.449219 47.21875 L 122.648438 52.019531 L 127.445312 63.222656 C 127.640625 63.671875 127.9375 64.03125 128.347656 64.300781 C 128.753906 64.570312 129.203125 64.703125 129.691406 64.703125 L 129.792969 64.703125 C 130.300781 64.683594 130.757812 64.519531 131.160156 64.214844 C 131.566406 63.910156 131.847656 63.515625 132.007812 63.035156 L 140.648438 37.117188 C 140.796875 36.679688 140.816406 36.234375 140.710938 35.78125 C 140.601562 35.332031 140.386719 34.941406 140.058594 34.617188 C 139.730469 34.289062 139.34375 34.070312 138.890625 33.964844 C 138.441406 33.859375 137.996094 33.878906 137.558594 34.027344 Z M 129.402344 55.382812 L 126.753906 49.195312 C 126.496094 48.597656 126.066406 48.167969 125.46875 47.914062 L 119.28125 45.257812 L 134.46875 40.199219 Z M 129.402344 55.382812 " fill-opacity="1" fill-rule="nonzero"/><g clip-path="url(#4fddcc8064)"><path fill="#65a500" d="M 142.476562 0.421875 L 108.265625 0.421875 C 107.625 0.421875 106.988281 0.484375 106.359375 0.609375 C 105.730469 0.734375 105.117188 0.917969 104.527344 1.164062 C 103.933594 1.410156 103.371094 1.710938 102.835938 2.066406 C 102.300781 2.425781 101.808594 2.828125 101.355469 3.285156 C 100.902344 3.738281 100.496094 4.230469 100.140625 4.765625 C 99.78125 5.296875 99.480469 5.863281 99.234375 6.453125 C 98.988281 7.046875 98.804688 7.660156 98.679688 8.289062 C 98.554688 8.917969 98.492188 9.554688 98.492188 10.195312 L 98.492188 78.617188 C 98.492188 79.257812 98.554688 79.894531 98.679688 80.523438 C 98.804688 81.152344 98.988281 81.765625 99.234375 82.359375 C 99.480469 82.949219 99.78125 83.515625 100.140625 84.046875 C 100.496094 84.582031 100.902344 85.074219 101.355469 85.527344 C 101.808594 85.984375 102.300781 86.386719 102.835938 86.746094 C 103.371094 87.101562 103.933594 87.402344 104.527344 87.648438 C 105.117188 87.894531 105.730469 88.078125 106.359375 88.203125 C 106.988281 88.328125 107.625 88.390625 108.265625 88.390625 L 142.476562 88.390625 C 143.117188 88.390625 143.753906 88.328125 144.382812 88.203125 C 145.011719 88.078125 145.625 87.894531 146.21875 87.648438 C 146.8125 87.402344 147.375 87.101562 147.90625 86.746094 C 148.441406 86.386719 148.933594 85.984375 149.390625 85.527344 C 149.84375 85.074219 150.246094 84.582031 150.605469 84.046875 C 150.960938 83.515625 151.261719 82.949219 151.507812 82.359375 C 151.753906 81.765625 151.9375 81.152344 152.0625 80.523438 C 152.1875 79.894531 152.25 79.257812 152.25 78.617188 L 152.25 10.195312 C 152.25 9.554688 152.1875 8.917969 152.0625 8.289062 C 151.9375 7.660156 151.753906 7.046875 151.507812 6.453125 C 151.261719 5.863281 150.960938 5.296875 150.605469 4.765625 C 150.246094 4.230469 149.84375 3.738281 149.390625 3.285156 C 148.933594 2.828125 148.441406 2.425781 147.90625 2.066406 C 147.375 1.710938 146.8125 1.410156 146.21875 1.164062 C 145.625 0.917969 145.011719 0.734375 144.382812 0.609375 C 143.753906 0.484375 143.117188 0.421875 142.476562 0.421875 Z M 133.5 5.308594 L 132.875 7.75 L 117.871094 7.75 L 117.242188 5.308594 Z M 147.363281 78.617188 C 147.363281 78.9375 147.332031 79.257812 147.269531 79.570312 C 147.207031 79.886719 147.117188 80.191406 146.992188 80.488281 C 146.871094 80.785156 146.71875 81.066406 146.539062 81.332031 C 146.363281 81.597656 146.160156 81.847656 145.933594 82.074219 C 145.707031 82.300781 145.460938 82.503906 145.191406 82.679688 C 144.925781 82.859375 144.644531 83.007812 144.347656 83.132812 C 144.050781 83.253906 143.746094 83.347656 143.429688 83.410156 C 143.117188 83.472656 142.796875 83.503906 142.476562 83.503906 L 108.265625 83.503906 C 107.945312 83.503906 107.628906 83.472656 107.3125 83.410156 C 106.996094 83.347656 106.691406 83.253906 106.394531 83.132812 C 106.097656 83.007812 105.816406 82.859375 105.550781 82.679688 C 105.285156 82.503906 105.039062 82.300781 104.808594 82.074219 C 104.582031 81.847656 104.378906 81.597656 104.203125 81.332031 C 104.023438 81.066406 103.875 80.785156 103.75 80.488281 C 103.628906 80.191406 103.535156 79.886719 103.472656 79.570312 C 103.410156 79.257812 103.378906 78.9375 103.378906 78.617188 L 103.378906 10.195312 C 103.378906 9.875 103.410156 9.554688 103.472656 9.242188 C 103.535156 8.925781 103.628906 8.621094 103.75 8.324219 C 103.875 8.027344 104.023438 7.746094 104.203125 7.480469 C 104.382812 7.214844 104.582031 6.964844 104.808594 6.738281 C 105.039062 6.511719 105.285156 6.308594 105.550781 6.132812 C 105.816406 5.953125 106.097656 5.804688 106.394531 5.679688 C 106.691406 5.558594 106.996094 5.464844 107.3125 5.402344 C 107.628906 5.339844 107.945312 5.308594 108.265625 5.308594 L 112.199219 5.308594 L 113.609375 10.804688 C 113.675781 11.066406 113.785156 11.3125 113.933594 11.539062 C 114.082031 11.761719 114.261719 11.960938 114.476562 12.125 C 114.691406 12.292969 114.925781 12.417969 115.183594 12.507812 C 115.4375 12.59375 115.703125 12.640625 115.972656 12.640625 L 134.769531 12.640625 C 135.039062 12.640625 135.304688 12.59375 135.5625 12.507812 C 135.816406 12.417969 136.050781 12.292969 136.265625 12.125 C 136.480469 11.960938 136.664062 11.761719 136.8125 11.539062 C 136.960938 11.3125 137.066406 11.066406 137.136719 10.804688 L 138.546875 5.308594 L 142.476562 5.308594 C 142.796875 5.308594 143.117188 5.339844 143.429688 5.402344 C 143.746094 5.464844 144.050781 5.558594 144.347656 5.679688 C 144.644531 5.804688 144.925781 5.953125 145.191406 6.132812 C 145.460938 6.308594 145.707031 6.511719 145.933594 6.738281 C 146.160156 6.964844 146.363281 7.214844 146.539062 7.480469 C 146.71875 7.746094 146.871094 8.027344 146.992188 8.324219 C 147.117188 8.621094 147.207031 8.925781 147.269531 9.242188 C 147.332031 9.554688 147.363281 9.875 147.363281 10.195312 Z M 147.363281 78.617188 " fill-opacity="1" fill-rule="nonzero"/></g><g clip-path="url(#7361306495)"><path fill="#65a500" d="M 3.191406 151.925781 L 86.273438 151.925781 C 86.480469 151.925781 86.6875 151.902344 86.890625 151.851562 C 87.09375 151.800781 87.285156 151.722656 87.46875 151.621094 C 87.652344 151.519531 87.816406 151.398438 87.96875 151.253906 C 88.121094 151.113281 88.25 150.949219 88.363281 150.773438 C 88.472656 150.597656 88.558594 150.40625 88.621094 150.207031 C 88.683594 150.007812 88.71875 149.804688 88.726562 149.597656 C 88.738281 149.386719 88.722656 149.179688 88.675781 148.976562 C 88.632812 148.773438 88.566406 148.578125 88.472656 148.390625 L 81.386719 134.246094 L 81.386719 85.949219 C 81.386719 85.625 81.324219 85.3125 81.199219 85.011719 C 81.074219 84.714844 80.898438 84.449219 80.671875 84.21875 C 80.441406 83.992188 80.175781 83.816406 79.878906 83.691406 C 79.578125 83.566406 79.265625 83.503906 78.941406 83.503906 L 10.519531 83.503906 C 10.195312 83.503906 9.882812 83.566406 9.585938 83.691406 C 9.285156 83.816406 9.023438 83.992188 8.792969 84.21875 C 8.5625 84.449219 8.386719 84.714844 8.261719 85.011719 C 8.140625 85.3125 8.078125 85.625 8.078125 85.949219 L 8.078125 134.246094 L 1.003906 148.390625 C 0.910156 148.578125 0.839844 148.773438 0.796875 148.976562 C 0.753906 149.179688 0.738281 149.386719 0.746094 149.59375 C 0.757812 149.800781 0.792969 150.003906 0.855469 150.203125 C 0.914062 150.402344 1 150.589844 1.109375 150.769531 C 1.21875 150.945312 1.351562 151.105469 1.5 151.25 C 1.652344 151.394531 1.816406 151.515625 2 151.617188 C 2.179688 151.71875 2.375 151.796875 2.574219 151.847656 C 2.777344 151.902344 2.980469 151.925781 3.191406 151.925781 Z M 12.964844 88.390625 L 76.5 88.390625 L 76.5 132.378906 L 12.964844 132.378906 Z M 12.03125 137.265625 L 77.433594 137.265625 L 82.320312 147.039062 L 7.144531 147.039062 Z M 12.03125 137.265625 " fill-opacity="1" fill-rule="nonzero"/></g><path fill="#65a500" d="M 127.816406 125.046875 L 132.703125 125.046875 L 132.703125 129.933594 L 127.816406 129.933594 Z M 127.816406 125.046875 " fill-opacity="1" fill-rule="nonzero"/><path fill="#65a500" d="M 118.039062 125.046875 L 122.929688 125.046875 L 122.929688 129.933594 L 118.039062 129.933594 Z M 118.039062 125.046875 " fill-opacity="1" fill-rule="nonzero"/><path fill="#65a500" d="M 108.265625 125.046875 L 113.152344 125.046875 L 113.152344 129.933594 L 108.265625 129.933594 Z M 108.265625 125.046875 " fill-opacity="1" fill-rule="nonzero"/><path fill="#65a500" d="M 98.492188 125.046875 L 103.378906 125.046875 L 103.378906 129.933594 L 98.492188 129.933594 Z M 98.492188 125.046875 " fill-opacity="1" fill-rule="nonzero"/><path fill="#65a500" d="M 27.625 61.511719 L 32.511719 61.511719 L 32.511719 66.398438 L 27.625 66.398438 Z M 27.625 61.511719 " fill-opacity="1" fill-rule="nonzero"/><path fill="#65a500" d="M 27.625 71.285156 L 32.511719 71.285156 L 32.511719 76.171875 L 27.625 76.171875 Z M 27.625 71.285156 " fill-opacity="1" fill-rule="nonzero"/><path fill="#65a500" d="M 27.625 51.738281 L 32.511719 51.738281 L 32.511719 56.625 L 27.625 56.625 Z M 27.625 51.738281 " fill-opacity="1" fill-rule="nonzero"/><path fill="#65a500" d="M 27.625 32.1875 L 32.511719 32.1875 L 32.511719 37.074219 L 27.625 37.074219 Z M 27.625 32.1875 " fill-opacity="1" fill-rule="nonzero"/><path fill="#65a500" d="M 27.625 41.960938 L 32.511719 41.960938 L 32.511719 46.851562 L 27.625 46.851562 Z M 27.625 41.960938 " fill-opacity="1" fill-rule="nonzero"/><path fill="#65a500" d="M 27.625 22.414062 L 32.511719 22.414062 L 32.511719 27.300781 L 27.625 27.300781 Z M 27.625 22.414062 " fill-opacity="1" fill-rule="nonzero"/><path fill="#65a500" d="M 76.5 22.414062 L 81.386719 22.414062 L 81.386719 27.300781 L 76.5 27.300781 Z M 76.5 22.414062 " fill-opacity="1" fill-rule="nonzero"/><path fill="#65a500" d="M 56.949219 22.414062 L 61.835938 22.414062 L 61.835938 27.300781 L 56.949219 27.300781 Z M 56.949219 22.414062 " fill-opacity="1" fill-rule="nonzero"/><path fill="#65a500" d="M 66.722656 22.414062 L 71.613281 22.414062 L 71.613281 27.300781 L 66.722656 27.300781 Z M 66.722656 22.414062 " fill-opacity="1" fill-rule="nonzero"/><path fill="#65a500" d="M 47.175781 22.414062 L 52.0625 22.414062 L 52.0625 27.300781 L 47.175781 27.300781 Z M 47.175781 22.414062 " fill-opacity="1" fill-rule="nonzero"/><path fill="#65a500" d="M 37.402344 22.414062 L 42.289062 22.414062 L 42.289062 27.300781 L 37.402344 27.300781 Z M 37.402344 22.414062 " fill-opacity="1" fill-rule="nonzero"/><path fill="#65a500" d="M 86.273438 22.414062 L 91.160156 22.414062 L 91.160156 27.300781 L 86.273438 27.300781 Z M 86.273438 22.414062 " fill-opacity="1" fill-rule="nonzero"/><path fill="#65a500" d="M 127.816406 115.273438 L 132.703125 115.273438 L 132.703125 120.160156 L 127.816406 120.160156 Z M 127.816406 115.273438 " fill-opacity="1" fill-rule="nonzero"/><path fill="#65a500" d="M 127.816406 105.496094 L 132.703125 105.496094 L 132.703125 110.382812 L 127.816406 110.382812 Z M 127.816406 105.496094 " fill-opacity="1" fill-rule="nonzero"/><path fill="#65a500" d="M 127.816406 95.722656 L 132.703125 95.722656 L 132.703125 100.609375 L 127.816406 100.609375 Z M 127.816406 95.722656 " fill-opacity="1" fill-rule="nonzero"/><path fill="#65a500" d="M 88.71875 125.046875 L 93.605469 125.046875 L 93.605469 129.933594 L 88.71875 129.933594 Z M 88.71875 125.046875 " fill-opacity="1" fill-rule="nonzero"/><path fill="#65a500" d="M 49.046875 112.464844 C 49.46875 111.824219 49.832031 111.148438 50.125 110.4375 C 50.421875 109.726562 50.648438 108.996094 50.804688 108.242188 C 50.960938 107.488281 51.046875 106.726562 51.058594 105.957031 C 51.074219 105.191406 51.011719 104.425781 50.882812 103.667969 C 50.75 102.910156 50.546875 102.171875 50.277344 101.453125 C 50.003906 100.730469 49.667969 100.042969 49.265625 99.386719 C 48.863281 98.730469 48.402344 98.117188 47.886719 97.550781 C 47.367188 96.980469 46.800781 96.464844 46.1875 96.003906 C 45.570312 95.542969 44.917969 95.144531 44.226562 94.804688 C 43.535156 94.46875 42.816406 94.195312 42.074219 93.996094 C 41.332031 93.792969 40.578125 93.660156 39.8125 93.601562 C 39.042969 93.542969 38.277344 93.554688 37.515625 93.640625 C 36.75 93.726562 36 93.882812 35.265625 94.113281 C 34.53125 94.339844 33.824219 94.632812 33.144531 94.996094 C 32.464844 95.359375 31.824219 95.78125 31.226562 96.261719 C 30.628906 96.746094 30.078125 97.28125 29.582031 97.867188 C 28.828125 98.753906 28.214844 99.730469 27.738281 100.792969 C 27.265625 101.855469 26.949219 102.964844 26.792969 104.117188 C 26.636719 105.273438 26.644531 106.425781 26.816406 107.574219 C 26.988281 108.726562 27.316406 109.832031 27.804688 110.886719 C 28.292969 111.945312 28.917969 112.914062 29.683594 113.792969 C 30.449219 114.667969 31.320312 115.421875 32.300781 116.050781 C 33.28125 116.679688 34.328125 117.160156 35.445312 117.488281 C 36.5625 117.816406 37.703125 117.984375 38.867188 117.988281 C 39.203125 117.988281 39.546875 117.972656 39.886719 117.945312 C 41.960938 117.761719 43.859375 117.085938 45.585938 115.925781 L 56.171875 126.511719 C 56.402344 126.742188 56.667969 126.917969 56.96875 127.042969 C 57.265625 127.167969 57.578125 127.226562 57.90625 127.226562 C 58.230469 127.226562 58.542969 127.164062 58.839844 127.042969 C 59.140625 126.917969 59.40625 126.738281 59.636719 126.511719 C 59.863281 126.28125 60.042969 126.015625 60.167969 125.714844 C 60.289062 125.417969 60.351562 125.105469 60.351562 124.78125 C 60.351562 124.453125 60.292969 124.140625 60.167969 123.84375 C 60.042969 123.542969 59.867188 123.277344 59.636719 123.046875 Z M 44.480469 110.511719 C 44.289062 110.742188 44.082031 110.957031 43.859375 111.160156 C 43.640625 111.363281 43.40625 111.554688 43.164062 111.726562 C 42.917969 111.902344 42.664062 112.0625 42.402344 112.207031 C 42.136719 112.347656 41.867188 112.476562 41.585938 112.585938 C 41.308594 112.695312 41.023438 112.789062 40.730469 112.863281 C 40.441406 112.941406 40.148438 112.996094 39.847656 113.035156 C 39.550781 113.074219 39.253906 113.097656 38.953125 113.097656 C 38.652344 113.101562 38.351562 113.085938 38.054688 113.050781 C 37.757812 113.015625 37.460938 112.964844 37.167969 112.894531 C 36.878906 112.824219 36.589844 112.734375 36.308594 112.628906 C 36.027344 112.523438 35.753906 112.402344 35.488281 112.261719 C 35.222656 112.121094 34.96875 111.96875 34.71875 111.796875 C 34.472656 111.625 34.238281 111.441406 34.015625 111.242188 C 33.789062 111.039062 33.578125 110.828125 33.382812 110.601562 C 33.183594 110.375 33 110.140625 32.832031 109.890625 C 32.660156 109.644531 32.507812 109.386719 32.371094 109.117188 C 32.234375 108.851562 32.113281 108.578125 32.011719 108.292969 C 31.90625 108.011719 31.820312 107.726562 31.753906 107.433594 C 31.683594 107.140625 31.636719 106.84375 31.601562 106.546875 C 31.570312 106.25 31.558594 105.949219 31.5625 105.648438 C 31.566406 105.347656 31.589844 105.050781 31.632812 104.753906 C 31.675781 104.457031 31.734375 104.160156 31.8125 103.871094 C 31.890625 103.582031 31.984375 103.296875 32.097656 103.019531 C 32.210938 102.742188 32.339844 102.46875 32.484375 102.207031 C 32.628906 101.945312 32.792969 101.691406 32.96875 101.449219 C 33.144531 101.207031 33.335938 100.976562 33.542969 100.757812 C 33.746094 100.539062 33.964844 100.332031 34.195312 100.140625 C 34.425781 99.949219 34.667969 99.769531 34.917969 99.609375 C 35.171875 99.445312 35.433594 99.296875 35.703125 99.167969 C 35.972656 99.035156 36.25 98.921875 36.535156 98.828125 C 36.820312 98.730469 37.109375 98.652344 37.402344 98.589844 C 37.695312 98.53125 37.992188 98.488281 38.292969 98.460938 C 38.496094 98.445312 38.699219 98.4375 38.90625 98.4375 C 39.605469 98.4375 40.289062 98.539062 40.960938 98.734375 C 41.632812 98.929688 42.261719 99.21875 42.851562 99.59375 C 43.4375 99.972656 43.964844 100.421875 44.421875 100.949219 C 44.882812 101.476562 45.257812 102.058594 45.550781 102.691406 C 45.84375 103.328125 46.042969 103.988281 46.148438 104.679688 C 46.25 105.371094 46.253906 106.066406 46.160156 106.757812 C 46.066406 107.449219 45.878906 108.117188 45.59375 108.753906 C 45.308594 109.394531 44.9375 109.980469 44.488281 110.511719 Z M 44.480469 110.511719 " fill-opacity="1" fill-rule="nonzero"/><path fill="#65a500" d="M 137.558594 34.015625 L 111.636719 42.65625 C 111.15625 42.816406 110.765625 43.101562 110.460938 43.503906 C 110.15625 43.910156 109.992188 44.367188 109.972656 44.871094 C 109.953125 45.378906 110.078125 45.847656 110.347656 46.277344 C 110.617188 46.703125 110.984375 47.019531 111.449219 47.21875 L 122.648438 52.019531 L 127.445312 63.222656 C 127.640625 63.671875 127.9375 64.03125 128.347656 64.300781 C 128.753906 64.570312 129.203125 64.703125 129.691406 64.703125 L 129.792969 64.703125 C 130.300781 64.683594 130.757812 64.519531 131.160156 64.214844 C 131.566406 63.910156 131.847656 63.515625 132.007812 63.035156 L 140.648438 37.117188 C 140.796875 36.679688 140.816406 36.234375 140.710938 35.78125 C 140.601562 35.332031 140.386719 34.941406 140.058594 34.617188 C 139.730469 34.289062 139.34375 34.070312 138.890625 33.964844 C 138.441406 33.859375 137.996094 33.878906 137.558594 34.027344 Z M 129.402344 55.382812 L 126.753906 49.195312 C 126.496094 48.597656 126.066406 48.167969 125.46875 47.914062 L 119.28125 45.257812 L 134.46875 40.199219 Z M 129.402344 55.382812 " fill-opacity="1" fill-rule="nonzero"/></svg>