<svg width="11" height="11" viewBox="0 0 11 11" fill="none" xmlns="http://www.w3.org/2000/svg">
<path d="M1.37435 5.95831H8.51793L6.09197 8.38427C6.04864 8.42666 6.01414 8.47722 5.99047 8.53303C5.96681 8.58885 5.95445 8.6488 5.95412 8.70942C5.95379 8.77004 5.96548 8.83012 5.98853 8.88619C6.01157 8.94226 6.04552 8.9932 6.08838 9.03606C6.13125 9.07892 6.1822 9.11285 6.23827 9.13589C6.29435 9.15893 6.35443 9.17061 6.41505 9.17027C6.47567 9.16992 6.53562 9.15756 6.59143 9.13388C6.64724 9.11021 6.69779 9.0757 6.74017 9.03236L9.94851 5.82402C10.0344 5.73807 10.0827 5.62151 10.0827 5.49998C10.0827 5.37845 10.0344 5.26189 9.94851 5.17594L6.74017 1.96761C6.69765 1.92497 6.64712 1.89116 6.59149 1.86812C6.53586 1.84507 6.47623 1.83324 6.41602 1.83331C6.32538 1.83333 6.23679 1.86022 6.16143 1.91059C6.08608 1.96095 6.02735 2.03253 5.99266 2.11626C5.95798 2.2 5.9489 2.29214 5.96658 2.38104C5.98426 2.46993 6.02789 2.55159 6.09197 2.61569L8.51793 5.04165H1.37435C1.25279 5.04165 1.13621 5.08994 1.05026 5.17589C0.964304 5.26184 0.916016 5.37842 0.916016 5.49998C0.916016 5.62154 0.964304 5.73812 1.05026 5.82407C1.13621 5.91002 1.25279 5.95831 1.37435 5.95831Z" fill="black"/>
</svg>
