<svg width="156" height="156" viewBox="0 0 156 156" fill="none" xmlns="http://www.w3.org/2000/svg">
<circle cx="78" cy="78" r="78" fill="#65A500"/>
<path d="M94.1701 48.6667C101.283 48.6667 107.003 54.4233 107.003 61.5C107.003 68.43 101.503 74.0767 94.6467 74.3333C94.33 74.2967 94.0101 74.2967 93.6934 74.3333M101.247 107.333C103.887 106.783 106.38 105.72 108.433 104.143C114.153 99.8533 114.153 92.7767 108.433 88.4867C106.417 86.9467 103.96 85.92 101.357 85.3333M67.5867 73.8567C67.2201 73.82 66.7801 73.82 66.3767 73.8567C62.1681 73.7138 58.1804 71.9384 55.258 68.9065C52.3357 65.8746 50.7081 61.8243 50.7201 57.6133C50.7201 48.63 57.9801 41.3333 67.0001 41.3333C71.3129 41.2555 75.48 42.8942 78.5847 45.8889C81.6894 48.8835 83.4773 52.9888 83.5551 57.3017C83.6329 61.6145 81.9942 65.7817 78.9995 68.8863C76.0049 71.991 71.8996 73.7789 67.5867 73.8567ZM49.2534 87.3867C40.3801 93.3267 40.3801 103.007 49.2534 108.91C59.3367 115.657 75.8734 115.657 85.9567 108.91C94.8301 102.97 94.8301 93.29 85.9567 87.3867C75.9101 80.6767 59.3734 80.6767 49.2534 87.3867Z" stroke="white" stroke-width="1.5" stroke-linecap="round" stroke-linejoin="round"/>
</svg>
